0
SECTION
2
HEADER
9
$INSUNITS
70
6
0
ENDSEC
0
SECTION
2
ENTITIES
0
LWPOLYLINE
8
F0
90
4
70
1
10
6
20
1
10
14
20
1
10
14
20
8
10
6
20
8
0
LWPOLYLINE
8
F1
90
4
70
1
10
1
20
1
10
5
20
1
10
5
20
5
10
1
20
5
0
LWPOLYLINE
8
F2
90
4
70
1
10
1
20
1
10
5
20
1
10
5
20
5
10
1
20
5
0
LWPOLYLINE
8
F3
90
4
70
1
10
1
20
1
10
5
20
1
10
5
20
5
10
1
20
5
0
LWPOLYLINE
8
F4
90
4
70
1
10
0.2
20
0.2
10
19.8
20
0.2
10
19.8
20
24.8
10
0.2
20
24.8
0
LWPOLYLINE
8
F4
90
4
70
1
10
1
20
1
10
5
20
1
10
5
20
4
10
1
20
4
0
LWPOLYLINE
8
F4
90
4
70
1
10
8
20
17
10
18
20
17
10
18
20
23
10
8
20
23
0
ENDSEC
0
EOF
