<?xml version="1.0" encoding="UTF-8"?>
<svg xmlns="http://www.w3.org/2000/svg" width="420mm" height="297mm" viewBox="0 0 420 297" data-acs-doc="1" data-view-type="FLOOR_PLAN" data-view-id="view_35d33d7ba5aff6ec" data-model-hash="ddd051c97c85282d2ba49b37363668650c4fdbcd5696f1631722758d2234b340" data-scale-mode="FIT_TO_SHEET" data-construction-drawing="false">
<rect x="0" y="0" width="420" height="297" fill="#ffffff"/>
<line x1="234.515" y1="20.555" x2="234.515" y2="12" stroke="#000000" stroke-width="0.25" data-cls="ANNOTATION"/>
<line x1="234.515" y1="55.267" x2="234.515" y2="46.712" stroke="#000000" stroke-width="0.25" data-cls="ANNOTATION"/>
<line x1="234.515" y1="88.685" x2="234.515" y2="80.13" stroke="#000000" stroke-width="0.25" data-cls="ANNOTATION"/>
<line x1="234.515" y1="120.766" x2="234.515" y2="112.211" stroke="#000000" stroke-width="0.25" data-cls="ANNOTATION"/>
<line x1="234.515" y1="154.451" x2="234.515" y2="145.896" stroke="#000000" stroke-width="0.25" data-cls="ANNOTATION"/>
<line x1="234.515" y1="160.867" x2="234.515" y2="152.312" stroke="#000000" stroke-width="0.25" data-cls="ANNOTATION"/>
<line x1="234.515" y1="200.53" x2="234.515" y2="190.264" stroke="#000000" stroke-width="0.25" data-cls="ANNOTATION"/>
<line x1="12" y1="71.126" x2="54.86" y2="71.126" stroke="#000000" stroke-width="0.7" data-cls="CUT"/>
<line x1="12" y1="89.861" x2="54.86" y2="89.861" stroke="#000000" stroke-width="0.7" data-cls="CUT"/>
<line x1="12" y1="89.861" x2="12" y2="71.126" stroke="#000000" stroke-width="0.7" data-cls="CUT"/>
<line x1="12" y1="113.815" x2="63.33" y2="113.815" stroke="#000000" stroke-width="0.7" data-cls="CUT"/>
<line x1="12" y1="113.815" x2="12" y2="89.861" stroke="#000000" stroke-width="0.7" data-cls="CUT"/>
<line x1="12" y1="113.9" x2="80.269" y2="113.9" stroke="#000000" stroke-width="0.7" data-cls="CUT"/>
<line x1="12" y1="113.9" x2="12" y2="113.815" stroke="#000000" stroke-width="0.7" data-cls="CUT"/>
<line x1="12" y1="140.592" x2="63.33" y2="140.592" stroke="#000000" stroke-width="0.7" data-cls="CUT"/>
<line x1="12" y1="140.592" x2="12" y2="113.9" stroke="#000000" stroke-width="0.7" data-cls="CUT"/>
<line x1="12" y1="226.142" x2="12" y2="140.592" stroke="#000000" stroke-width="0.7" data-cls="CUT"/>
<line x1="12" y1="226.142" x2="84.461" y2="226.142" stroke="#000000" stroke-width="0.7" data-cls="CUT"/>
<line x1="12" y1="244.877" x2="123.129" y2="244.877" stroke="#000000" stroke-width="0.7" data-cls="CUT"/>
<line x1="12" y1="244.877" x2="12" y2="226.142" stroke="#000000" stroke-width="0.7" data-cls="CUT"/>
<line x1="12" y1="260.961" x2="123.129" y2="260.961" stroke="#000000" stroke-width="0.7" data-cls="CUT"/>
<line x1="12" y1="260.961" x2="12" y2="244.877" stroke="#000000" stroke-width="0.7" data-cls="CUT"/>
<line x1="12" y1="285" x2="123.129" y2="285" stroke="#000000" stroke-width="0.7" data-cls="CUT"/>
<line x1="12" y1="285" x2="12" y2="260.961" stroke="#000000" stroke-width="0.7" data-cls="CUT"/>
<line x1="54.86" y1="71.126" x2="97.721" y2="71.126" stroke="#000000" stroke-width="0.7" data-cls="CUT"/>
<line x1="54.86" y1="89.861" x2="80.269" y2="89.861" stroke="#000000" stroke-width="0.7" data-cls="CUT"/>
<line x1="54.86" y1="89.861" x2="54.86" y2="71.126" stroke="#000000" stroke-width="0.7" data-cls="CUT"/>
<line x1="63.33" y1="113.815" x2="114.66" y2="113.815" stroke="#000000" stroke-width="0.7" data-cls="CUT"/>
<line x1="63.33" y1="140.592" x2="84.461" y2="140.592" stroke="#000000" stroke-width="0.7" data-cls="CUT"/>
<line x1="63.33" y1="140.592" x2="63.33" y2="113.815" stroke="#000000" stroke-width="0.7" data-cls="CUT"/>
<line x1="80.269" y1="89.861" x2="97.721" y2="89.861" stroke="#000000" stroke-width="0.7" data-cls="CUT"/>
<line x1="80.269" y1="113.9" x2="114.403" y2="113.9" stroke="#000000" stroke-width="0.7" data-cls="CUT"/>
<line x1="80.269" y1="113.9" x2="80.269" y2="89.861" stroke="#000000" stroke-width="0.7" data-cls="CUT"/>
<line x1="84.461" y1="140.592" x2="114.66" y2="140.592" stroke="#000000" stroke-width="0.7" data-cls="CUT"/>
<line x1="84.461" y1="226.142" x2="84.461" y2="140.592" stroke="#000000" stroke-width="0.7" data-cls="CUT"/>
<line x1="84.461" y1="226.142" x2="139.982" y2="226.142" stroke="#000000" stroke-width="0.7" data-cls="CUT"/>
<line x1="97.721" y1="71.126" x2="136.218" y2="71.126" stroke="#000000" stroke-width="0.7" data-cls="CUT"/>
<line x1="97.721" y1="89.861" x2="114.403" y2="89.861" stroke="#000000" stroke-width="0.7" data-cls="CUT"/>
<line x1="97.721" y1="89.861" x2="97.721" y2="71.126" stroke="#000000" stroke-width="0.7" data-cls="CUT"/>
<line x1="114.403" y1="89.861" x2="114.66" y2="89.861" stroke="#000000" stroke-width="0.7" data-cls="CUT"/>
<line x1="114.403" y1="113.9" x2="114.403" y2="89.861" stroke="#000000" stroke-width="0.7" data-cls="CUT"/>
<line x1="114.66" y1="89.861" x2="136.218" y2="89.861" stroke="#000000" stroke-width="0.7" data-cls="CUT"/>
<line x1="114.66" y1="113.815" x2="170.353" y2="113.815" stroke="#000000" stroke-width="0.7" data-cls="CUT"/>
<line x1="114.66" y1="113.815" x2="114.66" y2="89.861" stroke="#000000" stroke-width="0.7" data-cls="CUT"/>
<line x1="114.66" y1="113.9" x2="140.325" y2="113.9" stroke="#000000" stroke-width="0.7" data-cls="CUT"/>
<line x1="114.66" y1="113.9" x2="114.66" y2="113.815" stroke="#000000" stroke-width="0.7" data-cls="CUT"/>
<line x1="114.66" y1="140.592" x2="139.982" y2="140.592" stroke="#000000" stroke-width="0.7" data-cls="CUT"/>
<line x1="114.66" y1="140.592" x2="114.66" y2="113.9" stroke="#000000" stroke-width="0.7" data-cls="CUT"/>
<line x1="123.129" y1="244.877" x2="178.822" y2="244.877" stroke="#000000" stroke-width="0.7" data-cls="CUT"/>
<line x1="123.129" y1="260.961" x2="123.129" y2="244.877" stroke="#000000" stroke-width="0.7" data-cls="CUT"/>
<line x1="123.129" y1="285" x2="178.822" y2="285" stroke="#000000" stroke-width="0.7" data-cls="CUT"/>
<line x1="123.129" y1="285" x2="123.129" y2="260.961" stroke="#000000" stroke-width="0.7" data-cls="CUT"/>
<line x1="136.218" y1="71.126" x2="183.185" y2="71.126" stroke="#000000" stroke-width="0.7" data-cls="CUT"/>
<line x1="136.218" y1="89.861" x2="140.325" y2="89.861" stroke="#000000" stroke-width="0.7" data-cls="CUT"/>
<line x1="136.218" y1="89.861" x2="136.218" y2="71.126" stroke="#000000" stroke-width="0.7" data-cls="CUT"/>
<line x1="139.982" y1="140.592" x2="170.353" y2="140.592" stroke="#000000" stroke-width="0.7" data-cls="CUT"/>
<line x1="139.982" y1="226.142" x2="178.822" y2="226.142" stroke="#000000" stroke-width="0.7" data-cls="CUT"/>
<line x1="139.982" y1="226.142" x2="139.982" y2="140.592" stroke="#000000" stroke-width="0.7" data-cls="CUT"/>
<line x1="140.325" y1="89.861" x2="178.822" y2="89.861" stroke="#000000" stroke-width="0.7" data-cls="CUT"/>
<line x1="140.325" y1="113.9" x2="178.822" y2="113.9" stroke="#000000" stroke-width="0.7" data-cls="CUT"/>
<line x1="140.325" y1="113.9" x2="140.325" y2="89.861" stroke="#000000" stroke-width="0.7" data-cls="CUT"/>
<line x1="170.353" y1="113.815" x2="217.319" y2="113.815" stroke="#000000" stroke-width="0.7" data-cls="CUT"/>
<line x1="170.353" y1="140.592" x2="182.757" y2="140.592" stroke="#000000" stroke-width="0.7" data-cls="CUT"/>
<line x1="170.353" y1="140.592" x2="170.353" y2="113.815" stroke="#000000" stroke-width="0.7" data-cls="CUT"/>
<line x1="178.822" y1="89.861" x2="183.185" y2="89.861" stroke="#000000" stroke-width="0.7" data-cls="CUT"/>
<line x1="178.822" y1="113.9" x2="238.621" y2="113.9" stroke="#000000" stroke-width="0.7" data-cls="CUT"/>
<line x1="178.822" y1="113.9" x2="178.822" y2="89.861" stroke="#000000" stroke-width="0.7" data-cls="CUT"/>
<line x1="178.822" y1="226.142" x2="182.757" y2="226.142" stroke="#000000" stroke-width="0.7" data-cls="CUT"/>
<line x1="178.822" y1="244.877" x2="234.515" y2="244.877" stroke="#000000" stroke-width="0.7" data-cls="CUT"/>
<line x1="178.822" y1="244.877" x2="178.822" y2="226.142" stroke="#000000" stroke-width="0.7" data-cls="CUT"/>
<line x1="178.822" y1="285" x2="268.649" y2="285" stroke="#000000" stroke-width="0.7" data-cls="CUT"/>
<line x1="178.822" y1="285" x2="178.822" y2="244.877" stroke="#000000" stroke-width="0.7" data-cls="CUT"/>
<line x1="182.757" y1="140.592" x2="217.319" y2="140.592" stroke="#000000" stroke-width="0.7" data-cls="CUT"/>
<line x1="182.757" y1="226.142" x2="221.169" y2="226.142" stroke="#000000" stroke-width="0.7" data-cls="CUT"/>
<line x1="182.757" y1="226.142" x2="182.757" y2="140.592" stroke="#000000" stroke-width="0.7" data-cls="CUT"/>
<line x1="183.185" y1="71.126" x2="208.85" y2="71.126" stroke="#000000" stroke-width="0.7" data-cls="CUT"/>
<line x1="183.185" y1="89.861" x2="208.85" y2="89.861" stroke="#000000" stroke-width="0.7" data-cls="CUT"/>
<line x1="183.185" y1="89.861" x2="183.185" y2="71.126" stroke="#000000" stroke-width="0.7" data-cls="CUT"/>
<line x1="208.85" y1="71.126" x2="268.649" y2="71.126" stroke="#000000" stroke-width="0.7" data-cls="CUT"/>
<line x1="208.85" y1="89.861" x2="238.621" y2="89.861" stroke="#000000" stroke-width="0.7" data-cls="CUT"/>
<line x1="208.85" y1="89.861" x2="208.85" y2="71.126" stroke="#000000" stroke-width="0.7" data-cls="CUT"/>
<line x1="217.319" y1="113.815" x2="268.649" y2="113.815" stroke="#000000" stroke-width="0.7" data-cls="CUT"/>
<line x1="217.319" y1="140.592" x2="221.169" y2="140.592" stroke="#000000" stroke-width="0.7" data-cls="CUT"/>
<line x1="217.319" y1="140.592" x2="217.319" y2="113.815" stroke="#000000" stroke-width="0.7" data-cls="CUT"/>
<line x1="221.169" y1="140.592" x2="255.389" y2="140.592" stroke="#000000" stroke-width="0.7" data-cls="CUT"/>
<line x1="221.169" y1="226.142" x2="234.515" y2="226.142" stroke="#000000" stroke-width="0.7" data-cls="CUT"/>
<line x1="221.169" y1="226.142" x2="221.169" y2="140.592" stroke="#000000" stroke-width="0.7" data-cls="CUT"/>
<line x1="234.515" y1="140.678" x2="268.649" y2="140.678" stroke="#000000" stroke-width="0.7" data-cls="CUT"/>
<line x1="234.515" y1="153.938" x2="234.515" y2="140.678" stroke="#000000" stroke-width="0.7" data-cls="CUT"/>
<line x1="234.515" y1="153.938" x2="268.649" y2="153.938" stroke="#000000" stroke-width="0.7" data-cls="CUT"/>
<line x1="234.515" y1="154.023" x2="268.649" y2="154.023" stroke="#000000" stroke-width="0.7" data-cls="CUT"/>
<line x1="234.515" y1="154.023" x2="234.515" y2="153.938" stroke="#000000" stroke-width="0.7" data-cls="CUT"/>
<line x1="234.515" y1="172.673" x2="268.649" y2="172.673" stroke="#000000" stroke-width="0.7" data-cls="CUT"/>
<line x1="234.515" y1="172.673" x2="234.515" y2="154.023" stroke="#000000" stroke-width="0.7" data-cls="CUT"/>
<line x1="234.515" y1="188.671" x2="268.649" y2="188.671" stroke="#000000" stroke-width="0.7" data-cls="CUT"/>
<line x1="234.515" y1="188.671" x2="234.515" y2="172.673" stroke="#000000" stroke-width="0.7" data-cls="CUT"/>
<line x1="234.515" y1="188.757" x2="268.649" y2="188.757" stroke="#000000" stroke-width="0.7" data-cls="CUT"/>
<line x1="234.515" y1="188.757" x2="234.515" y2="188.671" stroke="#000000" stroke-width="0.7" data-cls="CUT"/>
<line x1="234.515" y1="204.754" x2="268.649" y2="204.754" stroke="#000000" stroke-width="0.7" data-cls="CUT"/>
<line x1="234.515" y1="204.754" x2="234.515" y2="188.757" stroke="#000000" stroke-width="0.7" data-cls="CUT"/>
<line x1="234.515" y1="226.142" x2="255.389" y2="226.142" stroke="#000000" stroke-width="0.7" data-cls="CUT"/>
<line x1="234.515" y1="226.142" x2="234.515" y2="204.754" stroke="#000000" stroke-width="0.7" data-cls="CUT"/>
<line x1="234.515" y1="244.877" x2="268.649" y2="244.877" stroke="#000000" stroke-width="0.7" data-cls="CUT"/>
<line x1="234.515" y1="244.877" x2="234.515" y2="226.142" stroke="#000000" stroke-width="0.7" data-cls="CUT"/>
<line x1="238.621" y1="89.861" x2="268.649" y2="89.861" stroke="#000000" stroke-width="0.7" data-cls="CUT"/>
<line x1="238.621" y1="113.9" x2="238.621" y2="89.861" stroke="#000000" stroke-width="0.7" data-cls="CUT"/>
<line x1="238.621" y1="113.9" x2="268.649" y2="113.9" stroke="#000000" stroke-width="0.7" data-cls="CUT"/>
<line x1="255.389" y1="140.592" x2="268.649" y2="140.592" stroke="#000000" stroke-width="0.7" data-cls="CUT"/>
<line x1="255.389" y1="226.142" x2="255.389" y2="140.592" stroke="#000000" stroke-width="0.7" data-cls="CUT"/>
<line x1="255.389" y1="226.142" x2="268.649" y2="226.142" stroke="#000000" stroke-width="0.7" data-cls="CUT"/>
<line x1="268.649" y1="89.861" x2="268.649" y2="71.126" stroke="#000000" stroke-width="0.7" data-cls="CUT"/>
<line x1="268.649" y1="113.815" x2="268.649" y2="89.861" stroke="#000000" stroke-width="0.7" data-cls="CUT"/>
<line x1="268.649" y1="113.9" x2="268.649" y2="113.815" stroke="#000000" stroke-width="0.7" data-cls="CUT"/>
<line x1="268.649" y1="140.592" x2="268.649" y2="113.9" stroke="#000000" stroke-width="0.7" data-cls="CUT"/>
<line x1="268.649" y1="140.678" x2="268.649" y2="140.592" stroke="#000000" stroke-width="0.7" data-cls="CUT"/>
<line x1="268.649" y1="153.938" x2="268.649" y2="140.678" stroke="#000000" stroke-width="0.7" data-cls="CUT"/>
<line x1="268.649" y1="154.023" x2="268.649" y2="153.938" stroke="#000000" stroke-width="0.7" data-cls="CUT"/>
<line x1="268.649" y1="172.673" x2="268.649" y2="154.023" stroke="#000000" stroke-width="0.7" data-cls="CUT"/>
<line x1="268.649" y1="188.671" x2="268.649" y2="172.673" stroke="#000000" stroke-width="0.7" data-cls="CUT"/>
<line x1="268.649" y1="188.757" x2="268.649" y2="188.671" stroke="#000000" stroke-width="0.7" data-cls="CUT"/>
<line x1="268.649" y1="204.754" x2="268.649" y2="188.757" stroke="#000000" stroke-width="0.7" data-cls="CUT"/>
<line x1="268.649" y1="226.142" x2="268.649" y2="204.754" stroke="#000000" stroke-width="0.7" data-cls="CUT"/>
<line x1="268.649" y1="244.877" x2="268.649" y2="226.142" stroke="#000000" stroke-width="0.7" data-cls="CUT"/>
<line x1="268.649" y1="285" x2="268.649" y2="244.877" stroke="#000000" stroke-width="0.7" data-cls="CUT"/>
<rect x="12" y="71.126" width="256.649" height="213.874" fill="none" stroke="#000000" stroke-width="0.13" stroke-dasharray="1.6 1.2" data-cls="REFERENCE"/>
<rect x="12" y="71.126" width="42.86" height="18.735" fill="#000000" fill-opacity="0.06" stroke="#000000" stroke-width="0.13" stroke-dasharray="1.6 1.2" data-cls="REFERENCE"/>
<rect x="12" y="71.126" width="256.649" height="213.874" fill="#000000" fill-opacity="0.06" stroke="#000000" stroke-width="0.13" stroke-dasharray="1.6 1.2" data-cls="REFERENCE"/>
<rect x="12" y="89.861" width="68.269" height="24.039" fill="#000000" fill-opacity="0.06" stroke="#000000" stroke-width="0.13" stroke-dasharray="1.6 1.2" data-cls="REFERENCE"/>
<rect x="12" y="113.815" width="51.33" height="26.777" fill="#000000" fill-opacity="0.06" stroke="#000000" stroke-width="0.13" stroke-dasharray="1.6 1.2" data-cls="REFERENCE"/>
<rect x="12" y="140.592" width="72.461" height="85.55" fill="#000000" fill-opacity="0.06" stroke="#000000" stroke-width="0.13" stroke-dasharray="1.6 1.2" data-cls="REFERENCE"/>
<rect x="12" y="226.142" width="166.822" height="18.735" fill="#000000" fill-opacity="0.06" stroke="#000000" stroke-width="0.13" stroke-dasharray="1.6 1.2" data-cls="REFERENCE"/>
<rect x="12" y="244.877" width="111.129" height="16.083" fill="#000000" fill-opacity="0.06" stroke="#000000" stroke-width="0.13" stroke-dasharray="1.6 1.2" data-cls="REFERENCE"/>
<rect x="12" y="260.961" width="111.129" height="24.039" fill="#000000" fill-opacity="0.06" stroke="#000000" stroke-width="0.13" stroke-dasharray="1.6 1.2" data-cls="REFERENCE"/>
<rect x="54.86" y="71.126" width="42.86" height="18.735" fill="#000000" fill-opacity="0.06" stroke="#000000" stroke-width="0.13" stroke-dasharray="1.6 1.2" data-cls="REFERENCE"/>
<rect x="63.33" y="113.815" width="51.33" height="26.777" fill="#000000" fill-opacity="0.06" stroke="#000000" stroke-width="0.13" stroke-dasharray="1.6 1.2" data-cls="REFERENCE"/>
<rect x="80.269" y="89.861" width="34.134" height="24.039" fill="#000000" fill-opacity="0.06" stroke="#000000" stroke-width="0.13" stroke-dasharray="1.6 1.2" data-cls="REFERENCE"/>
<rect x="84.461" y="140.592" width="55.522" height="85.55" fill="#000000" fill-opacity="0.06" stroke="#000000" stroke-width="0.13" stroke-dasharray="1.6 1.2" data-cls="REFERENCE"/>
<rect x="97.721" y="71.126" width="38.497" height="18.735" fill="#000000" fill-opacity="0.06" stroke="#000000" stroke-width="0.13" stroke-dasharray="1.6 1.2" data-cls="REFERENCE"/>
<rect x="114.66" y="89.861" width="25.665" height="24.039" fill="#000000" fill-opacity="0.06" stroke="#000000" stroke-width="0.13" stroke-dasharray="1.6 1.2" data-cls="REFERENCE"/>
<rect x="114.66" y="113.815" width="55.693" height="26.777" fill="#000000" fill-opacity="0.06" stroke="#000000" stroke-width="0.13" stroke-dasharray="1.6 1.2" data-cls="REFERENCE"/>
<rect x="123.129" y="244.877" width="55.693" height="40.123" fill="#000000" fill-opacity="0.06" stroke="#000000" stroke-width="0.13" stroke-dasharray="1.6 1.2" data-cls="REFERENCE"/>
<rect x="136.218" y="71.126" width="46.967" height="18.735" fill="#000000" fill-opacity="0.06" stroke="#000000" stroke-width="0.13" stroke-dasharray="1.6 1.2" data-cls="REFERENCE"/>
<rect x="139.982" y="140.592" width="42.775" height="85.55" fill="#000000" fill-opacity="0.06" stroke="#000000" stroke-width="0.13" stroke-dasharray="1.6 1.2" data-cls="REFERENCE"/>
<rect x="140.325" y="89.861" width="38.497" height="24.039" fill="#000000" fill-opacity="0.06" stroke="#000000" stroke-width="0.13" stroke-dasharray="1.6 1.2" data-cls="REFERENCE"/>
<rect x="170.353" y="113.815" width="46.967" height="26.777" fill="#000000" fill-opacity="0.06" stroke="#000000" stroke-width="0.13" stroke-dasharray="1.6 1.2" data-cls="REFERENCE"/>
<rect x="178.822" y="89.861" width="59.799" height="24.039" fill="#000000" fill-opacity="0.06" stroke="#000000" stroke-width="0.13" stroke-dasharray="1.6 1.2" data-cls="REFERENCE"/>
<rect x="178.822" y="226.142" width="55.693" height="18.735" fill="#000000" fill-opacity="0.06" stroke="#000000" stroke-width="0.13" stroke-dasharray="1.6 1.2" data-cls="REFERENCE"/>
<rect x="178.822" y="244.877" width="89.827" height="40.123" fill="#000000" fill-opacity="0.06" stroke="#000000" stroke-width="0.13" stroke-dasharray="1.6 1.2" data-cls="REFERENCE"/>
<rect x="182.757" y="140.592" width="38.412" height="85.55" fill="#000000" fill-opacity="0.06" stroke="#000000" stroke-width="0.13" stroke-dasharray="1.6 1.2" data-cls="REFERENCE"/>
<rect x="183.185" y="71.126" width="25.665" height="18.735" fill="#000000" fill-opacity="0.06" stroke="#000000" stroke-width="0.13" stroke-dasharray="1.6 1.2" data-cls="REFERENCE"/>
<rect x="208.85" y="71.126" width="59.799" height="18.735" fill="#000000" fill-opacity="0.06" stroke="#000000" stroke-width="0.13" stroke-dasharray="1.6 1.2" data-cls="REFERENCE"/>
<rect x="217.319" y="113.815" width="51.33" height="26.777" fill="#000000" fill-opacity="0.06" stroke="#000000" stroke-width="0.13" stroke-dasharray="1.6 1.2" data-cls="REFERENCE"/>
<rect x="221.169" y="140.592" width="34.22" height="85.55" fill="#000000" fill-opacity="0.06" stroke="#000000" stroke-width="0.13" stroke-dasharray="1.6 1.2" data-cls="REFERENCE"/>
<rect x="234.515" y="140.678" width="34.134" height="13.346" fill="#000000" fill-opacity="0.06" stroke="#000000" stroke-width="0.13" stroke-dasharray="1.6 1.2" data-cls="REFERENCE"/>
<rect x="234.515" y="153.938" width="34.134" height="18.735" fill="#000000" fill-opacity="0.06" stroke="#000000" stroke-width="0.13" stroke-dasharray="1.6 1.2" data-cls="REFERENCE"/>
<rect x="234.515" y="172.673" width="34.134" height="16.083" fill="#000000" fill-opacity="0.06" stroke="#000000" stroke-width="0.13" stroke-dasharray="1.6 1.2" data-cls="REFERENCE"/>
<rect x="234.515" y="188.671" width="34.134" height="16.083" fill="#000000" fill-opacity="0.06" stroke="#000000" stroke-width="0.13" stroke-dasharray="1.6 1.2" data-cls="REFERENCE"/>
<rect x="234.515" y="204.754" width="34.134" height="21.387" fill="#000000" fill-opacity="0.06" stroke="#000000" stroke-width="0.13" stroke-dasharray="1.6 1.2" data-cls="REFERENCE"/>
<rect x="234.515" y="226.142" width="34.134" height="18.735" fill="#000000" fill-opacity="0.06" stroke="#000000" stroke-width="0.13" stroke-dasharray="1.6 1.2" data-cls="REFERENCE"/>
<rect x="238.621" y="89.861" width="30.028" height="24.039" fill="#000000" fill-opacity="0.06" stroke="#000000" stroke-width="0.13" stroke-dasharray="1.6 1.2" data-cls="REFERENCE"/>
<text x="33.43" y="80.493" font-family="monospace" font-size="2.6" text-anchor="middle" fill="#000000" data-cls="ANNOTATION">dispatch_dhl</text>
<text x="37.665" y="127.203" font-family="monospace" font-size="2.6" text-anchor="middle" fill="#000000" data-cls="ANNOTATION">batch_picking</text>
<text x="46.134" y="101.881" font-family="monospace" font-size="2.6" text-anchor="middle" fill="#000000" data-cls="ANNOTATION">packing</text>
<text x="48.23" y="183.367" font-family="monospace" font-size="2.6" text-anchor="middle" fill="#000000" data-cls="ANNOTATION">bulk_pallet_A</text>
<text x="67.565" y="252.919" font-family="monospace" font-size="2.6" text-anchor="middle" fill="#000000" data-cls="ANNOTATION">fast_unload</text>
<text x="67.565" y="272.98" font-family="monospace" font-size="2.6" text-anchor="middle" fill="#000000" data-cls="ANNOTATION">inbound_docks</text>
<text x="76.291" y="80.493" font-family="monospace" font-size="2.6" text-anchor="middle" fill="#000000" data-cls="ANNOTATION">dispatch_aramex</text>
<text x="88.995" y="127.203" font-family="monospace" font-size="2.6" text-anchor="middle" fill="#000000" data-cls="ANNOTATION">wave_picking</text>
<text x="95.411" y="235.509" font-family="monospace" font-size="2.6" text-anchor="middle" fill="#000000" data-cls="ANNOTATION">inbound_staging</text>
<text x="97.336" y="101.881" font-family="monospace" font-size="2.6" text-anchor="middle" fill="#000000" data-cls="ANNOTATION">labeling_qa</text>
<text x="112.222" y="183.367" font-family="monospace" font-size="2.6" text-anchor="middle" fill="#000000" data-cls="ANNOTATION">medium_shelf_B</text>
<text x="116.97" y="80.493" font-family="monospace" font-size="2.6" text-anchor="middle" fill="#000000" data-cls="ANNOTATION">dispatch_smsa</text>
<text x="127.492" y="101.881" font-family="monospace" font-size="2.6" text-anchor="middle" fill="#000000" data-cls="ANNOTATION">void_fill</text>
<text x="140.325" y="178.063" font-family="monospace" font-size="2.6" text-anchor="middle" fill="#000000" data-cls="ANNOTATION">envelope</text>
<text x="142.506" y="127.203" font-family="monospace" font-size="2.6" text-anchor="middle" fill="#000000" data-cls="ANNOTATION">zone_picking</text>
<text x="150.976" y="264.939" font-family="monospace" font-size="2.6" text-anchor="middle" fill="#000000" data-cls="ANNOTATION">qc_inspection</text>
<text x="159.573" y="101.881" font-family="monospace" font-size="2.6" text-anchor="middle" fill="#000000" data-cls="ANNOTATION">consolidation</text>
<text x="159.702" y="80.493" font-family="monospace" font-size="2.6" text-anchor="middle" fill="#000000" data-cls="ANNOTATION">lastmile_lanes</text>
<text x="161.37" y="183.367" font-family="monospace" font-size="2.6" text-anchor="middle" fill="#000000" data-cls="ANNOTATION">bin_storage_C</text>
<text x="193.836" y="127.203" font-family="monospace" font-size="2.6" text-anchor="middle" fill="#000000" data-cls="ANNOTATION">amr_field</text>
<text x="196.018" y="80.493" font-family="monospace" font-size="2.6" text-anchor="middle" fill="#000000" data-cls="ANNOTATION">pallet_wrapping</text>
<text x="201.963" y="183.367" font-family="monospace" font-size="2.6" text-anchor="middle" fill="#000000" data-cls="ANNOTATION">flow_racks_fast</text>
<text x="206.668" y="235.509" font-family="monospace" font-size="2.6" text-anchor="middle" fill="#000000" data-cls="ANNOTATION">replenishment</text>
<text x="208.722" y="101.881" font-family="monospace" font-size="2.6" text-anchor="middle" fill="#000000" data-cls="ANNOTATION">auto_sorter</text>
<text x="223.736" y="264.939" font-family="monospace" font-size="2.6" text-anchor="middle" fill="#000000" data-cls="ANNOTATION">crossdock</text>
<text x="234.515" y="16.277" font-family="monospace" font-size="2.6" text-anchor="middle" fill="#000000" data-cls="ANNOTATION">D4B8C6A</text>
<text x="234.515" y="50.989" font-family="monospace" font-size="2.6" text-anchor="middle" fill="#000000" data-cls="ANNOTATION">D70E68A</text>
<text x="234.515" y="84.407" font-family="monospace" font-size="2.6" text-anchor="middle" fill="#000000" data-cls="ANNOTATION">DE97544</text>
<text x="234.515" y="116.488" font-family="monospace" font-size="2.6" text-anchor="middle" fill="#000000" data-cls="ANNOTATION">DF9CCF0</text>
<text x="234.515" y="150.174" font-family="monospace" font-size="2.6" text-anchor="middle" fill="#000000" data-cls="ANNOTATION">WBE2C08</text>
<text x="234.515" y="156.59" font-family="monospace" font-size="2.6" text-anchor="middle" fill="#000000" data-cls="ANNOTATION">D9C85CC</text>
<text x="234.515" y="195.397" font-family="monospace" font-size="2.6" text-anchor="middle" fill="#000000" data-cls="ANNOTATION">DF83DD5</text>
<text x="238.279" y="183.367" font-family="monospace" font-size="2.6" text-anchor="middle" fill="#000000" data-cls="ANNOTATION">replen_aisle_main</text>
<text x="238.75" y="80.493" font-family="monospace" font-size="2.6" text-anchor="middle" fill="#000000" data-cls="ANNOTATION">outbound_docks</text>
<text x="242.984" y="127.203" font-family="monospace" font-size="2.6" text-anchor="middle" fill="#000000" data-cls="ANNOTATION">human_picking</text>
<text x="251.582" y="147.35" font-family="monospace" font-size="2.6" text-anchor="middle" fill="#000000" data-cls="ANNOTATION">lockers</text>
<text x="251.582" y="163.305" font-family="monospace" font-size="2.6" text-anchor="middle" fill="#000000" data-cls="ANNOTATION">rest_area</text>
<text x="251.582" y="180.715" font-family="monospace" font-size="2.6" text-anchor="middle" fill="#000000" data-cls="ANNOTATION">meeting_room</text>
<text x="251.582" y="196.713" font-family="monospace" font-size="2.6" text-anchor="middle" fill="#000000" data-cls="ANNOTATION">it_server_room</text>
<text x="251.582" y="215.448" font-family="monospace" font-size="2.6" text-anchor="middle" fill="#000000" data-cls="ANNOTATION">inventory_office</text>
<text x="251.582" y="235.509" font-family="monospace" font-size="2.6" text-anchor="middle" fill="#000000" data-cls="ANNOTATION">maintenance</text>
<text x="253.635" y="101.881" font-family="monospace" font-size="2.6" text-anchor="middle" fill="#000000" data-cls="ANNOTATION">manual_sort</text>
<text x="12" y="292" font-family="monospace" font-size="2.4" fill="#000000">model-derived documentation — not a construction drawing</text>
</svg>