ISO-10303-21;
HEADER;
FILE_DESCRIPTION(('ViewDefinition [CoordinationView]'),'2;1');
FILE_NAME('\X2\06450633062A0648062F0639\X0\ \X2\062A062C062706310629\X0\ \X2\062506440643062A063106480646064A0629\X0\ 30\X2\00D7\X0\25.ifc','2026-09-06T00:00:00Z',('ACS'),('AI Construction Studio'),'acs-bim-step/1.0.0','acs-bim/1.0.0','');
FILE_SCHEMA(('IFC4'));
ENDSEC;
DATA;
#1=IFCPERSON($,$,'acs',$,$,$,$,$);
#2=IFCORGANIZATION($,'AI Construction Studio',$,$,$);
#3=IFCPERSONANDORGANIZATION(#1,#2,$);
#4=IFCAPPLICATION(#2,'1.0.0','ACS BIM Exporter','ACS-BIM');
#5=IFCOWNERHISTORY(#3,#4,$,.NOTDEFINED.,$,$,$,0);
#6=IFCDIMENSIONALEXPONENTS(0,0,0,0,0,0,0);
#7=IFCSIUNIT(*,.LENGTHUNIT.,$,.METRE.);
#8=IFCSIUNIT(*,.AREAUNIT.,$,.SQUARE_METRE.);
#9=IFCSIUNIT(*,.VOLUMEUNIT.,$,.CUBIC_METRE.);
#10=IFCSIUNIT(*,.PLANEANGLEUNIT.,$,.RADIAN.);
#11=IFCMEASUREWITHUNIT(IFCPLANEANGLEMEASURE(0.017453),#10);
#12=IFCCONVERSIONBASEDUNIT(#6,.PLANEANGLEUNIT.,'DEGREE',#11);
#13=IFCUNITASSIGNMENT((#7,#8,#9,#12));
#14=IFCCARTESIANPOINT((0.,0.,0.));
#15=IFCDIRECTION((0.,0.,1.));
#16=IFCDIRECTION((1.,0.,0.));
#17=IFCAXIS2PLACEMENT3D(#14,#15,#16);
#18=IFCGEOMETRICREPRESENTATIONCONTEXT($,'Model',3,1.E-05,#17,$);
#19=IFCPROJECT('1TByfy7_eMwcOVoPbsrVQU',#5,'\X2\06450633062A0648062F0639\X0\ \X2\062A062C062706310629\X0\ \X2\062506440643062A063106480646064A0629\X0\ 30\X2\00D7\X0\25',$,$,$,$,(#18),#13);
#20=IFCLOCALPLACEMENT($,#17);
#21=IFCSITE('3cIn1D840wKQM_GHuUUXfb',#5,'Site',$,$,#20,$,$,.ELEMENT.,$,$,$,$,$);
#22=IFCLOCALPLACEMENT(#20,#17);
#23=IFCBUILDING('0nPAJShDTa3sCblwYP6WU_',#5,'\X2\06450633062A0648062F0639\X0\ \X2\062A062C062706310629\X0\ \X2\062506440643062A063106480646064A0629\X0\ 30\X2\00D7\X0\25',$,$,#22,$,$,.ELEMENT.,$,$,$);
#24=IFCRELAGGREGATES('1927M80wUOwKbCe51x1FH7',#5,$,$,#19,(#21));
#25=IFCRELAGGREGATES('1p1a2GMYtEQg7OxJ4Htmqe',#5,$,$,#21,(#23));
#26=IFCLOCALPLACEMENT(#22,#17);
#27=IFCBUILDINGSTOREY('3rNt3srDDcYLwyjTCQugCa',#5,'\X2\0635062706440629\X0\ \X2\06270644062A0634063A064A0644\X0\',$,$,#26,$,$,.ELEMENT.,0.);
#28=IFCRELAGGREGATES('2PFbFE7vK5LAPyR8LkOJm5',#5,$,$,#23,(#27));
#29=IFCCARTESIANPOINT((18.51,16.88,0.));
#30=IFCAXIS2PLACEMENT3D(#29,#15,#16);
#31=IFCLOCALPLACEMENT(#26,#30);
#32=IFCCARTESIANPOINT((2.745,1.565));
#33=IFCDIRECTION((1.,0.));
#34=IFCAXIS2PLACEMENT2D(#32,#33);
#35=IFCRECTANGLEPROFILEDEF(.AREA.,$,#34,5.49,3.13);
#36=IFCEXTRUDEDAREASOLID(#35,#17,#15,12.);
#37=IFCSHAPEREPRESENTATION(#18,'Body','SweptSolid',(#36));
#38=IFCPRODUCTDEFINITIONSHAPE($,$,(#37));
#39=IFCSPACE('0Gdv1SJttuax1srWjgAIlq',#5,'amr_field',$,$,#31,#38,'amr_field',.ELEMENT.,.INTERNAL.,0.);
#40=IFCCARTESIANPOINT((19.5,20.,0.));
#41=IFCAXIS2PLACEMENT3D(#40,#15,#16);
#42=IFCLOCALPLACEMENT(#26,#41);
#43=IFCCARTESIANPOINT((3.495,1.405));
#44=IFCAXIS2PLACEMENT2D(#43,#33);
#45=IFCRECTANGLEPROFILEDEF(.AREA.,$,#44,6.99,2.81);
#46=IFCEXTRUDEDAREASOLID(#45,#17,#15,12.);
#47=IFCSHAPEREPRESENTATION(#18,'Body','SweptSolid',(#46));
#48=IFCPRODUCTDEFINITIONSHAPE($,$,(#47));
#49=IFCSPACE('029VEZeEwcjlv8tY6RquEU',#5,'auto_sorter',$,$,#42,#48,'auto_sorter',.ELEMENT.,.INTERNAL.,0.);
#50=IFCCARTESIANPOINT((0.,16.88,0.));
#51=IFCAXIS2PLACEMENT3D(#50,#15,#16);
#52=IFCLOCALPLACEMENT(#26,#51);
#53=IFCCARTESIANPOINT((3.,1.565));
#54=IFCAXIS2PLACEMENT2D(#53,#33);
#55=IFCRECTANGLEPROFILEDEF(.AREA.,$,#54,6.,3.13);
#56=IFCEXTRUDEDAREASOLID(#55,#17,#15,12.);
#57=IFCSHAPEREPRESENTATION(#18,'Body','SweptSolid',(#56));
#58=IFCPRODUCTDEFINITIONSHAPE($,$,(#57));
#59=IFCSPACE('1YOTKApZ7Wm3KypG6gydgp',#5,'batch_picking',$,$,#52,#58,'batch_picking',.ELEMENT.,.INTERNAL.,0.);
#60=IFCCARTESIANPOINT((14.96,6.88,0.));
#61=IFCAXIS2PLACEMENT3D(#60,#15,#16);
#62=IFCLOCALPLACEMENT(#26,#61);
#63=IFCCARTESIANPOINT((2.5,5.));
#64=IFCAXIS2PLACEMENT2D(#63,#33);
#65=IFCRECTANGLEPROFILEDEF(.AREA.,$,#64,5.,10.);
#66=IFCEXTRUDEDAREASOLID(#65,#17,#15,12.);
#67=IFCSHAPEREPRESENTATION(#18,'Body','SweptSolid',(#66));
#68=IFCPRODUCTDEFINITIONSHAPE($,$,(#67));
#69=IFCSPACE('2Vgw3M8dtuNql45rETs$DX',#5,'bin_storage_C',$,$,#62,#68,'bin_storage_C',.ELEMENT.,.INTERNAL.,0.);
#70=IFCCARTESIANPOINT((0.,6.88,0.));
#71=IFCAXIS2PLACEMENT3D(#70,#15,#16);
#72=IFCLOCALPLACEMENT(#26,#71);
#73=IFCCARTESIANPOINT((4.235,5.));
#74=IFCAXIS2PLACEMENT2D(#73,#33);
#75=IFCRECTANGLEPROFILEDEF(.AREA.,$,#74,8.47,10.);
#76=IFCEXTRUDEDAREASOLID(#75,#17,#15,12.);
#77=IFCSHAPEREPRESENTATION(#18,'Body','SweptSolid',(#76));
#78=IFCPRODUCTDEFINITIONSHAPE($,$,(#77));
#79=IFCSPACE('3qV8KnyLsS0_f7js2Yk7Tp',#5,'bulk_pallet_A',$,$,#72,#78,'bulk_pallet_A',.ELEMENT.,.INTERNAL.,0.);
#80=IFCCARTESIANPOINT((15.,20.,0.));
#81=IFCAXIS2PLACEMENT3D(#80,#15,#16);
#82=IFCLOCALPLACEMENT(#26,#81);
#83=IFCCARTESIANPOINT((2.25,1.405));
#84=IFCAXIS2PLACEMENT2D(#83,#33);
#85=IFCRECTANGLEPROFILEDEF(.AREA.,$,#84,4.5,2.81);
#86=IFCEXTRUDEDAREASOLID(#85,#17,#15,12.);
#87=IFCSHAPEREPRESENTATION(#18,'Body','SweptSolid',(#86));
#88=IFCPRODUCTDEFINITIONSHAPE($,$,(#87));
#89=IFCSPACE('1CnXicSH4LYWWDFyi9mQ91',#5,'consolidation',$,$,#82,#88,'consolidation',.ELEMENT.,.INTERNAL.,0.);
#90=IFCCARTESIANPOINT((19.5,0.,0.));
#91=IFCAXIS2PLACEMENT3D(#90,#15,#16);
#92=IFCLOCALPLACEMENT(#26,#91);
#93=IFCCARTESIANPOINT((5.25,2.345));
#94=IFCAXIS2PLACEMENT2D(#93,#33);
#95=IFCRECTANGLEPROFILEDEF(.AREA.,$,#94,10.5,4.69);
#96=IFCEXTRUDEDAREASOLID(#95,#17,#15,12.);
#97=IFCSHAPEREPRESENTATION(#18,'Body','SweptSolid',(#96));
#98=IFCPRODUCTDEFINITIONSHAPE($,$,(#97));
#99=IFCSPACE('0YD9f_nJ3AtDntwzIm_og$',#5,'crossdock',$,$,#92,#98,'crossdock',.ELEMENT.,.INTERNAL.,0.);
#100=IFCCARTESIANPOINT((5.01,22.81,0.));
#101=IFCAXIS2PLACEMENT3D(#100,#15,#16);
#102=IFCLOCALPLACEMENT(#26,#101);
#103=IFCCARTESIANPOINT((2.505,1.095));
#104=IFCAXIS2PLACEMENT2D(#103,#33);
#105=IFCRECTANGLEPROFILEDEF(.AREA.,$,#104,5.01,2.19);
#106=IFCEXTRUDEDAREASOLID(#105,#17,#15,12.);
#107=IFCSHAPEREPRESENTATION(#18,'Body','SweptSolid',(#106));
#108=IFCPRODUCTDEFINITIONSHAPE($,$,(#107));
#109=IFCSPACE('15RjC_cvtKXnsnnJ4K_537',#5,'dispatch_aramex',$,$,#102,#108,'dispatch_aramex',.ELEMENT.,.INTERNAL.,0.);
#110=IFCCARTESIANPOINT((0.,22.81,0.));
#111=IFCAXIS2PLACEMENT3D(#110,#15,#16);
#112=IFCLOCALPLACEMENT(#26,#111);
#113=IFCRECTANGLEPROFILEDEF(.AREA.,$,#104,5.01,2.19);
#114=IFCEXTRUDEDAREASOLID(#113,#17,#15,12.);
#115=IFCSHAPEREPRESENTATION(#18,'Body','SweptSolid',(#114));
#116=IFCPRODUCTDEFINITIONSHAPE($,$,(#115));
#117=IFCSPACE('2s4uQYKfjeZ3cqHdwx$$cp',#5,'dispatch_dhl',$,$,#112,#116,'dispatch_dhl',.ELEMENT.,.INTERNAL.,0.);
#118=IFCCARTESIANPOINT((10.02,22.81,0.));
#119=IFCAXIS2PLACEMENT3D(#118,#15,#16);
#120=IFCLOCALPLACEMENT(#26,#119);
#121=IFCCARTESIANPOINT((2.25,1.095));
#122=IFCAXIS2PLACEMENT2D(#121,#33);
#123=IFCRECTANGLEPROFILEDEF(.AREA.,$,#122,4.5,2.19);
#124=IFCEXTRUDEDAREASOLID(#123,#17,#15,12.);
#125=IFCSHAPEREPRESENTATION(#18,'Body','SweptSolid',(#124));
#126=IFCPRODUCTDEFINITIONSHAPE($,$,(#125));
#127=IFCSPACE('1cGxUuXGSiUbkc27b$zdoj',#5,'dispatch_smsa',$,$,#120,#126,'dispatch_smsa',.ELEMENT.,.INTERNAL.,0.);
#128=IFCLOCALPLACEMENT(#26,#17);
#129=IFCCARTESIANPOINT((15.,12.5));
#130=IFCAXIS2PLACEMENT2D(#129,#33);
#131=IFCRECTANGLEPROFILEDEF(.AREA.,$,#130,30.,25.);
#132=IFCEXTRUDEDAREASOLID(#131,#17,#15,12.);
#133=IFCSHAPEREPRESENTATION(#18,'Body','SweptSolid',(#132));
#134=IFCPRODUCTDEFINITIONSHAPE($,$,(#133));
#135=IFCSPACE('1UFjoYardWdKH45_4HhOqQ',#5,'envelope',$,$,#128,#134,'envelope',.ELEMENT.,.INTERNAL.,0.);
#136=IFCCARTESIANPOINT((0.,2.81,0.));
#137=IFCAXIS2PLACEMENT3D(#136,#15,#16);
#138=IFCLOCALPLACEMENT(#26,#137);
#139=IFCCARTESIANPOINT((6.495,0.94));
#140=IFCAXIS2PLACEMENT2D(#139,#33);
#141=IFCRECTANGLEPROFILEDEF(.AREA.,$,#140,12.99,1.88);
#142=IFCEXTRUDEDAREASOLID(#141,#17,#15,12.);
#143=IFCSHAPEREPRESENTATION(#18,'Body','SweptSolid',(#142));
#144=IFCPRODUCTDEFINITIONSHAPE($,$,(#143));
#145=IFCSPACE('1Mu27$iw0Yh5$$bpqCBCQk',#5,'fast_unload',$,$,#138,#144,'fast_unload',.ELEMENT.,.INTERNAL.,0.);
#146=IFCCARTESIANPOINT((19.96,6.88,0.));
#147=IFCAXIS2PLACEMENT3D(#146,#15,#16);
#148=IFCLOCALPLACEMENT(#26,#147);
#149=IFCCARTESIANPOINT((2.245,5.));
#150=IFCAXIS2PLACEMENT2D(#149,#33);
#151=IFCRECTANGLEPROFILEDEF(.AREA.,$,#150,4.49,10.);
#152=IFCEXTRUDEDAREASOLID(#151,#17,#15,12.);
#153=IFCSHAPEREPRESENTATION(#18,'Body','SweptSolid',(#152));
#154=IFCPRODUCTDEFINITIONSHAPE($,$,(#153));
#155=IFCSPACE('1ETefn15K4Sd1kuL82$Rty',#5,'flow_racks_fast',$,$,#148,#154,'flow_racks_fast',.ELEMENT.,.INTERNAL.,0.);
#156=IFCCARTESIANPOINT((24.,16.88,0.));
#157=IFCAXIS2PLACEMENT3D(#156,#15,#16);
#158=IFCLOCALPLACEMENT(#26,#157);
#159=IFCRECTANGLEPROFILEDEF(.AREA.,$,#54,6.,3.13);
#160=IFCEXTRUDEDAREASOLID(#159,#17,#15,12.);
#161=IFCSHAPEREPRESENTATION(#18,'Body','SweptSolid',(#160));
#162=IFCPRODUCTDEFINITIONSHAPE($,$,(#161));
#163=IFCSPACE('3mu9DZAD$AumwFoE3oJiNl',#5,'human_picking',$,$,#158,#162,'human_picking',.ELEMENT.,.INTERNAL.,0.);
#164=IFCLOCALPLACEMENT(#26,#17);
#165=IFCCARTESIANPOINT((6.495,1.405));
#166=IFCAXIS2PLACEMENT2D(#165,#33);
#167=IFCRECTANGLEPROFILEDEF(.AREA.,$,#166,12.99,2.81);
#168=IFCEXTRUDEDAREASOLID(#167,#17,#15,12.);
#169=IFCSHAPEREPRESENTATION(#18,'Body','SweptSolid',(#168));
#170=IFCPRODUCTDEFINITIONSHAPE($,$,(#169));
#171=IFCSPACE('0$eCB0YwYayRSwJ1Ax4W$k',#5,'inbound_docks',$,$,#164,#170,'inbound_docks',.ELEMENT.,.INTERNAL.,0.);
#172=IFCCARTESIANPOINT((0.,4.69,0.));
#173=IFCAXIS2PLACEMENT3D(#172,#15,#16);
#174=IFCLOCALPLACEMENT(#26,#173);
#175=IFCCARTESIANPOINT((9.75,1.095));
#176=IFCAXIS2PLACEMENT2D(#175,#33);
#177=IFCRECTANGLEPROFILEDEF(.AREA.,$,#176,19.5,2.19);
#178=IFCEXTRUDEDAREASOLID(#177,#17,#15,12.);
#179=IFCSHAPEREPRESENTATION(#18,'Body','SweptSolid',(#178));
#180=IFCPRODUCTDEFINITIONSHAPE($,$,(#179));
#181=IFCSPACE('2zjb2GRpNvf3MU9d_3ucvr',#5,'inbound_staging',$,$,#174,#180,'inbound_staging',.ELEMENT.,.INTERNAL.,0.);
#182=IFCCARTESIANPOINT((26.01,6.88,0.));
#183=IFCAXIS2PLACEMENT3D(#182,#15,#16);
#184=IFCLOCALPLACEMENT(#26,#183);
#185=IFCCARTESIANPOINT((1.995,1.25));
#186=IFCAXIS2PLACEMENT2D(#185,#33);
#187=IFCRECTANGLEPROFILEDEF(.AREA.,$,#186,3.99,2.5);
#188=IFCEXTRUDEDAREASOLID(#187,#17,#15,12.);
#189=IFCSHAPEREPRESENTATION(#18,'Body','SweptSolid',(#188));
#190=IFCPRODUCTDEFINITIONSHAPE($,$,(#189));
#191=IFCSPACE('3RGz3qgtXBCqwVhc1tEQkS',#5,'inventory_office',$,$,#184,#190,'inventory_office',.ELEMENT.,.INTERNAL.,0.);
#192=IFCCARTESIANPOINT((26.01,9.38,0.));
#193=IFCAXIS2PLACEMENT3D(#192,#15,#16);
#194=IFCLOCALPLACEMENT(#26,#193);
#195=IFCCARTESIANPOINT((1.995,0.94));
#196=IFCAXIS2PLACEMENT2D(#195,#33);
#197=IFCRECTANGLEPROFILEDEF(.AREA.,$,#196,3.99,1.88);
#198=IFCEXTRUDEDAREASOLID(#197,#17,#15,12.);
#199=IFCSHAPEREPRESENTATION(#18,'Body','SweptSolid',(#198));
#200=IFCPRODUCTDEFINITIONSHAPE($,$,(#199));
#201=IFCSPACE('3s2Frt4isFuHtI_tiff8uD',#5,'it_server_room',$,$,#194,#200,'it_server_room',.ELEMENT.,.INTERNAL.,0.);
#202=IFCCARTESIANPOINT((7.98,20.,0.));
#203=IFCAXIS2PLACEMENT3D(#202,#15,#16);
#204=IFCLOCALPLACEMENT(#26,#203);
#205=IFCCARTESIANPOINT((1.995,1.405));
#206=IFCAXIS2PLACEMENT2D(#205,#33);
#207=IFCRECTANGLEPROFILEDEF(.AREA.,$,#206,3.99,2.81);
#208=IFCEXTRUDEDAREASOLID(#207,#17,#15,12.);
#209=IFCSHAPEREPRESENTATION(#18,'Body','SweptSolid',(#208));
#210=IFCPRODUCTDEFINITIONSHAPE($,$,(#209));
#211=IFCSPACE('0wJEdoTnSK5ZHmx09hLnMQ',#5,'labeling_qa',$,$,#204,#210,'labeling_qa',.ELEMENT.,.INTERNAL.,0.);
#212=IFCCARTESIANPOINT((14.52,22.81,0.));
#213=IFCAXIS2PLACEMENT3D(#212,#15,#16);
#214=IFCLOCALPLACEMENT(#26,#213);
#215=IFCCARTESIANPOINT((2.745,1.095));
#216=IFCAXIS2PLACEMENT2D(#215,#33);
#217=IFCRECTANGLEPROFILEDEF(.AREA.,$,#216,5.49,2.19);
#218=IFCEXTRUDEDAREASOLID(#217,#17,#15,12.);
#219=IFCSHAPEREPRESENTATION(#18,'Body','SweptSolid',(#218));
#220=IFCPRODUCTDEFINITIONSHAPE($,$,(#219));
#221=IFCSPACE('2a4ffwfKCxHx61Lxn9l3g$',#5,'lastmile_lanes',$,$,#214,#220,'lastmile_lanes',.ELEMENT.,.INTERNAL.,0.);
#222=IFCCARTESIANPOINT((26.01,15.31,0.));
#223=IFCAXIS2PLACEMENT3D(#222,#15,#16);
#224=IFCLOCALPLACEMENT(#26,#223);
#225=IFCCARTESIANPOINT((1.995,0.78));
#226=IFCAXIS2PLACEMENT2D(#225,#33);
#227=IFCRECTANGLEPROFILEDEF(.AREA.,$,#226,3.99,1.56);
#228=IFCEXTRUDEDAREASOLID(#227,#17,#15,12.);
#229=IFCSHAPEREPRESENTATION(#18,'Body','SweptSolid',(#228));
#230=IFCPRODUCTDEFINITIONSHAPE($,$,(#229));
#231=IFCSPACE('03nN3VNmVSpnPQczxPY995',#5,'lockers',$,$,#224,#230,'lockers',.ELEMENT.,.INTERNAL.,0.);
#232=IFCCARTESIANPOINT((26.01,4.69,0.));
#233=IFCAXIS2PLACEMENT3D(#232,#15,#16);
#234=IFCLOCALPLACEMENT(#26,#233);
#235=IFCCARTESIANPOINT((1.995,1.095));
#236=IFCAXIS2PLACEMENT2D(#235,#33);
#237=IFCRECTANGLEPROFILEDEF(.AREA.,$,#236,3.99,2.19);
#238=IFCEXTRUDEDAREASOLID(#237,#17,#15,12.);
#239=IFCSHAPEREPRESENTATION(#18,'Body','SweptSolid',(#238));
#240=IFCPRODUCTDEFINITIONSHAPE($,$,(#239));
#241=IFCSPACE('312PakDKvBSuDhw5DnPxGy',#5,'maintenance',$,$,#234,#240,'maintenance',.ELEMENT.,.INTERNAL.,0.);
#242=IFCCARTESIANPOINT((26.49,20.,0.));
#243=IFCAXIS2PLACEMENT3D(#242,#15,#16);
#244=IFCLOCALPLACEMENT(#26,#243);
#245=IFCCARTESIANPOINT((1.755,1.405));
#246=IFCAXIS2PLACEMENT2D(#245,#33);
#247=IFCRECTANGLEPROFILEDEF(.AREA.,$,#246,3.51,2.81);
#248=IFCEXTRUDEDAREASOLID(#247,#17,#15,12.);
#249=IFCSHAPEREPRESENTATION(#18,'Body','SweptSolid',(#248));
#250=IFCPRODUCTDEFINITIONSHAPE($,$,(#249));
#251=IFCSPACE('2RgLDJHytulS5mCOV57ur0',#5,'manual_sort',$,$,#244,#250,'manual_sort',.ELEMENT.,.INTERNAL.,0.);
#252=IFCCARTESIANPOINT((8.47,6.88,0.));
#253=IFCAXIS2PLACEMENT3D(#252,#15,#16);
#254=IFCLOCALPLACEMENT(#26,#253);
#255=IFCCARTESIANPOINT((3.245,5.));
#256=IFCAXIS2PLACEMENT2D(#255,#33);
#257=IFCRECTANGLEPROFILEDEF(.AREA.,$,#256,6.49,10.);
#258=IFCEXTRUDEDAREASOLID(#257,#17,#15,12.);
#259=IFCSHAPEREPRESENTATION(#18,'Body','SweptSolid',(#258));
#260=IFCPRODUCTDEFINITIONSHAPE($,$,(#259));
#261=IFCSPACE('0$4_hkGHtlOGH7VMc4p$d6',#5,'medium_shelf_B',$,$,#254,#260,'medium_shelf_B',.ELEMENT.,.INTERNAL.,0.);
#262=IFCCARTESIANPOINT((26.01,11.25,0.));
#263=IFCAXIS2PLACEMENT3D(#262,#15,#16);
#264=IFCLOCALPLACEMENT(#26,#263);
#265=IFCRECTANGLEPROFILEDEF(.AREA.,$,#196,3.99,1.88);
#266=IFCEXTRUDEDAREASOLID(#265,#17,#15,12.);
#267=IFCSHAPEREPRESENTATION(#18,'Body','SweptSolid',(#266));
#268=IFCPRODUCTDEFINITIONSHAPE($,$,(#267));
#269=IFCSPACE('1JpDAc0TMn4R885TxLzWnV',#5,'meeting_room',$,$,#264,#268,'meeting_room',.ELEMENT.,.INTERNAL.,0.);
#270=IFCCARTESIANPOINT((23.01,22.81,0.));
#271=IFCAXIS2PLACEMENT3D(#270,#15,#16);
#272=IFCLOCALPLACEMENT(#26,#271);
#273=IFCCARTESIANPOINT((3.495,1.095));
#274=IFCAXIS2PLACEMENT2D(#273,#33);
#275=IFCRECTANGLEPROFILEDEF(.AREA.,$,#274,6.99,2.19);
#276=IFCEXTRUDEDAREASOLID(#275,#17,#15,12.);
#277=IFCSHAPEREPRESENTATION(#18,'Body','SweptSolid',(#276));
#278=IFCPRODUCTDEFINITIONSHAPE($,$,(#277));
#279=IFCSPACE('1Gkyv5Q2azs3geSd5Ejfbh',#5,'outbound_docks',$,$,#272,#278,'outbound_docks',.ELEMENT.,.INTERNAL.,0.);
#280=IFCCARTESIANPOINT((0.,20.,0.));
#281=IFCAXIS2PLACEMENT3D(#280,#15,#16);
#282=IFCLOCALPLACEMENT(#26,#281);
#283=IFCCARTESIANPOINT((3.99,1.405));
#284=IFCAXIS2PLACEMENT2D(#283,#33);
#285=IFCRECTANGLEPROFILEDEF(.AREA.,$,#284,7.98,2.81);
#286=IFCEXTRUDEDAREASOLID(#285,#17,#15,12.);
#287=IFCSHAPEREPRESENTATION(#18,'Body','SweptSolid',(#286));
#288=IFCPRODUCTDEFINITIONSHAPE($,$,(#287));
#289=IFCSPACE('2ICUtsbgu$zkzaMFY6fHrj',#5,'packing',$,$,#282,#288,'packing',.ELEMENT.,.INTERNAL.,0.);
#290=IFCCARTESIANPOINT((20.01,22.81,0.));
#291=IFCAXIS2PLACEMENT3D(#290,#15,#16);
#292=IFCLOCALPLACEMENT(#26,#291);
#293=IFCCARTESIANPOINT((1.5,1.095));
#294=IFCAXIS2PLACEMENT2D(#293,#33);
#295=IFCRECTANGLEPROFILEDEF(.AREA.,$,#294,3.,2.19);
#296=IFCEXTRUDEDAREASOLID(#295,#17,#15,12.);
#297=IFCSHAPEREPRESENTATION(#18,'Body','SweptSolid',(#296));
#298=IFCPRODUCTDEFINITIONSHAPE($,$,(#297));
#299=IFCSPACE('3doEugnX6vo3QHG1GJwZ8z',#5,'pallet_wrapping',$,$,#292,#298,'pallet_wrapping',.ELEMENT.,.INTERNAL.,0.);
#300=IFCCARTESIANPOINT((12.99,0.,0.));
#301=IFCAXIS2PLACEMENT3D(#300,#15,#16);
#302=IFCLOCALPLACEMENT(#26,#301);
#303=IFCCARTESIANPOINT((3.255,2.345));
#304=IFCAXIS2PLACEMENT2D(#303,#33);
#305=IFCRECTANGLEPROFILEDEF(.AREA.,$,#304,6.51,4.69);
#306=IFCEXTRUDEDAREASOLID(#305,#17,#15,12.);
#307=IFCSHAPEREPRESENTATION(#18,'Body','SweptSolid',(#306));
#308=IFCPRODUCTDEFINITIONSHAPE($,$,(#307));
#309=IFCSPACE('3C296XvagpZ$AP5MNDQrb6',#5,'qc_inspection',$,$,#302,#308,'qc_inspection',.ELEMENT.,.INTERNAL.,0.);
#310=IFCCARTESIANPOINT((24.45,6.88,0.));
#311=IFCAXIS2PLACEMENT3D(#310,#15,#16);
#312=IFCLOCALPLACEMENT(#26,#311);
#313=IFCCARTESIANPOINT((2.,5.));
#314=IFCAXIS2PLACEMENT2D(#313,#33);
#315=IFCRECTANGLEPROFILEDEF(.AREA.,$,#314,4.,10.);
#316=IFCEXTRUDEDAREASOLID(#315,#17,#15,12.);
#317=IFCSHAPEREPRESENTATION(#18,'Body','SweptSolid',(#316));
#318=IFCPRODUCTDEFINITIONSHAPE($,$,(#317));
#319=IFCSPACE('0EImjPhVHZ6hwEFrf7lFq2',#5,'replen_aisle_main',$,$,#312,#318,'replen_aisle_main',.ELEMENT.,.INTERNAL.,0.);
#320=IFCCARTESIANPOINT((19.5,4.69,0.));
#321=IFCAXIS2PLACEMENT3D(#320,#15,#16);
#322=IFCLOCALPLACEMENT(#26,#321);
#323=IFCCARTESIANPOINT((3.255,1.095));
#324=IFCAXIS2PLACEMENT2D(#323,#33);
#325=IFCRECTANGLEPROFILEDEF(.AREA.,$,#324,6.51,2.19);
#326=IFCEXTRUDEDAREASOLID(#325,#17,#15,12.);
#327=IFCSHAPEREPRESENTATION(#18,'Body','SweptSolid',(#326));
#328=IFCPRODUCTDEFINITIONSHAPE($,$,(#327));
#329=IFCSPACE('10t38aTYR_UGolCzIwls4R',#5,'replenishment',$,$,#322,#328,'replenishment',.ELEMENT.,.INTERNAL.,0.);
#330=IFCCARTESIANPOINT((26.01,13.13,0.));
#331=IFCAXIS2PLACEMENT3D(#330,#15,#16);
#332=IFCLOCALPLACEMENT(#26,#331);
#333=IFCRECTANGLEPROFILEDEF(.AREA.,$,#236,3.99,2.19);
#334=IFCEXTRUDEDAREASOLID(#333,#17,#15,12.);
#335=IFCSHAPEREPRESENTATION(#18,'Body','SweptSolid',(#334));
#336=IFCPRODUCTDEFINITIONSHAPE($,$,(#335));
#337=IFCSPACE('3CZc2xjJDGNp_gEyUEGLxL',#5,'rest_area',$,$,#332,#336,'rest_area',.ELEMENT.,.INTERNAL.,0.);
#338=IFCCARTESIANPOINT((12.,20.,0.));
#339=IFCAXIS2PLACEMENT3D(#338,#15,#16);
#340=IFCLOCALPLACEMENT(#26,#339);
#341=IFCCARTESIANPOINT((1.5,1.405));
#342=IFCAXIS2PLACEMENT2D(#341,#33);
#343=IFCRECTANGLEPROFILEDEF(.AREA.,$,#342,3.,2.81);
#344=IFCEXTRUDEDAREASOLID(#343,#17,#15,12.);
#345=IFCSHAPEREPRESENTATION(#18,'Body','SweptSolid',(#344));
#346=IFCPRODUCTDEFINITIONSHAPE($,$,(#345));
#347=IFCSPACE('0FEEtFu1rOETNm8XrJ_UAC',#5,'void_fill',$,$,#340,#346,'void_fill',.ELEMENT.,.INTERNAL.,0.);
#348=IFCCARTESIANPOINT((6.,16.88,0.));
#349=IFCAXIS2PLACEMENT3D(#348,#15,#16);
#350=IFCLOCALPLACEMENT(#26,#349);
#351=IFCRECTANGLEPROFILEDEF(.AREA.,$,#54,6.,3.13);
#352=IFCEXTRUDEDAREASOLID(#351,#17,#15,12.);
#353=IFCSHAPEREPRESENTATION(#18,'Body','SweptSolid',(#352));
#354=IFCPRODUCTDEFINITIONSHAPE($,$,(#353));
#355=IFCSPACE('3HIkNaAsM5Cl89M8Ridu$p',#5,'wave_picking',$,$,#350,#354,'wave_picking',.ELEMENT.,.INTERNAL.,0.);
#356=IFCCARTESIANPOINT((12.,16.88,0.));
#357=IFCAXIS2PLACEMENT3D(#356,#15,#16);
#358=IFCLOCALPLACEMENT(#26,#357);
#359=IFCCARTESIANPOINT((3.255,1.565));
#360=IFCAXIS2PLACEMENT2D(#359,#33);
#361=IFCRECTANGLEPROFILEDEF(.AREA.,$,#360,6.51,3.13);
#362=IFCEXTRUDEDAREASOLID(#361,#17,#15,12.);
#363=IFCSHAPEREPRESENTATION(#18,'Body','SweptSolid',(#362));
#364=IFCPRODUCTDEFINITIONSHAPE($,$,(#363));
#365=IFCSPACE('3sfzfWEMOwUynBdKVxr_ZB',#5,'zone_picking',$,$,#358,#364,'zone_picking',.ELEMENT.,.INTERNAL.,0.);
#366=IFCLOCALPLACEMENT(#26,#30);
#367=IFCCARTESIANPOINT((2.745,0.));
#368=IFCAXIS2PLACEMENT2D(#367,#33);
#369=IFCRECTANGLEPROFILEDEF(.AREA.,$,#368,5.49,0.25);
#370=IFCEXTRUDEDAREASOLID(#369,#17,#15,12.);
#371=IFCCARTESIANPOINT((0.,0.));
#372=IFCCARTESIANPOINT((5.49,0.));
#373=IFCPOLYLINE((#371,#372));
#374=IFCSHAPEREPRESENTATION(#18,'Axis','Curve2D',(#373));
#375=IFCSHAPEREPRESENTATION(#18,'Body','SweptSolid',(#370));
#376=IFCPRODUCTDEFINITIONSHAPE($,$,(#374,#375));
#377=IFCWALL('1cXd7TGW2NJpSEy1$E_h8H',#5,'bld_0.flr_0.ops.amr_field.wall_N',$,$,#366,#376,$,.STANDARD.);
#378=IFCCARTESIANPOINT((18.51,20.01,0.));
#379=IFCAXIS2PLACEMENT3D(#378,#15,#16);
#380=IFCLOCALPLACEMENT(#26,#379);
#381=IFCRECTANGLEPROFILEDEF(.AREA.,$,#368,5.49,0.25);
#382=IFCEXTRUDEDAREASOLID(#381,#17,#15,12.);
#383=IFCPOLYLINE((#371,#372));
#384=IFCSHAPEREPRESENTATION(#18,'Axis','Curve2D',(#383));
#385=IFCSHAPEREPRESENTATION(#18,'Body','SweptSolid',(#382));
#386=IFCPRODUCTDEFINITIONSHAPE($,$,(#384,#385));
#387=IFCWALL('2696RZzma7pdr4wYngExr1',#5,'bld_0.flr_0.ops.amr_field.wall_S',$,$,#380,#386,$,.STANDARD.);
#388=IFCDIRECTION((0.,1.,0.));
#389=IFCAXIS2PLACEMENT3D(#29,#15,#388);
#390=IFCLOCALPLACEMENT(#26,#389);
#391=IFCCARTESIANPOINT((1.565,0.));
#392=IFCAXIS2PLACEMENT2D(#391,#33);
#393=IFCRECTANGLEPROFILEDEF(.AREA.,$,#392,3.13,0.25);
#394=IFCEXTRUDEDAREASOLID(#393,#17,#15,12.);
#395=IFCCARTESIANPOINT((3.13,0.));
#396=IFCPOLYLINE((#371,#395));
#397=IFCSHAPEREPRESENTATION(#18,'Axis','Curve2D',(#396));
#398=IFCSHAPEREPRESENTATION(#18,'Body','SweptSolid',(#394));
#399=IFCPRODUCTDEFINITIONSHAPE($,$,(#397,#398));
#400=IFCWALL('0lzS00naCcw93bztA3Y6Dq',#5,'bld_0.flr_0.ops.amr_field.wall_W',$,$,#390,#399,$,.STANDARD.);
#401=IFCAXIS2PLACEMENT3D(#156,#15,#388);
#402=IFCLOCALPLACEMENT(#26,#401);
#403=IFCRECTANGLEPROFILEDEF(.AREA.,$,#392,3.13,0.25);
#404=IFCEXTRUDEDAREASOLID(#403,#17,#15,12.);
#405=IFCPOLYLINE((#371,#395));
#406=IFCSHAPEREPRESENTATION(#18,'Axis','Curve2D',(#405));
#407=IFCSHAPEREPRESENTATION(#18,'Body','SweptSolid',(#404));
#408=IFCPRODUCTDEFINITIONSHAPE($,$,(#406,#407));
#409=IFCWALL('1DAIdIZZgQXh4ZVElPyZYV',#5,'bld_0.flr_0.ops.amr_field.wall_E',$,$,#402,#408,$,.STANDARD.);
#410=IFCLOCALPLACEMENT(#26,#41);
#411=IFCCARTESIANPOINT((3.495,0.));
#412=IFCAXIS2PLACEMENT2D(#411,#33);
#413=IFCRECTANGLEPROFILEDEF(.AREA.,$,#412,6.99,0.25);
#414=IFCEXTRUDEDAREASOLID(#413,#17,#15,12.);
#415=IFCCARTESIANPOINT((6.99,0.));
#416=IFCPOLYLINE((#371,#415));
#417=IFCSHAPEREPRESENTATION(#18,'Axis','Curve2D',(#416));
#418=IFCSHAPEREPRESENTATION(#18,'Body','SweptSolid',(#414));
#419=IFCPRODUCTDEFINITIONSHAPE($,$,(#417,#418));
#420=IFCWALL('1x_JLOULvWyOc4BNWW1WtA',#5,'bld_0.flr_0.ops.auto_sorter.wall_N',$,$,#410,#419,$,.STANDARD.);
#421=IFCCARTESIANPOINT((19.5,22.81,0.));
#422=IFCAXIS2PLACEMENT3D(#421,#15,#16);
#423=IFCLOCALPLACEMENT(#26,#422);
#424=IFCRECTANGLEPROFILEDEF(.AREA.,$,#412,6.99,0.25);
#425=IFCEXTRUDEDAREASOLID(#424,#17,#15,12.);
#426=IFCPOLYLINE((#371,#415));
#427=IFCSHAPEREPRESENTATION(#18,'Axis','Curve2D',(#426));
#428=IFCSHAPEREPRESENTATION(#18,'Body','SweptSolid',(#425));
#429=IFCPRODUCTDEFINITIONSHAPE($,$,(#427,#428));
#430=IFCWALL('3cbwTAcyiTR_hynyiohtUd',#5,'bld_0.flr_0.ops.auto_sorter.wall_S',$,$,#423,#429,$,.STANDARD.);
#431=IFCAXIS2PLACEMENT3D(#40,#15,#388);
#432=IFCLOCALPLACEMENT(#26,#431);
#433=IFCCARTESIANPOINT((1.405,0.));
#434=IFCAXIS2PLACEMENT2D(#433,#33);
#435=IFCRECTANGLEPROFILEDEF(.AREA.,$,#434,2.81,0.25);
#436=IFCEXTRUDEDAREASOLID(#435,#17,#15,12.);
#437=IFCCARTESIANPOINT((2.81,0.));
#438=IFCPOLYLINE((#371,#437));
#439=IFCSHAPEREPRESENTATION(#18,'Axis','Curve2D',(#438));
#440=IFCSHAPEREPRESENTATION(#18,'Body','SweptSolid',(#436));
#441=IFCPRODUCTDEFINITIONSHAPE($,$,(#439,#440));
#442=IFCWALL('3$B6YdWRava$FMSn_sy5BH',#5,'bld_0.flr_0.ops.auto_sorter.wall_W',$,$,#432,#441,$,.STANDARD.);
#443=IFCAXIS2PLACEMENT3D(#242,#15,#388);
#444=IFCLOCALPLACEMENT(#26,#443);
#445=IFCRECTANGLEPROFILEDEF(.AREA.,$,#434,2.81,0.25);
#446=IFCEXTRUDEDAREASOLID(#445,#17,#15,12.);
#447=IFCPOLYLINE((#371,#437));
#448=IFCSHAPEREPRESENTATION(#18,'Axis','Curve2D',(#447));
#449=IFCSHAPEREPRESENTATION(#18,'Body','SweptSolid',(#446));
#450=IFCPRODUCTDEFINITIONSHAPE($,$,(#448,#449));
#451=IFCWALL('2O4urL$9Eqk7WW2CBaPpGq',#5,'bld_0.flr_0.ops.auto_sorter.wall_E',$,$,#444,#450,$,.STANDARD.);
#452=IFCLOCALPLACEMENT(#26,#51);
#453=IFCCARTESIANPOINT((3.,0.));
#454=IFCAXIS2PLACEMENT2D(#453,#33);
#455=IFCRECTANGLEPROFILEDEF(.AREA.,$,#454,6.,0.25);
#456=IFCEXTRUDEDAREASOLID(#455,#17,#15,12.);
#457=IFCCARTESIANPOINT((6.,0.));
#458=IFCPOLYLINE((#371,#457));
#459=IFCSHAPEREPRESENTATION(#18,'Axis','Curve2D',(#458));
#460=IFCSHAPEREPRESENTATION(#18,'Body','SweptSolid',(#456));
#461=IFCPRODUCTDEFINITIONSHAPE($,$,(#459,#460));
#462=IFCWALL('3eQNQC4qAJmtojIviXlOHP',#5,'bld_0.flr_0.ops.batch_picking.wall_N',$,$,#452,#461,$,.STANDARD.);
#463=IFCCARTESIANPOINT((0.,20.01,0.));
#464=IFCAXIS2PLACEMENT3D(#463,#15,#16);
#465=IFCLOCALPLACEMENT(#26,#464);
#466=IFCRECTANGLEPROFILEDEF(.AREA.,$,#454,6.,0.25);
#467=IFCEXTRUDEDAREASOLID(#466,#17,#15,12.);
#468=IFCPOLYLINE((#371,#457));
#469=IFCSHAPEREPRESENTATION(#18,'Axis','Curve2D',(#468));
#470=IFCSHAPEREPRESENTATION(#18,'Body','SweptSolid',(#467));
#471=IFCPRODUCTDEFINITIONSHAPE($,$,(#469,#470));
#472=IFCWALL('1GzJe0aTIQXS6pZla6msyn',#5,'bld_0.flr_0.ops.batch_picking.wall_S',$,$,#465,#471,$,.STANDARD.);
#473=IFCAXIS2PLACEMENT3D(#50,#15,#388);
#474=IFCLOCALPLACEMENT(#26,#473);
#475=IFCRECTANGLEPROFILEDEF(.AREA.,$,#392,3.13,0.25);
#476=IFCEXTRUDEDAREASOLID(#475,#17,#15,12.);
#477=IFCPOLYLINE((#371,#395));
#478=IFCSHAPEREPRESENTATION(#18,'Axis','Curve2D',(#477));
#479=IFCSHAPEREPRESENTATION(#18,'Body','SweptSolid',(#476));
#480=IFCPRODUCTDEFINITIONSHAPE($,$,(#478,#479));
#481=IFCWALL('3FmU7wJgZlhGNu$1AYFTzb',#5,'bld_0.flr_0.ops.batch_picking.wall_W',$,$,#474,#480,$,.STANDARD.);
#482=IFCAXIS2PLACEMENT3D(#348,#15,#388);
#483=IFCLOCALPLACEMENT(#26,#482);
#484=IFCRECTANGLEPROFILEDEF(.AREA.,$,#392,3.13,0.25);
#485=IFCEXTRUDEDAREASOLID(#484,#17,#15,12.);
#486=IFCPOLYLINE((#371,#395));
#487=IFCSHAPEREPRESENTATION(#18,'Axis','Curve2D',(#486));
#488=IFCSHAPEREPRESENTATION(#18,'Body','SweptSolid',(#485));
#489=IFCPRODUCTDEFINITIONSHAPE($,$,(#487,#488));
#490=IFCWALL('1e5WJ0ssRAIrBWTIXGWuK4',#5,'bld_0.flr_0.ops.batch_picking.wall_E',$,$,#483,#489,$,.STANDARD.);
#491=IFCLOCALPLACEMENT(#26,#61);
#492=IFCCARTESIANPOINT((2.5,0.));
#493=IFCAXIS2PLACEMENT2D(#492,#33);
#494=IFCRECTANGLEPROFILEDEF(.AREA.,$,#493,5.,0.25);
#495=IFCEXTRUDEDAREASOLID(#494,#17,#15,12.);
#496=IFCCARTESIANPOINT((5.,0.));
#497=IFCPOLYLINE((#371,#496));
#498=IFCSHAPEREPRESENTATION(#18,'Axis','Curve2D',(#497));
#499=IFCSHAPEREPRESENTATION(#18,'Body','SweptSolid',(#495));
#500=IFCPRODUCTDEFINITIONSHAPE($,$,(#498,#499));
#501=IFCWALL('2wy6TOVFWw3bvGq3YK9Q5m',#5,'bld_0.flr_0.ops.bin_storage_C.wall_N',$,$,#491,#500,$,.STANDARD.);
#502=IFCCARTESIANPOINT((14.96,16.88,0.));
#503=IFCAXIS2PLACEMENT3D(#502,#15,#16);
#504=IFCLOCALPLACEMENT(#26,#503);
#505=IFCRECTANGLEPROFILEDEF(.AREA.,$,#493,5.,0.25);
#506=IFCEXTRUDEDAREASOLID(#505,#17,#15,12.);
#507=IFCPOLYLINE((#371,#496));
#508=IFCSHAPEREPRESENTATION(#18,'Axis','Curve2D',(#507));
#509=IFCSHAPEREPRESENTATION(#18,'Body','SweptSolid',(#506));
#510=IFCPRODUCTDEFINITIONSHAPE($,$,(#508,#509));
#511=IFCWALL('3EMZh8RhII8LGtcecf$YGH',#5,'bld_0.flr_0.ops.bin_storage_C.wall_S',$,$,#504,#510,$,.STANDARD.);
#512=IFCAXIS2PLACEMENT3D(#60,#15,#388);
#513=IFCLOCALPLACEMENT(#26,#512);
#514=IFCAXIS2PLACEMENT2D(#496,#33);
#515=IFCRECTANGLEPROFILEDEF(.AREA.,$,#514,10.,0.25);
#516=IFCEXTRUDEDAREASOLID(#515,#17,#15,12.);
#517=IFCCARTESIANPOINT((10.,0.));
#518=IFCPOLYLINE((#371,#517));
#519=IFCSHAPEREPRESENTATION(#18,'Axis','Curve2D',(#518));
#520=IFCSHAPEREPRESENTATION(#18,'Body','SweptSolid',(#516));
#521=IFCPRODUCTDEFINITIONSHAPE($,$,(#519,#520));
#522=IFCWALL('3_MuHc6qLNVrSEfmf5dLj9',#5,'bld_0.flr_0.ops.bin_storage_C.wall_W',$,$,#513,#521,$,.STANDARD.);
#523=IFCAXIS2PLACEMENT3D(#146,#15,#388);
#524=IFCLOCALPLACEMENT(#26,#523);
#525=IFCRECTANGLEPROFILEDEF(.AREA.,$,#514,10.,0.25);
#526=IFCEXTRUDEDAREASOLID(#525,#17,#15,12.);
#527=IFCPOLYLINE((#371,#517));
#528=IFCSHAPEREPRESENTATION(#18,'Axis','Curve2D',(#527));
#529=IFCSHAPEREPRESENTATION(#18,'Body','SweptSolid',(#526));
#530=IFCPRODUCTDEFINITIONSHAPE($,$,(#528,#529));
#531=IFCWALL('1JoGseHRuvRDhbnCNEx1Nq',#5,'bld_0.flr_0.ops.bin_storage_C.wall_E',$,$,#524,#530,$,.STANDARD.);
#532=IFCLOCALPLACEMENT(#26,#71);
#533=IFCCARTESIANPOINT((4.235,0.));
#534=IFCAXIS2PLACEMENT2D(#533,#33);
#535=IFCRECTANGLEPROFILEDEF(.AREA.,$,#534,8.47,0.25);
#536=IFCEXTRUDEDAREASOLID(#535,#17,#15,12.);
#537=IFCCARTESIANPOINT((8.47,0.));
#538=IFCPOLYLINE((#371,#537));
#539=IFCSHAPEREPRESENTATION(#18,'Axis','Curve2D',(#538));
#540=IFCSHAPEREPRESENTATION(#18,'Body','SweptSolid',(#536));
#541=IFCPRODUCTDEFINITIONSHAPE($,$,(#539,#540));
#542=IFCWALL('1HdALOY0HVos51UvqFiAoB',#5,'bld_0.flr_0.ops.bulk_pallet_A.wall_N',$,$,#532,#541,$,.STANDARD.);
#543=IFCLOCALPLACEMENT(#26,#51);
#544=IFCRECTANGLEPROFILEDEF(.AREA.,$,#534,8.47,0.25);
#545=IFCEXTRUDEDAREASOLID(#544,#17,#15,12.);
#546=IFCPOLYLINE((#371,#537));
#547=IFCSHAPEREPRESENTATION(#18,'Axis','Curve2D',(#546));
#548=IFCSHAPEREPRESENTATION(#18,'Body','SweptSolid',(#545));
#549=IFCPRODUCTDEFINITIONSHAPE($,$,(#547,#548));
#550=IFCWALL('1ykgBCLhd2ZmA$NEqRKN9a',#5,'bld_0.flr_0.ops.bulk_pallet_A.wall_S',$,$,#543,#549,$,.STANDARD.);
#551=IFCAXIS2PLACEMENT3D(#70,#15,#388);
#552=IFCLOCALPLACEMENT(#26,#551);
#553=IFCRECTANGLEPROFILEDEF(.AREA.,$,#514,10.,0.25);
#554=IFCEXTRUDEDAREASOLID(#553,#17,#15,12.);
#555=IFCPOLYLINE((#371,#517));
#556=IFCSHAPEREPRESENTATION(#18,'Axis','Curve2D',(#555));
#557=IFCSHAPEREPRESENTATION(#18,'Body','SweptSolid',(#554));
#558=IFCPRODUCTDEFINITIONSHAPE($,$,(#556,#557));
#559=IFCWALL('2Ike4bL$Xi77w3DlvpMX8z',#5,'bld_0.flr_0.ops.bulk_pallet_A.wall_W',$,$,#552,#558,$,.STANDARD.);
#560=IFCAXIS2PLACEMENT3D(#252,#15,#388);
#561=IFCLOCALPLACEMENT(#26,#560);
#562=IFCRECTANGLEPROFILEDEF(.AREA.,$,#514,10.,0.25);
#563=IFCEXTRUDEDAREASOLID(#562,#17,#15,12.);
#564=IFCPOLYLINE((#371,#517));
#565=IFCSHAPEREPRESENTATION(#18,'Axis','Curve2D',(#564));
#566=IFCSHAPEREPRESENTATION(#18,'Body','SweptSolid',(#563));
#567=IFCPRODUCTDEFINITIONSHAPE($,$,(#565,#566));
#568=IFCWALL('3OPoqE0bumliZv96RMWTkl',#5,'bld_0.flr_0.ops.bulk_pallet_A.wall_E',$,$,#561,#567,$,.STANDARD.);
#569=IFCLOCALPLACEMENT(#26,#81);
#570=IFCCARTESIANPOINT((2.25,0.));
#571=IFCAXIS2PLACEMENT2D(#570,#33);
#572=IFCRECTANGLEPROFILEDEF(.AREA.,$,#571,4.5,0.25);
#573=IFCEXTRUDEDAREASOLID(#572,#17,#15,12.);
#574=IFCCARTESIANPOINT((4.5,0.));
#575=IFCPOLYLINE((#371,#574));
#576=IFCSHAPEREPRESENTATION(#18,'Axis','Curve2D',(#575));
#577=IFCSHAPEREPRESENTATION(#18,'Body','SweptSolid',(#573));
#578=IFCPRODUCTDEFINITIONSHAPE($,$,(#576,#577));
#579=IFCWALL('3GbQmXtgDUHf2oP0$cazdn',#5,'bld_0.flr_0.ops.consolidation.wall_N',$,$,#569,#578,$,.STANDARD.);
#580=IFCCARTESIANPOINT((15.,22.81,0.));
#581=IFCAXIS2PLACEMENT3D(#580,#15,#16);
#582=IFCLOCALPLACEMENT(#26,#581);
#583=IFCRECTANGLEPROFILEDEF(.AREA.,$,#571,4.5,0.25);
#584=IFCEXTRUDEDAREASOLID(#583,#17,#15,12.);
#585=IFCPOLYLINE((#371,#574));
#586=IFCSHAPEREPRESENTATION(#18,'Axis','Curve2D',(#585));
#587=IFCSHAPEREPRESENTATION(#18,'Body','SweptSolid',(#584));
#588=IFCPRODUCTDEFINITIONSHAPE($,$,(#586,#587));
#589=IFCWALL('0nD3sC_ckhnMKHoXQmDhRd',#5,'bld_0.flr_0.ops.consolidation.wall_S',$,$,#582,#588,$,.STANDARD.);
#590=IFCAXIS2PLACEMENT3D(#80,#15,#388);
#591=IFCLOCALPLACEMENT(#26,#590);
#592=IFCRECTANGLEPROFILEDEF(.AREA.,$,#434,2.81,0.25);
#593=IFCEXTRUDEDAREASOLID(#592,#17,#15,12.);
#594=IFCPOLYLINE((#371,#437));
#595=IFCSHAPEREPRESENTATION(#18,'Axis','Curve2D',(#594));
#596=IFCSHAPEREPRESENTATION(#18,'Body','SweptSolid',(#593));
#597=IFCPRODUCTDEFINITIONSHAPE($,$,(#595,#596));
#598=IFCWALL('3uc4zgP55FHXLjYu4Enzvt',#5,'bld_0.flr_0.ops.consolidation.wall_W',$,$,#591,#597,$,.STANDARD.);
#599=IFCLOCALPLACEMENT(#26,#431);
#600=IFCRECTANGLEPROFILEDEF(.AREA.,$,#434,2.81,0.25);
#601=IFCEXTRUDEDAREASOLID(#600,#17,#15,12.);
#602=IFCPOLYLINE((#371,#437));
#603=IFCSHAPEREPRESENTATION(#18,'Axis','Curve2D',(#602));
#604=IFCSHAPEREPRESENTATION(#18,'Body','SweptSolid',(#601));
#605=IFCPRODUCTDEFINITIONSHAPE($,$,(#603,#604));
#606=IFCWALL('0mM4escVBlUZcoWte8I_Pd',#5,'bld_0.flr_0.ops.consolidation.wall_E',$,$,#599,#605,$,.STANDARD.);
#607=IFCLOCALPLACEMENT(#26,#91);
#608=IFCCARTESIANPOINT((5.25,0.));
#609=IFCAXIS2PLACEMENT2D(#608,#33);
#610=IFCRECTANGLEPROFILEDEF(.AREA.,$,#609,10.5,0.25);
#611=IFCEXTRUDEDAREASOLID(#610,#17,#15,12.);
#612=IFCCARTESIANPOINT((10.5,0.));
#613=IFCPOLYLINE((#371,#612));
#614=IFCSHAPEREPRESENTATION(#18,'Axis','Curve2D',(#613));
#615=IFCSHAPEREPRESENTATION(#18,'Body','SweptSolid',(#611));
#616=IFCPRODUCTDEFINITIONSHAPE($,$,(#614,#615));
#617=IFCWALL('1i4zPNS8n11Hha67XEQx$o',#5,'bld_0.flr_0.ops.crossdock.wall_N',$,$,#607,#616,$,.STANDARD.);
#618=IFCLOCALPLACEMENT(#26,#321);
#619=IFCRECTANGLEPROFILEDEF(.AREA.,$,#609,10.5,0.25);
#620=IFCEXTRUDEDAREASOLID(#619,#17,#15,12.);
#621=IFCPOLYLINE((#371,#612));
#622=IFCSHAPEREPRESENTATION(#18,'Axis','Curve2D',(#621));
#623=IFCSHAPEREPRESENTATION(#18,'Body','SweptSolid',(#620));
#624=IFCPRODUCTDEFINITIONSHAPE($,$,(#622,#623));
#625=IFCWALL('3VZVZQ70RXHGqaPuN1T0Yh',#5,'bld_0.flr_0.ops.crossdock.wall_S',$,$,#618,#624,$,.STANDARD.);
#626=IFCAXIS2PLACEMENT3D(#90,#15,#388);
#627=IFCLOCALPLACEMENT(#26,#626);
#628=IFCCARTESIANPOINT((2.345,0.));
#629=IFCAXIS2PLACEMENT2D(#628,#33);
#630=IFCRECTANGLEPROFILEDEF(.AREA.,$,#629,4.69,0.25);
#631=IFCEXTRUDEDAREASOLID(#630,#17,#15,12.);
#632=IFCCARTESIANPOINT((4.69,0.));
#633=IFCPOLYLINE((#371,#632));
#634=IFCSHAPEREPRESENTATION(#18,'Axis','Curve2D',(#633));
#635=IFCSHAPEREPRESENTATION(#18,'Body','SweptSolid',(#631));
#636=IFCPRODUCTDEFINITIONSHAPE($,$,(#634,#635));
#637=IFCWALL('24A_mRrviAKqw239b5d9qS',#5,'bld_0.flr_0.ops.crossdock.wall_W',$,$,#627,#636,$,.STANDARD.);
#638=IFCCARTESIANPOINT((30.,0.,0.));
#639=IFCAXIS2PLACEMENT3D(#638,#15,#388);
#640=IFCLOCALPLACEMENT(#26,#639);
#641=IFCRECTANGLEPROFILEDEF(.AREA.,$,#629,4.69,0.25);
#642=IFCEXTRUDEDAREASOLID(#641,#17,#15,12.);
#643=IFCPOLYLINE((#371,#632));
#644=IFCSHAPEREPRESENTATION(#18,'Axis','Curve2D',(#643));
#645=IFCSHAPEREPRESENTATION(#18,'Body','SweptSolid',(#642));
#646=IFCPRODUCTDEFINITIONSHAPE($,$,(#644,#645));
#647=IFCWALL('3XUc9X10YcSAHXIYW380c9',#5,'bld_0.flr_0.ops.crossdock.wall_E',$,$,#640,#646,$,.STANDARD.);
#648=IFCLOCALPLACEMENT(#26,#101);
#649=IFCCARTESIANPOINT((2.505,0.));
#650=IFCAXIS2PLACEMENT2D(#649,#33);
#651=IFCRECTANGLEPROFILEDEF(.AREA.,$,#650,5.01,0.25);
#652=IFCEXTRUDEDAREASOLID(#651,#17,#15,12.);
#653=IFCCARTESIANPOINT((5.01,0.));
#654=IFCPOLYLINE((#371,#653));
#655=IFCSHAPEREPRESENTATION(#18,'Axis','Curve2D',(#654));
#656=IFCSHAPEREPRESENTATION(#18,'Body','SweptSolid',(#652));
#657=IFCPRODUCTDEFINITIONSHAPE($,$,(#655,#656));
#658=IFCWALL('3pOsUwmf5_GI$ioNu0M79S',#5,'bld_0.flr_0.ops.dispatch_aramex.wall_N',$,$,#648,#657,$,.STANDARD.);
#659=IFCCARTESIANPOINT((5.01,25.,0.));
#660=IFCAXIS2PLACEMENT3D(#659,#15,#16);
#661=IFCLOCALPLACEMENT(#26,#660);
#662=IFCRECTANGLEPROFILEDEF(.AREA.,$,#650,5.01,0.25);
#663=IFCEXTRUDEDAREASOLID(#662,#17,#15,12.);
#664=IFCPOLYLINE((#371,#653));
#665=IFCSHAPEREPRESENTATION(#18,'Axis','Curve2D',(#664));
#666=IFCSHAPEREPRESENTATION(#18,'Body','SweptSolid',(#663));
#667=IFCPRODUCTDEFINITIONSHAPE($,$,(#665,#666));
#668=IFCWALL('1tQl_ThYO9L2$qd24qj5M7',#5,'bld_0.flr_0.ops.dispatch_aramex.wall_S',$,$,#661,#667,$,.STANDARD.);
#669=IFCAXIS2PLACEMENT3D(#100,#15,#388);
#670=IFCLOCALPLACEMENT(#26,#669);
#671=IFCCARTESIANPOINT((1.095,0.));
#672=IFCAXIS2PLACEMENT2D(#671,#33);
#673=IFCRECTANGLEPROFILEDEF(.AREA.,$,#672,2.19,0.25);
#674=IFCEXTRUDEDAREASOLID(#673,#17,#15,12.);
#675=IFCCARTESIANPOINT((2.19,0.));
#676=IFCPOLYLINE((#371,#675));
#677=IFCSHAPEREPRESENTATION(#18,'Axis','Curve2D',(#676));
#678=IFCSHAPEREPRESENTATION(#18,'Body','SweptSolid',(#674));
#679=IFCPRODUCTDEFINITIONSHAPE($,$,(#677,#678));
#680=IFCWALL('2aveWT_b2Va0l2IarsoZC$',#5,'bld_0.flr_0.ops.dispatch_aramex.wall_W',$,$,#670,#679,$,.STANDARD.);
#681=IFCAXIS2PLACEMENT3D(#118,#15,#388);
#682=IFCLOCALPLACEMENT(#26,#681);
#683=IFCRECTANGLEPROFILEDEF(.AREA.,$,#672,2.19,0.25);
#684=IFCEXTRUDEDAREASOLID(#683,#17,#15,12.);
#685=IFCPOLYLINE((#371,#675));
#686=IFCSHAPEREPRESENTATION(#18,'Axis','Curve2D',(#685));
#687=IFCSHAPEREPRESENTATION(#18,'Body','SweptSolid',(#684));
#688=IFCPRODUCTDEFINITIONSHAPE($,$,(#686,#687));
#689=IFCWALL('0zrvwn0N383cIRK_seB3ZJ',#5,'bld_0.flr_0.ops.dispatch_aramex.wall_E',$,$,#682,#688,$,.STANDARD.);
#690=IFCLOCALPLACEMENT(#26,#111);
#691=IFCRECTANGLEPROFILEDEF(.AREA.,$,#650,5.01,0.25);
#692=IFCEXTRUDEDAREASOLID(#691,#17,#15,12.);
#693=IFCPOLYLINE((#371,#653));
#694=IFCSHAPEREPRESENTATION(#18,'Axis','Curve2D',(#693));
#695=IFCSHAPEREPRESENTATION(#18,'Body','SweptSolid',(#692));
#696=IFCPRODUCTDEFINITIONSHAPE($,$,(#694,#695));
#697=IFCWALL('1CXCFproyvv3UqHULc8OSu',#5,'bld_0.flr_0.ops.dispatch_dhl.wall_N',$,$,#690,#696,$,.STANDARD.);
#698=IFCCARTESIANPOINT((0.,25.,0.));
#699=IFCAXIS2PLACEMENT3D(#698,#15,#16);
#700=IFCLOCALPLACEMENT(#26,#699);
#701=IFCRECTANGLEPROFILEDEF(.AREA.,$,#650,5.01,0.25);
#702=IFCEXTRUDEDAREASOLID(#701,#17,#15,12.);
#703=IFCPOLYLINE((#371,#653));
#704=IFCSHAPEREPRESENTATION(#18,'Axis','Curve2D',(#703));
#705=IFCSHAPEREPRESENTATION(#18,'Body','SweptSolid',(#702));
#706=IFCPRODUCTDEFINITIONSHAPE($,$,(#704,#705));
#707=IFCWALL('1uLrprBgszMoVuqfmgdI0X',#5,'bld_0.flr_0.ops.dispatch_dhl.wall_S',$,$,#700,#706,$,.STANDARD.);
#708=IFCAXIS2PLACEMENT3D(#110,#15,#388);
#709=IFCLOCALPLACEMENT(#26,#708);
#710=IFCRECTANGLEPROFILEDEF(.AREA.,$,#672,2.19,0.25);
#711=IFCEXTRUDEDAREASOLID(#710,#17,#15,12.);
#712=IFCPOLYLINE((#371,#675));
#713=IFCSHAPEREPRESENTATION(#18,'Axis','Curve2D',(#712));
#714=IFCSHAPEREPRESENTATION(#18,'Body','SweptSolid',(#711));
#715=IFCPRODUCTDEFINITIONSHAPE($,$,(#713,#714));
#716=IFCWALL('3lQ_yVLPKSnjkEwo7NVTz1',#5,'bld_0.flr_0.ops.dispatch_dhl.wall_W',$,$,#709,#715,$,.STANDARD.);
#717=IFCLOCALPLACEMENT(#26,#669);
#718=IFCRECTANGLEPROFILEDEF(.AREA.,$,#672,2.19,0.25);
#719=IFCEXTRUDEDAREASOLID(#718,#17,#15,12.);
#720=IFCPOLYLINE((#371,#675));
#721=IFCSHAPEREPRESENTATION(#18,'Axis','Curve2D',(#720));
#722=IFCSHAPEREPRESENTATION(#18,'Body','SweptSolid',(#719));
#723=IFCPRODUCTDEFINITIONSHAPE($,$,(#721,#722));
#724=IFCWALL('0lNicNW8h9Ecfj4cJSYl1D',#5,'bld_0.flr_0.ops.dispatch_dhl.wall_E',$,$,#717,#723,$,.STANDARD.);
#725=IFCLOCALPLACEMENT(#26,#119);
#726=IFCRECTANGLEPROFILEDEF(.AREA.,$,#571,4.5,0.25);
#727=IFCEXTRUDEDAREASOLID(#726,#17,#15,12.);
#728=IFCPOLYLINE((#371,#574));
#729=IFCSHAPEREPRESENTATION(#18,'Axis','Curve2D',(#728));
#730=IFCSHAPEREPRESENTATION(#18,'Body','SweptSolid',(#727));
#731=IFCPRODUCTDEFINITIONSHAPE($,$,(#729,#730));
#732=IFCWALL('3EkmuRxRVDeHHWDZFrrlbY',#5,'bld_0.flr_0.ops.dispatch_smsa.wall_N',$,$,#725,#731,$,.STANDARD.);
#733=IFCCARTESIANPOINT((10.02,25.,0.));
#734=IFCAXIS2PLACEMENT3D(#733,#15,#16);
#735=IFCLOCALPLACEMENT(#26,#734);
#736=IFCRECTANGLEPROFILEDEF(.AREA.,$,#571,4.5,0.25);
#737=IFCEXTRUDEDAREASOLID(#736,#17,#15,12.);
#738=IFCPOLYLINE((#371,#574));
#739=IFCSHAPEREPRESENTATION(#18,'Axis','Curve2D',(#738));
#740=IFCSHAPEREPRESENTATION(#18,'Body','SweptSolid',(#737));
#741=IFCPRODUCTDEFINITIONSHAPE($,$,(#739,#740));
#742=IFCWALL('2ctp$u15AG5tdliFGIuKCs',#5,'bld_0.flr_0.ops.dispatch_smsa.wall_S',$,$,#735,#741,$,.STANDARD.);
#743=IFCLOCALPLACEMENT(#26,#681);
#744=IFCRECTANGLEPROFILEDEF(.AREA.,$,#672,2.19,0.25);
#745=IFCEXTRUDEDAREASOLID(#744,#17,#15,12.);
#746=IFCPOLYLINE((#371,#675));
#747=IFCSHAPEREPRESENTATION(#18,'Axis','Curve2D',(#746));
#748=IFCSHAPEREPRESENTATION(#18,'Body','SweptSolid',(#745));
#749=IFCPRODUCTDEFINITIONSHAPE($,$,(#747,#748));
#750=IFCWALL('2Bpwc19_Ipo615s$RoQbNB',#5,'bld_0.flr_0.ops.dispatch_smsa.wall_W',$,$,#743,#749,$,.STANDARD.);
#751=IFCAXIS2PLACEMENT3D(#212,#15,#388);
#752=IFCLOCALPLACEMENT(#26,#751);
#753=IFCRECTANGLEPROFILEDEF(.AREA.,$,#672,2.19,0.25);
#754=IFCEXTRUDEDAREASOLID(#753,#17,#15,12.);
#755=IFCPOLYLINE((#371,#675));
#756=IFCSHAPEREPRESENTATION(#18,'Axis','Curve2D',(#755));
#757=IFCSHAPEREPRESENTATION(#18,'Body','SweptSolid',(#754));
#758=IFCPRODUCTDEFINITIONSHAPE($,$,(#756,#757));
#759=IFCWALL('1zUc9a8ZnRQFVW7g$7tqan',#5,'bld_0.flr_0.ops.dispatch_smsa.wall_E',$,$,#752,#758,$,.STANDARD.);
#760=IFCLOCALPLACEMENT(#26,#17);
#761=IFCCARTESIANPOINT((15.,0.));
#762=IFCAXIS2PLACEMENT2D(#761,#33);
#763=IFCRECTANGLEPROFILEDEF(.AREA.,$,#762,30.,0.25);
#764=IFCEXTRUDEDAREASOLID(#763,#17,#15,12.);
#765=IFCCARTESIANPOINT((30.,0.));
#766=IFCPOLYLINE((#371,#765));
#767=IFCSHAPEREPRESENTATION(#18,'Axis','Curve2D',(#766));
#768=IFCSHAPEREPRESENTATION(#18,'Body','SweptSolid',(#764));
#769=IFCPRODUCTDEFINITIONSHAPE($,$,(#767,#768));
#770=IFCWALL('1jMmNR5TZNlavyApnXzI$o',#5,'bld_0.flr_0.ops.envelope.wall_N',$,$,#760,#769,$,.STANDARD.);
#771=IFCLOCALPLACEMENT(#26,#699);
#772=IFCRECTANGLEPROFILEDEF(.AREA.,$,#762,30.,0.25);
#773=IFCEXTRUDEDAREASOLID(#772,#17,#15,12.);
#774=IFCPOLYLINE((#371,#765));
#775=IFCSHAPEREPRESENTATION(#18,'Axis','Curve2D',(#774));
#776=IFCSHAPEREPRESENTATION(#18,'Body','SweptSolid',(#773));
#777=IFCPRODUCTDEFINITIONSHAPE($,$,(#775,#776));
#778=IFCWALL('04ncCmSjnXrRWKyGzP$F1A',#5,'bld_0.flr_0.ops.envelope.wall_S',$,$,#771,#777,$,.STANDARD.);
#779=IFCAXIS2PLACEMENT3D(#14,#15,#388);
#780=IFCLOCALPLACEMENT(#26,#779);
#781=IFCCARTESIANPOINT((12.5,0.));
#782=IFCAXIS2PLACEMENT2D(#781,#33);
#783=IFCRECTANGLEPROFILEDEF(.AREA.,$,#782,25.,0.25);
#784=IFCEXTRUDEDAREASOLID(#783,#17,#15,12.);
#785=IFCCARTESIANPOINT((25.,0.));
#786=IFCPOLYLINE((#371,#785));
#787=IFCSHAPEREPRESENTATION(#18,'Axis','Curve2D',(#786));
#788=IFCSHAPEREPRESENTATION(#18,'Body','SweptSolid',(#784));
#789=IFCPRODUCTDEFINITIONSHAPE($,$,(#787,#788));
#790=IFCWALL('1FD5KEZMsF_E7v5r524Elm',#5,'bld_0.flr_0.ops.envelope.wall_W',$,$,#780,#789,$,.STANDARD.);
#791=IFCLOCALPLACEMENT(#26,#639);
#792=IFCRECTANGLEPROFILEDEF(.AREA.,$,#782,25.,0.25);
#793=IFCEXTRUDEDAREASOLID(#792,#17,#15,12.);
#794=IFCPOLYLINE((#371,#785));
#795=IFCSHAPEREPRESENTATION(#18,'Axis','Curve2D',(#794));
#796=IFCSHAPEREPRESENTATION(#18,'Body','SweptSolid',(#793));
#797=IFCPRODUCTDEFINITIONSHAPE($,$,(#795,#796));
#798=IFCWALL('0Q8f$HbOgdTRooq57r7ffH',#5,'bld_0.flr_0.ops.envelope.wall_E',$,$,#791,#797,$,.STANDARD.);
#799=IFCLOCALPLACEMENT(#26,#137);
#800=IFCCARTESIANPOINT((6.495,0.));
#801=IFCAXIS2PLACEMENT2D(#800,#33);
#802=IFCRECTANGLEPROFILEDEF(.AREA.,$,#801,12.99,0.25);
#803=IFCEXTRUDEDAREASOLID(#802,#17,#15,12.);
#804=IFCCARTESIANPOINT((12.99,0.));
#805=IFCPOLYLINE((#371,#804));
#806=IFCSHAPEREPRESENTATION(#18,'Axis','Curve2D',(#805));
#807=IFCSHAPEREPRESENTATION(#18,'Body','SweptSolid',(#803));
#808=IFCPRODUCTDEFINITIONSHAPE($,$,(#806,#807));
#809=IFCWALL('1uJZiREQm_Nh1ppuJcxtWe',#5,'bld_0.flr_0.ops.fast_unload.wall_N',$,$,#799,#808,$,.STANDARD.);
#810=IFCLOCALPLACEMENT(#26,#173);
#811=IFCRECTANGLEPROFILEDEF(.AREA.,$,#801,12.99,0.25);
#812=IFCEXTRUDEDAREASOLID(#811,#17,#15,12.);
#813=IFCPOLYLINE((#371,#804));
#814=IFCSHAPEREPRESENTATION(#18,'Axis','Curve2D',(#813));
#815=IFCSHAPEREPRESENTATION(#18,'Body','SweptSolid',(#812));
#816=IFCPRODUCTDEFINITIONSHAPE($,$,(#814,#815));
#817=IFCWALL('3conL8ugpRjnDEJnHSJZxn',#5,'bld_0.flr_0.ops.fast_unload.wall_S',$,$,#810,#816,$,.STANDARD.);
#818=IFCAXIS2PLACEMENT3D(#136,#15,#388);
#819=IFCLOCALPLACEMENT(#26,#818);
#820=IFCCARTESIANPOINT((0.94,0.));
#821=IFCAXIS2PLACEMENT2D(#820,#33);
#822=IFCRECTANGLEPROFILEDEF(.AREA.,$,#821,1.88,0.25);
#823=IFCEXTRUDEDAREASOLID(#822,#17,#15,12.);
#824=IFCCARTESIANPOINT((1.88,0.));
#825=IFCPOLYLINE((#371,#824));
#826=IFCSHAPEREPRESENTATION(#18,'Axis','Curve2D',(#825));
#827=IFCSHAPEREPRESENTATION(#18,'Body','SweptSolid',(#823));
#828=IFCPRODUCTDEFINITIONSHAPE($,$,(#826,#827));
#829=IFCWALL('0j0q5uKDj8oYitAaduvNrZ',#5,'bld_0.flr_0.ops.fast_unload.wall_W',$,$,#819,#828,$,.STANDARD.);
#830=IFCCARTESIANPOINT((12.99,2.81,0.));
#831=IFCAXIS2PLACEMENT3D(#830,#15,#388);
#832=IFCLOCALPLACEMENT(#26,#831);
#833=IFCRECTANGLEPROFILEDEF(.AREA.,$,#821,1.88,0.25);
#834=IFCEXTRUDEDAREASOLID(#833,#17,#15,12.);
#835=IFCPOLYLINE((#371,#824));
#836=IFCSHAPEREPRESENTATION(#18,'Axis','Curve2D',(#835));
#837=IFCSHAPEREPRESENTATION(#18,'Body','SweptSolid',(#834));
#838=IFCPRODUCTDEFINITIONSHAPE($,$,(#836,#837));
#839=IFCWALL('3L1au5VNF1qp1mOm61SOdN',#5,'bld_0.flr_0.ops.fast_unload.wall_E',$,$,#832,#838,$,.STANDARD.);
#840=IFCLOCALPLACEMENT(#26,#147);
#841=IFCCARTESIANPOINT((2.245,0.));
#842=IFCAXIS2PLACEMENT2D(#841,#33);
#843=IFCRECTANGLEPROFILEDEF(.AREA.,$,#842,4.49,0.25);
#844=IFCEXTRUDEDAREASOLID(#843,#17,#15,12.);
#845=IFCCARTESIANPOINT((4.49,0.));
#846=IFCPOLYLINE((#371,#845));
#847=IFCSHAPEREPRESENTATION(#18,'Axis','Curve2D',(#846));
#848=IFCSHAPEREPRESENTATION(#18,'Body','SweptSolid',(#844));
#849=IFCPRODUCTDEFINITIONSHAPE($,$,(#847,#848));
#850=IFCWALL('1sAcrVvi5$QQBMQpidYBgK',#5,'bld_0.flr_0.ops.flow_racks_fast.wall_N',$,$,#840,#849,$,.STANDARD.);
#851=IFCCARTESIANPOINT((19.96,16.88,0.));
#852=IFCAXIS2PLACEMENT3D(#851,#15,#16);
#853=IFCLOCALPLACEMENT(#26,#852);
#854=IFCRECTANGLEPROFILEDEF(.AREA.,$,#842,4.49,0.25);
#855=IFCEXTRUDEDAREASOLID(#854,#17,#15,12.);
#856=IFCPOLYLINE((#371,#845));
#857=IFCSHAPEREPRESENTATION(#18,'Axis','Curve2D',(#856));
#858=IFCSHAPEREPRESENTATION(#18,'Body','SweptSolid',(#855));
#859=IFCPRODUCTDEFINITIONSHAPE($,$,(#857,#858));
#860=IFCWALL('3DdqiFrmkWumiujqOAi7Zy',#5,'bld_0.flr_0.ops.flow_racks_fast.wall_S',$,$,#853,#859,$,.STANDARD.);
#861=IFCLOCALPLACEMENT(#26,#523);
#862=IFCRECTANGLEPROFILEDEF(.AREA.,$,#514,10.,0.25);
#863=IFCEXTRUDEDAREASOLID(#862,#17,#15,12.);
#864=IFCPOLYLINE((#371,#517));
#865=IFCSHAPEREPRESENTATION(#18,'Axis','Curve2D',(#864));
#866=IFCSHAPEREPRESENTATION(#18,'Body','SweptSolid',(#863));
#867=IFCPRODUCTDEFINITIONSHAPE($,$,(#865,#866));
#868=IFCWALL('3RjMsHfZBHKjRC_tNO0PJo',#5,'bld_0.flr_0.ops.flow_racks_fast.wall_W',$,$,#861,#867,$,.STANDARD.);
#869=IFCAXIS2PLACEMENT3D(#310,#15,#388);
#870=IFCLOCALPLACEMENT(#26,#869);
#871=IFCRECTANGLEPROFILEDEF(.AREA.,$,#514,10.,0.25);
#872=IFCEXTRUDEDAREASOLID(#871,#17,#15,12.);
#873=IFCPOLYLINE((#371,#517));
#874=IFCSHAPEREPRESENTATION(#18,'Axis','Curve2D',(#873));
#875=IFCSHAPEREPRESENTATION(#18,'Body','SweptSolid',(#872));
#876=IFCPRODUCTDEFINITIONSHAPE($,$,(#874,#875));
#877=IFCWALL('2zr_bSs1yg3K1GYlMsPaTt',#5,'bld_0.flr_0.ops.flow_racks_fast.wall_E',$,$,#870,#876,$,.STANDARD.);
#878=IFCLOCALPLACEMENT(#26,#157);
#879=IFCRECTANGLEPROFILEDEF(.AREA.,$,#454,6.,0.25);
#880=IFCEXTRUDEDAREASOLID(#879,#17,#15,12.);
#881=IFCPOLYLINE((#371,#457));
#882=IFCSHAPEREPRESENTATION(#18,'Axis','Curve2D',(#881));
#883=IFCSHAPEREPRESENTATION(#18,'Body','SweptSolid',(#880));
#884=IFCPRODUCTDEFINITIONSHAPE($,$,(#882,#883));
#885=IFCWALL('17Sft0GRNyq7oE2NhFKQbX',#5,'bld_0.flr_0.ops.human_picking.wall_N',$,$,#878,#884,$,.STANDARD.);
#886=IFCCARTESIANPOINT((24.,20.01,0.));
#887=IFCAXIS2PLACEMENT3D(#886,#15,#16);
#888=IFCLOCALPLACEMENT(#26,#887);
#889=IFCRECTANGLEPROFILEDEF(.AREA.,$,#454,6.,0.25);
#890=IFCEXTRUDEDAREASOLID(#889,#17,#15,12.);
#891=IFCPOLYLINE((#371,#457));
#892=IFCSHAPEREPRESENTATION(#18,'Axis','Curve2D',(#891));
#893=IFCSHAPEREPRESENTATION(#18,'Body','SweptSolid',(#890));
#894=IFCPRODUCTDEFINITIONSHAPE($,$,(#892,#893));
#895=IFCWALL('3PSw_Jr_K79D6Pq3_$md5N',#5,'bld_0.flr_0.ops.human_picking.wall_S',$,$,#888,#894,$,.STANDARD.);
#896=IFCLOCALPLACEMENT(#26,#401);
#897=IFCRECTANGLEPROFILEDEF(.AREA.,$,#392,3.13,0.25);
#898=IFCEXTRUDEDAREASOLID(#897,#17,#15,12.);
#899=IFCPOLYLINE((#371,#395));
#900=IFCSHAPEREPRESENTATION(#18,'Axis','Curve2D',(#899));
#901=IFCSHAPEREPRESENTATION(#18,'Body','SweptSolid',(#898));
#902=IFCPRODUCTDEFINITIONSHAPE($,$,(#900,#901));
#903=IFCWALL('01FFpx73vhZr9CGKwn57CH',#5,'bld_0.flr_0.ops.human_picking.wall_W',$,$,#896,#902,$,.STANDARD.);
#904=IFCCARTESIANPOINT((30.,16.88,0.));
#905=IFCAXIS2PLACEMENT3D(#904,#15,#388);
#906=IFCLOCALPLACEMENT(#26,#905);
#907=IFCRECTANGLEPROFILEDEF(.AREA.,$,#392,3.13,0.25);
#908=IFCEXTRUDEDAREASOLID(#907,#17,#15,12.);
#909=IFCPOLYLINE((#371,#395));
#910=IFCSHAPEREPRESENTATION(#18,'Axis','Curve2D',(#909));
#911=IFCSHAPEREPRESENTATION(#18,'Body','SweptSolid',(#908));
#912=IFCPRODUCTDEFINITIONSHAPE($,$,(#910,#911));
#913=IFCWALL('3HuDSq40oWlYj5iy6MxW12',#5,'bld_0.flr_0.ops.human_picking.wall_E',$,$,#906,#912,$,.STANDARD.);
#914=IFCLOCALPLACEMENT(#26,#17);
#915=IFCRECTANGLEPROFILEDEF(.AREA.,$,#801,12.99,0.25);
#916=IFCEXTRUDEDAREASOLID(#915,#17,#15,12.);
#917=IFCPOLYLINE((#371,#804));
#918=IFCSHAPEREPRESENTATION(#18,'Axis','Curve2D',(#917));
#919=IFCSHAPEREPRESENTATION(#18,'Body','SweptSolid',(#916));
#920=IFCPRODUCTDEFINITIONSHAPE($,$,(#918,#919));
#921=IFCWALL('2HbfKjZSAu5sU$GniH$OvI',#5,'bld_0.flr_0.ops.inbound_docks.wall_N',$,$,#914,#920,$,.STANDARD.);
#922=IFCLOCALPLACEMENT(#26,#137);
#923=IFCRECTANGLEPROFILEDEF(.AREA.,$,#801,12.99,0.25);
#924=IFCEXTRUDEDAREASOLID(#923,#17,#15,12.);
#925=IFCPOLYLINE((#371,#804));
#926=IFCSHAPEREPRESENTATION(#18,'Axis','Curve2D',(#925));
#927=IFCSHAPEREPRESENTATION(#18,'Body','SweptSolid',(#924));
#928=IFCPRODUCTDEFINITIONSHAPE($,$,(#926,#927));
#929=IFCWALL('2yQuSOYdNnX59f$29ZNrIi',#5,'bld_0.flr_0.ops.inbound_docks.wall_S',$,$,#922,#928,$,.STANDARD.);
#930=IFCLOCALPLACEMENT(#26,#779);
#931=IFCRECTANGLEPROFILEDEF(.AREA.,$,#434,2.81,0.25);
#932=IFCEXTRUDEDAREASOLID(#931,#17,#15,12.);
#933=IFCPOLYLINE((#371,#437));
#934=IFCSHAPEREPRESENTATION(#18,'Axis','Curve2D',(#933));
#935=IFCSHAPEREPRESENTATION(#18,'Body','SweptSolid',(#932));
#936=IFCPRODUCTDEFINITIONSHAPE($,$,(#934,#935));
#937=IFCWALL('0XYFwzitYew2M_kPFUgyk6',#5,'bld_0.flr_0.ops.inbound_docks.wall_W',$,$,#930,#936,$,.STANDARD.);
#938=IFCAXIS2PLACEMENT3D(#300,#15,#388);
#939=IFCLOCALPLACEMENT(#26,#938);
#940=IFCRECTANGLEPROFILEDEF(.AREA.,$,#434,2.81,0.25);
#941=IFCEXTRUDEDAREASOLID(#940,#17,#15,12.);
#942=IFCPOLYLINE((#371,#437));
#943=IFCSHAPEREPRESENTATION(#18,'Axis','Curve2D',(#942));
#944=IFCSHAPEREPRESENTATION(#18,'Body','SweptSolid',(#941));
#945=IFCPRODUCTDEFINITIONSHAPE($,$,(#943,#944));
#946=IFCWALL('0j9H43R7I6mOiojTwIfVd$',#5,'bld_0.flr_0.ops.inbound_docks.wall_E',$,$,#939,#945,$,.STANDARD.);
#947=IFCLOCALPLACEMENT(#26,#173);
#948=IFCCARTESIANPOINT((9.75,0.));
#949=IFCAXIS2PLACEMENT2D(#948,#33);
#950=IFCRECTANGLEPROFILEDEF(.AREA.,$,#949,19.5,0.25);
#951=IFCEXTRUDEDAREASOLID(#950,#17,#15,12.);
#952=IFCCARTESIANPOINT((19.5,0.));
#953=IFCPOLYLINE((#371,#952));
#954=IFCSHAPEREPRESENTATION(#18,'Axis','Curve2D',(#953));
#955=IFCSHAPEREPRESENTATION(#18,'Body','SweptSolid',(#951));
#956=IFCPRODUCTDEFINITIONSHAPE($,$,(#954,#955));
#957=IFCWALL('1DDrVR3a4IktAjQQXKeNB$',#5,'bld_0.flr_0.ops.inbound_staging.wall_N',$,$,#947,#956,$,.STANDARD.);
#958=IFCLOCALPLACEMENT(#26,#71);
#959=IFCRECTANGLEPROFILEDEF(.AREA.,$,#949,19.5,0.25);
#960=IFCEXTRUDEDAREASOLID(#959,#17,#15,12.);
#961=IFCPOLYLINE((#371,#952));
#962=IFCSHAPEREPRESENTATION(#18,'Axis','Curve2D',(#961));
#963=IFCSHAPEREPRESENTATION(#18,'Body','SweptSolid',(#960));
#964=IFCPRODUCTDEFINITIONSHAPE($,$,(#962,#963));
#965=IFCWALL('1Z5t_nYqK$xQNpLenG8cwt',#5,'bld_0.flr_0.ops.inbound_staging.wall_S',$,$,#958,#964,$,.STANDARD.);
#966=IFCAXIS2PLACEMENT3D(#172,#15,#388);
#967=IFCLOCALPLACEMENT(#26,#966);
#968=IFCRECTANGLEPROFILEDEF(.AREA.,$,#672,2.19,0.25);
#969=IFCEXTRUDEDAREASOLID(#968,#17,#15,12.);
#970=IFCPOLYLINE((#371,#675));
#971=IFCSHAPEREPRESENTATION(#18,'Axis','Curve2D',(#970));
#972=IFCSHAPEREPRESENTATION(#18,'Body','SweptSolid',(#969));
#973=IFCPRODUCTDEFINITIONSHAPE($,$,(#971,#972));
#974=IFCWALL('0ym2SmzbUHhG1BgLcMmJos',#5,'bld_0.flr_0.ops.inbound_staging.wall_W',$,$,#967,#973,$,.STANDARD.);
#975=IFCAXIS2PLACEMENT3D(#320,#15,#388);
#976=IFCLOCALPLACEMENT(#26,#975);
#977=IFCRECTANGLEPROFILEDEF(.AREA.,$,#672,2.19,0.25);
#978=IFCEXTRUDEDAREASOLID(#977,#17,#15,12.);
#979=IFCPOLYLINE((#371,#675));
#980=IFCSHAPEREPRESENTATION(#18,'Axis','Curve2D',(#979));
#981=IFCSHAPEREPRESENTATION(#18,'Body','SweptSolid',(#978));
#982=IFCPRODUCTDEFINITIONSHAPE($,$,(#980,#981));
#983=IFCWALL('0WM$9b6ELJn1xt8k28MXNg',#5,'bld_0.flr_0.ops.inbound_staging.wall_E',$,$,#976,#982,$,.STANDARD.);
#984=IFCLOCALPLACEMENT(#26,#183);
#985=IFCCARTESIANPOINT((1.995,0.));
#986=IFCAXIS2PLACEMENT2D(#985,#33);
#987=IFCRECTANGLEPROFILEDEF(.AREA.,$,#986,3.99,0.25);
#988=IFCEXTRUDEDAREASOLID(#987,#17,#15,12.);
#989=IFCCARTESIANPOINT((3.99,0.));
#990=IFCPOLYLINE((#371,#989));
#991=IFCSHAPEREPRESENTATION(#18,'Axis','Curve2D',(#990));
#992=IFCSHAPEREPRESENTATION(#18,'Body','SweptSolid',(#988));
#993=IFCPRODUCTDEFINITIONSHAPE($,$,(#991,#992));
#994=IFCWALL('1Wbr1L0BRWHxTrhtaTg1R1',#5,'bld_0.flr_0.ops.inventory_office.wall_N',$,$,#984,#993,$,.STANDARD.);
#995=IFCLOCALPLACEMENT(#26,#193);
#996=IFCRECTANGLEPROFILEDEF(.AREA.,$,#986,3.99,0.25);
#997=IFCEXTRUDEDAREASOLID(#996,#17,#15,12.);
#998=IFCPOLYLINE((#371,#989));
#999=IFCSHAPEREPRESENTATION(#18,'Axis','Curve2D',(#998));
#1000=IFCSHAPEREPRESENTATION(#18,'Body','SweptSolid',(#997));
#1001=IFCPRODUCTDEFINITIONSHAPE($,$,(#999,#1000));
#1002=IFCWALL('3LQF0uWzlJ9XbpJgCPNim0',#5,'bld_0.flr_0.ops.inventory_office.wall_S',$,$,#995,#1001,$,.STANDARD.);
#1003=IFCAXIS2PLACEMENT3D(#182,#15,#388);
#1004=IFCLOCALPLACEMENT(#26,#1003);
#1005=IFCCARTESIANPOINT((1.25,0.));
#1006=IFCAXIS2PLACEMENT2D(#1005,#33);
#1007=IFCRECTANGLEPROFILEDEF(.AREA.,$,#1006,2.5,0.25);
#1008=IFCEXTRUDEDAREASOLID(#1007,#17,#15,12.);
#1009=IFCPOLYLINE((#371,#492));
#1010=IFCSHAPEREPRESENTATION(#18,'Axis','Curve2D',(#1009));
#1011=IFCSHAPEREPRESENTATION(#18,'Body','SweptSolid',(#1008));
#1012=IFCPRODUCTDEFINITIONSHAPE($,$,(#1010,#1011));
#1013=IFCWALL('3xrNm0FJDLDiKswFhJ3STf',#5,'bld_0.flr_0.ops.inventory_office.wall_W',$,$,#1004,#1012,$,.STANDARD.);
#1014=IFCCARTESIANPOINT((30.,6.88,0.));
#1015=IFCAXIS2PLACEMENT3D(#1014,#15,#388);
#1016=IFCLOCALPLACEMENT(#26,#1015);
#1017=IFCRECTANGLEPROFILEDEF(.AREA.,$,#1006,2.5,0.25);
#1018=IFCEXTRUDEDAREASOLID(#1017,#17,#15,12.);
#1019=IFCPOLYLINE((#371,#492));
#1020=IFCSHAPEREPRESENTATION(#18,'Axis','Curve2D',(#1019));
#1021=IFCSHAPEREPRESENTATION(#18,'Body','SweptSolid',(#1018));
#1022=IFCPRODUCTDEFINITIONSHAPE($,$,(#1020,#1021));
#1023=IFCWALL('1AaVdXo6EOQHQJPNdjuuGD',#5,'bld_0.flr_0.ops.inventory_office.wall_E',$,$,#1016,#1022,$,.STANDARD.);
#1024=IFCLOCALPLACEMENT(#26,#193);
#1025=IFCRECTANGLEPROFILEDEF(.AREA.,$,#986,3.99,0.25);
#1026=IFCEXTRUDEDAREASOLID(#1025,#17,#15,12.);
#1027=IFCPOLYLINE((#371,#989));
#1028=IFCSHAPEREPRESENTATION(#18,'Axis','Curve2D',(#1027));
#1029=IFCSHAPEREPRESENTATION(#18,'Body','SweptSolid',(#1026));
#1030=IFCPRODUCTDEFINITIONSHAPE($,$,(#1028,#1029));
#1031=IFCWALL('1nQADTClm2AX$eOQ3tfGgn',#5,'bld_0.flr_0.ops.it_server_room.wall_N',$,$,#1024,#1030,$,.STANDARD.);
#1032=IFCCARTESIANPOINT((26.01,11.26,0.));
#1033=IFCAXIS2PLACEMENT3D(#1032,#15,#16);
#1034=IFCLOCALPLACEMENT(#26,#1033);
#1035=IFCRECTANGLEPROFILEDEF(.AREA.,$,#986,3.99,0.25);
#1036=IFCEXTRUDEDAREASOLID(#1035,#17,#15,12.);
#1037=IFCPOLYLINE((#371,#989));
#1038=IFCSHAPEREPRESENTATION(#18,'Axis','Curve2D',(#1037));
#1039=IFCSHAPEREPRESENTATION(#18,'Body','SweptSolid',(#1036));
#1040=IFCPRODUCTDEFINITIONSHAPE($,$,(#1038,#1039));
#1041=IFCWALL('1Brw0jAqKCerA3x7MoGcji',#5,'bld_0.flr_0.ops.it_server_room.wall_S',$,$,#1034,#1040,$,.STANDARD.);
#1042=IFCAXIS2PLACEMENT3D(#192,#15,#388);
#1043=IFCLOCALPLACEMENT(#26,#1042);
#1044=IFCRECTANGLEPROFILEDEF(.AREA.,$,#821,1.88,0.25);
#1045=IFCEXTRUDEDAREASOLID(#1044,#17,#15,12.);
#1046=IFCPOLYLINE((#371,#824));
#1047=IFCSHAPEREPRESENTATION(#18,'Axis','Curve2D',(#1046));
#1048=IFCSHAPEREPRESENTATION(#18,'Body','SweptSolid',(#1045));
#1049=IFCPRODUCTDEFINITIONSHAPE($,$,(#1047,#1048));
#1050=IFCWALL('3iwL1JJcb$QkQNQ9YqaSvk',#5,'bld_0.flr_0.ops.it_server_room.wall_W',$,$,#1043,#1049,$,.STANDARD.);
#1051=IFCCARTESIANPOINT((30.,9.38,0.));
#1052=IFCAXIS2PLACEMENT3D(#1051,#15,#388);
#1053=IFCLOCALPLACEMENT(#26,#1052);
#1054=IFCRECTANGLEPROFILEDEF(.AREA.,$,#821,1.88,0.25);
#1055=IFCEXTRUDEDAREASOLID(#1054,#17,#15,12.);
#1056=IFCPOLYLINE((#371,#824));
#1057=IFCSHAPEREPRESENTATION(#18,'Axis','Curve2D',(#1056));
#1058=IFCSHAPEREPRESENTATION(#18,'Body','SweptSolid',(#1055));
#1059=IFCPRODUCTDEFINITIONSHAPE($,$,(#1057,#1058));
#1060=IFCWALL('0vewUfKtBUHp$8TAH4AawR',#5,'bld_0.flr_0.ops.it_server_room.wall_E',$,$,#1053,#1059,$,.STANDARD.);
#1061=IFCLOCALPLACEMENT(#26,#203);
#1062=IFCRECTANGLEPROFILEDEF(.AREA.,$,#986,3.99,0.25);
#1063=IFCEXTRUDEDAREASOLID(#1062,#17,#15,12.);
#1064=IFCPOLYLINE((#371,#989));
#1065=IFCSHAPEREPRESENTATION(#18,'Axis','Curve2D',(#1064));
#1066=IFCSHAPEREPRESENTATION(#18,'Body','SweptSolid',(#1063));
#1067=IFCPRODUCTDEFINITIONSHAPE($,$,(#1065,#1066));
#1068=IFCWALL('0g$T8DZh$h_5bc$ilqST4c',#5,'bld_0.flr_0.ops.labeling_qa.wall_N',$,$,#1061,#1067,$,.STANDARD.);
#1069=IFCCARTESIANPOINT((7.98,22.81,0.));
#1070=IFCAXIS2PLACEMENT3D(#1069,#15,#16);
#1071=IFCLOCALPLACEMENT(#26,#1070);
#1072=IFCRECTANGLEPROFILEDEF(.AREA.,$,#986,3.99,0.25);
#1073=IFCEXTRUDEDAREASOLID(#1072,#17,#15,12.);
#1074=IFCPOLYLINE((#371,#989));
#1075=IFCSHAPEREPRESENTATION(#18,'Axis','Curve2D',(#1074));
#1076=IFCSHAPEREPRESENTATION(#18,'Body','SweptSolid',(#1073));
#1077=IFCPRODUCTDEFINITIONSHAPE($,$,(#1075,#1076));
#1078=IFCWALL('1hX8cGEEjpgcWDjt$tDG_b',#5,'bld_0.flr_0.ops.labeling_qa.wall_S',$,$,#1071,#1077,$,.STANDARD.);
#1079=IFCAXIS2PLACEMENT3D(#202,#15,#388);
#1080=IFCLOCALPLACEMENT(#26,#1079);
#1081=IFCRECTANGLEPROFILEDEF(.AREA.,$,#434,2.81,0.25);
#1082=IFCEXTRUDEDAREASOLID(#1081,#17,#15,12.);
#1083=IFCPOLYLINE((#371,#437));
#1084=IFCSHAPEREPRESENTATION(#18,'Axis','Curve2D',(#1083));
#1085=IFCSHAPEREPRESENTATION(#18,'Body','SweptSolid',(#1082));
#1086=IFCPRODUCTDEFINITIONSHAPE($,$,(#1084,#1085));
#1087=IFCWALL('0XrBSC8ozceTEkL_Js3_gJ',#5,'bld_0.flr_0.ops.labeling_qa.wall_W',$,$,#1080,#1086,$,.STANDARD.);
#1088=IFCCARTESIANPOINT((11.97,20.,0.));
#1089=IFCAXIS2PLACEMENT3D(#1088,#15,#388);
#1090=IFCLOCALPLACEMENT(#26,#1089);
#1091=IFCRECTANGLEPROFILEDEF(.AREA.,$,#434,2.81,0.25);
#1092=IFCEXTRUDEDAREASOLID(#1091,#17,#15,12.);
#1093=IFCPOLYLINE((#371,#437));
#1094=IFCSHAPEREPRESENTATION(#18,'Axis','Curve2D',(#1093));
#1095=IFCSHAPEREPRESENTATION(#18,'Body','SweptSolid',(#1092));
#1096=IFCPRODUCTDEFINITIONSHAPE($,$,(#1094,#1095));
#1097=IFCWALL('1L8r68DaxDlhEzlNsWBwwk',#5,'bld_0.flr_0.ops.labeling_qa.wall_E',$,$,#1090,#1096,$,.STANDARD.);
#1098=IFCLOCALPLACEMENT(#26,#213);
#1099=IFCRECTANGLEPROFILEDEF(.AREA.,$,#368,5.49,0.25);
#1100=IFCEXTRUDEDAREASOLID(#1099,#17,#15,12.);
#1101=IFCPOLYLINE((#371,#372));
#1102=IFCSHAPEREPRESENTATION(#18,'Axis','Curve2D',(#1101));
#1103=IFCSHAPEREPRESENTATION(#18,'Body','SweptSolid',(#1100));
#1104=IFCPRODUCTDEFINITIONSHAPE($,$,(#1102,#1103));
#1105=IFCWALL('1OubKJcmDP9BXso7iicuUJ',#5,'bld_0.flr_0.ops.lastmile_lanes.wall_N',$,$,#1098,#1104,$,.STANDARD.);
#1106=IFCCARTESIANPOINT((14.52,25.,0.));
#1107=IFCAXIS2PLACEMENT3D(#1106,#15,#16);
#1108=IFCLOCALPLACEMENT(#26,#1107);
#1109=IFCRECTANGLEPROFILEDEF(.AREA.,$,#368,5.49,0.25);
#1110=IFCEXTRUDEDAREASOLID(#1109,#17,#15,12.);
#1111=IFCPOLYLINE((#371,#372));
#1112=IFCSHAPEREPRESENTATION(#18,'Axis','Curve2D',(#1111));
#1113=IFCSHAPEREPRESENTATION(#18,'Body','SweptSolid',(#1110));
#1114=IFCPRODUCTDEFINITIONSHAPE($,$,(#1112,#1113));
#1115=IFCWALL('0sIWROyIspIqU7aYbisrzc',#5,'bld_0.flr_0.ops.lastmile_lanes.wall_S',$,$,#1108,#1114,$,.STANDARD.);
#1116=IFCLOCALPLACEMENT(#26,#751);
#1117=IFCRECTANGLEPROFILEDEF(.AREA.,$,#672,2.19,0.25);
#1118=IFCEXTRUDEDAREASOLID(#1117,#17,#15,12.);
#1119=IFCPOLYLINE((#371,#675));
#1120=IFCSHAPEREPRESENTATION(#18,'Axis','Curve2D',(#1119));
#1121=IFCSHAPEREPRESENTATION(#18,'Body','SweptSolid',(#1118));
#1122=IFCPRODUCTDEFINITIONSHAPE($,$,(#1120,#1121));
#1123=IFCWALL('14ZdNWznPi9HDtzRzzwX_H',#5,'bld_0.flr_0.ops.lastmile_lanes.wall_W',$,$,#1116,#1122,$,.STANDARD.);
#1124=IFCAXIS2PLACEMENT3D(#290,#15,#388);
#1125=IFCLOCALPLACEMENT(#26,#1124);
#1126=IFCRECTANGLEPROFILEDEF(.AREA.,$,#672,2.19,0.25);
#1127=IFCEXTRUDEDAREASOLID(#1126,#17,#15,12.);
#1128=IFCPOLYLINE((#371,#675));
#1129=IFCSHAPEREPRESENTATION(#18,'Axis','Curve2D',(#1128));
#1130=IFCSHAPEREPRESENTATION(#18,'Body','SweptSolid',(#1127));
#1131=IFCPRODUCTDEFINITIONSHAPE($,$,(#1129,#1130));
#1132=IFCWALL('3wOwVTs$nvfx3$p9oPyDHn',#5,'bld_0.flr_0.ops.lastmile_lanes.wall_E',$,$,#1125,#1131,$,.STANDARD.);
#1133=IFCLOCALPLACEMENT(#26,#223);
#1134=IFCRECTANGLEPROFILEDEF(.AREA.,$,#986,3.99,0.25);
#1135=IFCEXTRUDEDAREASOLID(#1134,#17,#15,12.);
#1136=IFCPOLYLINE((#371,#989));
#1137=IFCSHAPEREPRESENTATION(#18,'Axis','Curve2D',(#1136));
#1138=IFCSHAPEREPRESENTATION(#18,'Body','SweptSolid',(#1135));
#1139=IFCPRODUCTDEFINITIONSHAPE($,$,(#1137,#1138));
#1140=IFCWALL('1Ptqnvl21KSC11rzItY1xP',#5,'bld_0.flr_0.ops.lockers.wall_N',$,$,#1133,#1139,$,.STANDARD.);
#1141=IFCCARTESIANPOINT((26.01,16.87,0.));
#1142=IFCAXIS2PLACEMENT3D(#1141,#15,#16);
#1143=IFCLOCALPLACEMENT(#26,#1142);
#1144=IFCRECTANGLEPROFILEDEF(.AREA.,$,#986,3.99,0.25);
#1145=IFCEXTRUDEDAREASOLID(#1144,#17,#15,12.);
#1146=IFCPOLYLINE((#371,#989));
#1147=IFCSHAPEREPRESENTATION(#18,'Axis','Curve2D',(#1146));
#1148=IFCSHAPEREPRESENTATION(#18,'Body','SweptSolid',(#1145));
#1149=IFCPRODUCTDEFINITIONSHAPE($,$,(#1147,#1148));
#1150=IFCWALL('2X4FEdlp5X$jQslBjuAWlj',#5,'bld_0.flr_0.ops.lockers.wall_S',$,$,#1143,#1149,$,.STANDARD.);
#1151=IFCAXIS2PLACEMENT3D(#222,#15,#388);
#1152=IFCLOCALPLACEMENT(#26,#1151);
#1153=IFCCARTESIANPOINT((0.78,0.));
#1154=IFCAXIS2PLACEMENT2D(#1153,#33);
#1155=IFCRECTANGLEPROFILEDEF(.AREA.,$,#1154,1.56,0.25);
#1156=IFCEXTRUDEDAREASOLID(#1155,#17,#15,12.);
#1157=IFCCARTESIANPOINT((1.56,0.));
#1158=IFCPOLYLINE((#371,#1157));
#1159=IFCSHAPEREPRESENTATION(#18,'Axis','Curve2D',(#1158));
#1160=IFCSHAPEREPRESENTATION(#18,'Body','SweptSolid',(#1156));
#1161=IFCPRODUCTDEFINITIONSHAPE($,$,(#1159,#1160));
#1162=IFCWALL('2pjGZCoNe6ZPXRWc1DTfTf',#5,'bld_0.flr_0.ops.lockers.wall_W',$,$,#1152,#1161,$,.STANDARD.);
#1163=IFCCARTESIANPOINT((30.,15.31,0.));
#1164=IFCAXIS2PLACEMENT3D(#1163,#15,#388);
#1165=IFCLOCALPLACEMENT(#26,#1164);
#1166=IFCRECTANGLEPROFILEDEF(.AREA.,$,#1154,1.56,0.25);
#1167=IFCEXTRUDEDAREASOLID(#1166,#17,#15,12.);
#1168=IFCPOLYLINE((#371,#1157));
#1169=IFCSHAPEREPRESENTATION(#18,'Axis','Curve2D',(#1168));
#1170=IFCSHAPEREPRESENTATION(#18,'Body','SweptSolid',(#1167));
#1171=IFCPRODUCTDEFINITIONSHAPE($,$,(#1169,#1170));
#1172=IFCWALL('20$rBLJanK7I$lnMBwRKP7',#5,'bld_0.flr_0.ops.lockers.wall_E',$,$,#1165,#1171,$,.STANDARD.);
#1173=IFCLOCALPLACEMENT(#26,#233);
#1174=IFCRECTANGLEPROFILEDEF(.AREA.,$,#986,3.99,0.25);
#1175=IFCEXTRUDEDAREASOLID(#1174,#17,#15,12.);
#1176=IFCPOLYLINE((#371,#989));
#1177=IFCSHAPEREPRESENTATION(#18,'Axis','Curve2D',(#1176));
#1178=IFCSHAPEREPRESENTATION(#18,'Body','SweptSolid',(#1175));
#1179=IFCPRODUCTDEFINITIONSHAPE($,$,(#1177,#1178));
#1180=IFCWALL('1U578rk4gXlYE_JZbTTuA7',#5,'bld_0.flr_0.ops.maintenance.wall_N',$,$,#1173,#1179,$,.STANDARD.);
#1181=IFCLOCALPLACEMENT(#26,#183);
#1182=IFCRECTANGLEPROFILEDEF(.AREA.,$,#986,3.99,0.25);
#1183=IFCEXTRUDEDAREASOLID(#1182,#17,#15,12.);
#1184=IFCPOLYLINE((#371,#989));
#1185=IFCSHAPEREPRESENTATION(#18,'Axis','Curve2D',(#1184));
#1186=IFCSHAPEREPRESENTATION(#18,'Body','SweptSolid',(#1183));
#1187=IFCPRODUCTDEFINITIONSHAPE($,$,(#1185,#1186));
#1188=IFCWALL('2fEqlWWNdYBu8nzrqVLbNx',#5,'bld_0.flr_0.ops.maintenance.wall_S',$,$,#1181,#1187,$,.STANDARD.);
#1189=IFCAXIS2PLACEMENT3D(#232,#15,#388);
#1190=IFCLOCALPLACEMENT(#26,#1189);
#1191=IFCRECTANGLEPROFILEDEF(.AREA.,$,#672,2.19,0.25);
#1192=IFCEXTRUDEDAREASOLID(#1191,#17,#15,12.);
#1193=IFCPOLYLINE((#371,#675));
#1194=IFCSHAPEREPRESENTATION(#18,'Axis','Curve2D',(#1193));
#1195=IFCSHAPEREPRESENTATION(#18,'Body','SweptSolid',(#1192));
#1196=IFCPRODUCTDEFINITIONSHAPE($,$,(#1194,#1195));
#1197=IFCWALL('2XQ5w9NndOJXcvb4Hu61U3',#5,'bld_0.flr_0.ops.maintenance.wall_W',$,$,#1190,#1196,$,.STANDARD.);
#1198=IFCCARTESIANPOINT((30.,4.69,0.));
#1199=IFCAXIS2PLACEMENT3D(#1198,#15,#388);
#1200=IFCLOCALPLACEMENT(#26,#1199);
#1201=IFCRECTANGLEPROFILEDEF(.AREA.,$,#672,2.19,0.25);
#1202=IFCEXTRUDEDAREASOLID(#1201,#17,#15,12.);
#1203=IFCPOLYLINE((#371,#675));
#1204=IFCSHAPEREPRESENTATION(#18,'Axis','Curve2D',(#1203));
#1205=IFCSHAPEREPRESENTATION(#18,'Body','SweptSolid',(#1202));
#1206=IFCPRODUCTDEFINITIONSHAPE($,$,(#1204,#1205));
#1207=IFCWALL('0gHLbnsCNsKEmtvQH_l5OB',#5,'bld_0.flr_0.ops.maintenance.wall_E',$,$,#1200,#1206,$,.STANDARD.);
#1208=IFCLOCALPLACEMENT(#26,#243);
#1209=IFCCARTESIANPOINT((1.755,0.));
#1210=IFCAXIS2PLACEMENT2D(#1209,#33);
#1211=IFCRECTANGLEPROFILEDEF(.AREA.,$,#1210,3.51,0.25);
#1212=IFCEXTRUDEDAREASOLID(#1211,#17,#15,12.);
#1213=IFCCARTESIANPOINT((3.51,0.));
#1214=IFCPOLYLINE((#371,#1213));
#1215=IFCSHAPEREPRESENTATION(#18,'Axis','Curve2D',(#1214));
#1216=IFCSHAPEREPRESENTATION(#18,'Body','SweptSolid',(#1212));
#1217=IFCPRODUCTDEFINITIONSHAPE($,$,(#1215,#1216));
#1218=IFCWALL('31j_9CuRQBZIbIewNgjHC0',#5,'bld_0.flr_0.ops.manual_sort.wall_N',$,$,#1208,#1217,$,.STANDARD.);
#1219=IFCCARTESIANPOINT((26.49,22.81,0.));
#1220=IFCAXIS2PLACEMENT3D(#1219,#15,#16);
#1221=IFCLOCALPLACEMENT(#26,#1220);
#1222=IFCRECTANGLEPROFILEDEF(.AREA.,$,#1210,3.51,0.25);
#1223=IFCEXTRUDEDAREASOLID(#1222,#17,#15,12.);
#1224=IFCPOLYLINE((#371,#1213));
#1225=IFCSHAPEREPRESENTATION(#18,'Axis','Curve2D',(#1224));
#1226=IFCSHAPEREPRESENTATION(#18,'Body','SweptSolid',(#1223));
#1227=IFCPRODUCTDEFINITIONSHAPE($,$,(#1225,#1226));
#1228=IFCWALL('362HamdbyVNHsHpTkQhnwr',#5,'bld_0.flr_0.ops.manual_sort.wall_S',$,$,#1221,#1227,$,.STANDARD.);
#1229=IFCLOCALPLACEMENT(#26,#443);
#1230=IFCRECTANGLEPROFILEDEF(.AREA.,$,#434,2.81,0.25);
#1231=IFCEXTRUDEDAREASOLID(#1230,#17,#15,12.);
#1232=IFCPOLYLINE((#371,#437));
#1233=IFCSHAPEREPRESENTATION(#18,'Axis','Curve2D',(#1232));
#1234=IFCSHAPEREPRESENTATION(#18,'Body','SweptSolid',(#1231));
#1235=IFCPRODUCTDEFINITIONSHAPE($,$,(#1233,#1234));
#1236=IFCWALL('1z3qhYE7AbKG_piR3$HInr',#5,'bld_0.flr_0.ops.manual_sort.wall_W',$,$,#1229,#1235,$,.STANDARD.);
#1237=IFCCARTESIANPOINT((30.,20.,0.));
#1238=IFCAXIS2PLACEMENT3D(#1237,#15,#388);
#1239=IFCLOCALPLACEMENT(#26,#1238);
#1240=IFCRECTANGLEPROFILEDEF(.AREA.,$,#434,2.81,0.25);
#1241=IFCEXTRUDEDAREASOLID(#1240,#17,#15,12.);
#1242=IFCPOLYLINE((#371,#437));
#1243=IFCSHAPEREPRESENTATION(#18,'Axis','Curve2D',(#1242));
#1244=IFCSHAPEREPRESENTATION(#18,'Body','SweptSolid',(#1241));
#1245=IFCPRODUCTDEFINITIONSHAPE($,$,(#1243,#1244));
#1246=IFCWALL('3medcHB2sJSLHKLVm2NLUg',#5,'bld_0.flr_0.ops.manual_sort.wall_E',$,$,#1239,#1245,$,.STANDARD.);
#1247=IFCLOCALPLACEMENT(#26,#253);
#1248=IFCCARTESIANPOINT((3.245,0.));
#1249=IFCAXIS2PLACEMENT2D(#1248,#33);
#1250=IFCRECTANGLEPROFILEDEF(.AREA.,$,#1249,6.49,0.25);
#1251=IFCEXTRUDEDAREASOLID(#1250,#17,#15,12.);
#1252=IFCCARTESIANPOINT((6.49,0.));
#1253=IFCPOLYLINE((#371,#1252));
#1254=IFCSHAPEREPRESENTATION(#18,'Axis','Curve2D',(#1253));
#1255=IFCSHAPEREPRESENTATION(#18,'Body','SweptSolid',(#1251));
#1256=IFCPRODUCTDEFINITIONSHAPE($,$,(#1254,#1255));
#1257=IFCWALL('2TciPBdJksbEp7x7i_9RHy',#5,'bld_0.flr_0.ops.medium_shelf_B.wall_N',$,$,#1247,#1256,$,.STANDARD.);
#1258=IFCCARTESIANPOINT((8.47,16.88,0.));
#1259=IFCAXIS2PLACEMENT3D(#1258,#15,#16);
#1260=IFCLOCALPLACEMENT(#26,#1259);
#1261=IFCRECTANGLEPROFILEDEF(.AREA.,$,#1249,6.49,0.25);
#1262=IFCEXTRUDEDAREASOLID(#1261,#17,#15,12.);
#1263=IFCPOLYLINE((#371,#1252));
#1264=IFCSHAPEREPRESENTATION(#18,'Axis','Curve2D',(#1263));
#1265=IFCSHAPEREPRESENTATION(#18,'Body','SweptSolid',(#1262));
#1266=IFCPRODUCTDEFINITIONSHAPE($,$,(#1264,#1265));
#1267=IFCWALL('2eHzTLrSNnjxOnKXIBPP1u',#5,'bld_0.flr_0.ops.medium_shelf_B.wall_S',$,$,#1260,#1266,$,.STANDARD.);
#1268=IFCLOCALPLACEMENT(#26,#560);
#1269=IFCRECTANGLEPROFILEDEF(.AREA.,$,#514,10.,0.25);
#1270=IFCEXTRUDEDAREASOLID(#1269,#17,#15,12.);
#1271=IFCPOLYLINE((#371,#517));
#1272=IFCSHAPEREPRESENTATION(#18,'Axis','Curve2D',(#1271));
#1273=IFCSHAPEREPRESENTATION(#18,'Body','SweptSolid',(#1270));
#1274=IFCPRODUCTDEFINITIONSHAPE($,$,(#1272,#1273));
#1275=IFCWALL('0I7XHNU2ALeH6lNTpCf2kJ',#5,'bld_0.flr_0.ops.medium_shelf_B.wall_W',$,$,#1268,#1274,$,.STANDARD.);
#1276=IFCLOCALPLACEMENT(#26,#512);
#1277=IFCRECTANGLEPROFILEDEF(.AREA.,$,#514,10.,0.25);
#1278=IFCEXTRUDEDAREASOLID(#1277,#17,#15,12.);
#1279=IFCPOLYLINE((#371,#517));
#1280=IFCSHAPEREPRESENTATION(#18,'Axis','Curve2D',(#1279));
#1281=IFCSHAPEREPRESENTATION(#18,'Body','SweptSolid',(#1278));
#1282=IFCPRODUCTDEFINITIONSHAPE($,$,(#1280,#1281));
#1283=IFCWALL('322vSjkzCPsMwvCi_vt6Fa',#5,'bld_0.flr_0.ops.medium_shelf_B.wall_E',$,$,#1276,#1282,$,.STANDARD.);
#1284=IFCLOCALPLACEMENT(#26,#263);
#1285=IFCRECTANGLEPROFILEDEF(.AREA.,$,#986,3.99,0.25);
#1286=IFCEXTRUDEDAREASOLID(#1285,#17,#15,12.);
#1287=IFCPOLYLINE((#371,#989));
#1288=IFCSHAPEREPRESENTATION(#18,'Axis','Curve2D',(#1287));
#1289=IFCSHAPEREPRESENTATION(#18,'Body','SweptSolid',(#1286));
#1290=IFCPRODUCTDEFINITIONSHAPE($,$,(#1288,#1289));
#1291=IFCWALL('2Px6eu_PaAifhSu6NWX5Bz',#5,'bld_0.flr_0.ops.meeting_room.wall_N',$,$,#1284,#1290,$,.STANDARD.);
#1292=IFCLOCALPLACEMENT(#26,#331);
#1293=IFCRECTANGLEPROFILEDEF(.AREA.,$,#986,3.99,0.25);
#1294=IFCEXTRUDEDAREASOLID(#1293,#17,#15,12.);
#1295=IFCPOLYLINE((#371,#989));
#1296=IFCSHAPEREPRESENTATION(#18,'Axis','Curve2D',(#1295));
#1297=IFCSHAPEREPRESENTATION(#18,'Body','SweptSolid',(#1294));
#1298=IFCPRODUCTDEFINITIONSHAPE($,$,(#1296,#1297));
#1299=IFCWALL('1sGpDMXFMFvYb_O6HZ_nAx',#5,'bld_0.flr_0.ops.meeting_room.wall_S',$,$,#1292,#1298,$,.STANDARD.);
#1300=IFCAXIS2PLACEMENT3D(#262,#15,#388);
#1301=IFCLOCALPLACEMENT(#26,#1300);
#1302=IFCRECTANGLEPROFILEDEF(.AREA.,$,#821,1.88,0.25);
#1303=IFCEXTRUDEDAREASOLID(#1302,#17,#15,12.);
#1304=IFCPOLYLINE((#371,#824));
#1305=IFCSHAPEREPRESENTATION(#18,'Axis','Curve2D',(#1304));
#1306=IFCSHAPEREPRESENTATION(#18,'Body','SweptSolid',(#1303));
#1307=IFCPRODUCTDEFINITIONSHAPE($,$,(#1305,#1306));
#1308=IFCWALL('3bO0C7HZPPA2II4YqEyrOu',#5,'bld_0.flr_0.ops.meeting_room.wall_W',$,$,#1301,#1307,$,.STANDARD.);
#1309=IFCCARTESIANPOINT((30.,11.25,0.));
#1310=IFCAXIS2PLACEMENT3D(#1309,#15,#388);
#1311=IFCLOCALPLACEMENT(#26,#1310);
#1312=IFCRECTANGLEPROFILEDEF(.AREA.,$,#821,1.88,0.25);
#1313=IFCEXTRUDEDAREASOLID(#1312,#17,#15,12.);
#1314=IFCPOLYLINE((#371,#824));
#1315=IFCSHAPEREPRESENTATION(#18,'Axis','Curve2D',(#1314));
#1316=IFCSHAPEREPRESENTATION(#18,'Body','SweptSolid',(#1313));
#1317=IFCPRODUCTDEFINITIONSHAPE($,$,(#1315,#1316));
#1318=IFCWALL('1OSkghJF9nANl0fLIZDxgV',#5,'bld_0.flr_0.ops.meeting_room.wall_E',$,$,#1311,#1317,$,.STANDARD.);
#1319=IFCLOCALPLACEMENT(#26,#271);
#1320=IFCRECTANGLEPROFILEDEF(.AREA.,$,#412,6.99,0.25);
#1321=IFCEXTRUDEDAREASOLID(#1320,#17,#15,12.);
#1322=IFCPOLYLINE((#371,#415));
#1323=IFCSHAPEREPRESENTATION(#18,'Axis','Curve2D',(#1322));
#1324=IFCSHAPEREPRESENTATION(#18,'Body','SweptSolid',(#1321));
#1325=IFCPRODUCTDEFINITIONSHAPE($,$,(#1323,#1324));
#1326=IFCWALL('2l9JC12kol5tkuZrve9_um',#5,'bld_0.flr_0.ops.outbound_docks.wall_N',$,$,#1319,#1325,$,.STANDARD.);
#1327=IFCCARTESIANPOINT((23.01,25.,0.));
#1328=IFCAXIS2PLACEMENT3D(#1327,#15,#16);
#1329=IFCLOCALPLACEMENT(#26,#1328);
#1330=IFCRECTANGLEPROFILEDEF(.AREA.,$,#412,6.99,0.25);
#1331=IFCEXTRUDEDAREASOLID(#1330,#17,#15,12.);
#1332=IFCPOLYLINE((#371,#415));
#1333=IFCSHAPEREPRESENTATION(#18,'Axis','Curve2D',(#1332));
#1334=IFCSHAPEREPRESENTATION(#18,'Body','SweptSolid',(#1331));
#1335=IFCPRODUCTDEFINITIONSHAPE($,$,(#1333,#1334));
#1336=IFCWALL('1LtU2CXtmguaKls6eswiDI',#5,'bld_0.flr_0.ops.outbound_docks.wall_S',$,$,#1329,#1335,$,.STANDARD.);
#1337=IFCAXIS2PLACEMENT3D(#270,#15,#388);
#1338=IFCLOCALPLACEMENT(#26,#1337);
#1339=IFCRECTANGLEPROFILEDEF(.AREA.,$,#672,2.19,0.25);
#1340=IFCEXTRUDEDAREASOLID(#1339,#17,#15,12.);
#1341=IFCPOLYLINE((#371,#675));
#1342=IFCSHAPEREPRESENTATION(#18,'Axis','Curve2D',(#1341));
#1343=IFCSHAPEREPRESENTATION(#18,'Body','SweptSolid',(#1340));
#1344=IFCPRODUCTDEFINITIONSHAPE($,$,(#1342,#1343));
#1345=IFCWALL('1awsQwRXHkWZtdNoLbcDIT',#5,'bld_0.flr_0.ops.outbound_docks.wall_W',$,$,#1338,#1344,$,.STANDARD.);
#1346=IFCCARTESIANPOINT((30.,22.81,0.));
#1347=IFCAXIS2PLACEMENT3D(#1346,#15,#388);
#1348=IFCLOCALPLACEMENT(#26,#1347);
#1349=IFCRECTANGLEPROFILEDEF(.AREA.,$,#672,2.19,0.25);
#1350=IFCEXTRUDEDAREASOLID(#1349,#17,#15,12.);
#1351=IFCPOLYLINE((#371,#675));
#1352=IFCSHAPEREPRESENTATION(#18,'Axis','Curve2D',(#1351));
#1353=IFCSHAPEREPRESENTATION(#18,'Body','SweptSolid',(#1350));
#1354=IFCPRODUCTDEFINITIONSHAPE($,$,(#1352,#1353));
#1355=IFCWALL('0z4GVOqPNdPGrXvj3DjSr_',#5,'bld_0.flr_0.ops.outbound_docks.wall_E',$,$,#1348,#1354,$,.STANDARD.);
#1356=IFCLOCALPLACEMENT(#26,#281);
#1357=IFCAXIS2PLACEMENT2D(#989,#33);
#1358=IFCRECTANGLEPROFILEDEF(.AREA.,$,#1357,7.98,0.25);
#1359=IFCEXTRUDEDAREASOLID(#1358,#17,#15,12.);
#1360=IFCCARTESIANPOINT((7.98,0.));
#1361=IFCPOLYLINE((#371,#1360));
#1362=IFCSHAPEREPRESENTATION(#18,'Axis','Curve2D',(#1361));
#1363=IFCSHAPEREPRESENTATION(#18,'Body','SweptSolid',(#1359));
#1364=IFCPRODUCTDEFINITIONSHAPE($,$,(#1362,#1363));
#1365=IFCWALL('0QOMAD6w7LTu0lEaWWCa5U',#5,'bld_0.flr_0.ops.packing.wall_N',$,$,#1356,#1364,$,.STANDARD.);
#1366=IFCLOCALPLACEMENT(#26,#111);
#1367=IFCRECTANGLEPROFILEDEF(.AREA.,$,#1357,7.98,0.25);
#1368=IFCEXTRUDEDAREASOLID(#1367,#17,#15,12.);
#1369=IFCPOLYLINE((#371,#1360));
#1370=IFCSHAPEREPRESENTATION(#18,'Axis','Curve2D',(#1369));
#1371=IFCSHAPEREPRESENTATION(#18,'Body','SweptSolid',(#1368));
#1372=IFCPRODUCTDEFINITIONSHAPE($,$,(#1370,#1371));
#1373=IFCWALL('37pwDwlAgqaMe67uTyEgW4',#5,'bld_0.flr_0.ops.packing.wall_S',$,$,#1366,#1372,$,.STANDARD.);
#1374=IFCAXIS2PLACEMENT3D(#280,#15,#388);
#1375=IFCLOCALPLACEMENT(#26,#1374);
#1376=IFCRECTANGLEPROFILEDEF(.AREA.,$,#434,2.81,0.25);
#1377=IFCEXTRUDEDAREASOLID(#1376,#17,#15,12.);
#1378=IFCPOLYLINE((#371,#437));
#1379=IFCSHAPEREPRESENTATION(#18,'Axis','Curve2D',(#1378));
#1380=IFCSHAPEREPRESENTATION(#18,'Body','SweptSolid',(#1377));
#1381=IFCPRODUCTDEFINITIONSHAPE($,$,(#1379,#1380));
#1382=IFCWALL('3p_UvLkNZUE05fFZOCw9tN',#5,'bld_0.flr_0.ops.packing.wall_W',$,$,#1375,#1381,$,.STANDARD.);
#1383=IFCLOCALPLACEMENT(#26,#1079);
#1384=IFCRECTANGLEPROFILEDEF(.AREA.,$,#434,2.81,0.25);
#1385=IFCEXTRUDEDAREASOLID(#1384,#17,#15,12.);
#1386=IFCPOLYLINE((#371,#437));
#1387=IFCSHAPEREPRESENTATION(#18,'Axis','Curve2D',(#1386));
#1388=IFCSHAPEREPRESENTATION(#18,'Body','SweptSolid',(#1385));
#1389=IFCPRODUCTDEFINITIONSHAPE($,$,(#1387,#1388));
#1390=IFCWALL('15a$ROf1G5YharxPR_zx3N',#5,'bld_0.flr_0.ops.packing.wall_E',$,$,#1383,#1389,$,.STANDARD.);
#1391=IFCLOCALPLACEMENT(#26,#291);
#1392=IFCCARTESIANPOINT((1.5,0.));
#1393=IFCAXIS2PLACEMENT2D(#1392,#33);
#1394=IFCRECTANGLEPROFILEDEF(.AREA.,$,#1393,3.,0.25);
#1395=IFCEXTRUDEDAREASOLID(#1394,#17,#15,12.);
#1396=IFCPOLYLINE((#371,#453));
#1397=IFCSHAPEREPRESENTATION(#18,'Axis','Curve2D',(#1396));
#1398=IFCSHAPEREPRESENTATION(#18,'Body','SweptSolid',(#1395));
#1399=IFCPRODUCTDEFINITIONSHAPE($,$,(#1397,#1398));
#1400=IFCWALL('0G888$ELe8uqzf3DwJm42X',#5,'bld_0.flr_0.ops.pallet_wrapping.wall_N',$,$,#1391,#1399,$,.STANDARD.);
#1401=IFCCARTESIANPOINT((20.01,25.,0.));
#1402=IFCAXIS2PLACEMENT3D(#1401,#15,#16);
#1403=IFCLOCALPLACEMENT(#26,#1402);
#1404=IFCRECTANGLEPROFILEDEF(.AREA.,$,#1393,3.,0.25);
#1405=IFCEXTRUDEDAREASOLID(#1404,#17,#15,12.);
#1406=IFCPOLYLINE((#371,#453));
#1407=IFCSHAPEREPRESENTATION(#18,'Axis','Curve2D',(#1406));
#1408=IFCSHAPEREPRESENTATION(#18,'Body','SweptSolid',(#1405));
#1409=IFCPRODUCTDEFINITIONSHAPE($,$,(#1407,#1408));
#1410=IFCWALL('37966XqLQjaD$qe2hAqzDb',#5,'bld_0.flr_0.ops.pallet_wrapping.wall_S',$,$,#1403,#1409,$,.STANDARD.);
#1411=IFCLOCALPLACEMENT(#26,#1124);
#1412=IFCRECTANGLEPROFILEDEF(.AREA.,$,#672,2.19,0.25);
#1413=IFCEXTRUDEDAREASOLID(#1412,#17,#15,12.);
#1414=IFCPOLYLINE((#371,#675));
#1415=IFCSHAPEREPRESENTATION(#18,'Axis','Curve2D',(#1414));
#1416=IFCSHAPEREPRESENTATION(#18,'Body','SweptSolid',(#1413));
#1417=IFCPRODUCTDEFINITIONSHAPE($,$,(#1415,#1416));
#1418=IFCWALL('2R_qm4n7G4CM6mttrMfZwX',#5,'bld_0.flr_0.ops.pallet_wrapping.wall_W',$,$,#1411,#1417,$,.STANDARD.);
#1419=IFCLOCALPLACEMENT(#26,#1337);
#1420=IFCRECTANGLEPROFILEDEF(.AREA.,$,#672,2.19,0.25);
#1421=IFCEXTRUDEDAREASOLID(#1420,#17,#15,12.);
#1422=IFCPOLYLINE((#371,#675));
#1423=IFCSHAPEREPRESENTATION(#18,'Axis','Curve2D',(#1422));
#1424=IFCSHAPEREPRESENTATION(#18,'Body','SweptSolid',(#1421));
#1425=IFCPRODUCTDEFINITIONSHAPE($,$,(#1423,#1424));
#1426=IFCWALL('0X0dL3RXNe$LPKc_tWVbe_',#5,'bld_0.flr_0.ops.pallet_wrapping.wall_E',$,$,#1419,#1425,$,.STANDARD.);
#1427=IFCLOCALPLACEMENT(#26,#301);
#1428=IFCCARTESIANPOINT((3.255,0.));
#1429=IFCAXIS2PLACEMENT2D(#1428,#33);
#1430=IFCRECTANGLEPROFILEDEF(.AREA.,$,#1429,6.51,0.25);
#1431=IFCEXTRUDEDAREASOLID(#1430,#17,#15,12.);
#1432=IFCCARTESIANPOINT((6.51,0.));
#1433=IFCPOLYLINE((#371,#1432));
#1434=IFCSHAPEREPRESENTATION(#18,'Axis','Curve2D',(#1433));
#1435=IFCSHAPEREPRESENTATION(#18,'Body','SweptSolid',(#1431));
#1436=IFCPRODUCTDEFINITIONSHAPE($,$,(#1434,#1435));
#1437=IFCWALL('2oRjPWORwGXBC0ZoPYEZpr',#5,'bld_0.flr_0.ops.qc_inspection.wall_N',$,$,#1427,#1436,$,.STANDARD.);
#1438=IFCCARTESIANPOINT((12.99,4.69,0.));
#1439=IFCAXIS2PLACEMENT3D(#1438,#15,#16);
#1440=IFCLOCALPLACEMENT(#26,#1439);
#1441=IFCRECTANGLEPROFILEDEF(.AREA.,$,#1429,6.51,0.25);
#1442=IFCEXTRUDEDAREASOLID(#1441,#17,#15,12.);
#1443=IFCPOLYLINE((#371,#1432));
#1444=IFCSHAPEREPRESENTATION(#18,'Axis','Curve2D',(#1443));
#1445=IFCSHAPEREPRESENTATION(#18,'Body','SweptSolid',(#1442));
#1446=IFCPRODUCTDEFINITIONSHAPE($,$,(#1444,#1445));
#1447=IFCWALL('0rsptyR2y2ROFOwxp8eYLm',#5,'bld_0.flr_0.ops.qc_inspection.wall_S',$,$,#1440,#1446,$,.STANDARD.);
#1448=IFCLOCALPLACEMENT(#26,#938);
#1449=IFCRECTANGLEPROFILEDEF(.AREA.,$,#629,4.69,0.25);
#1450=IFCEXTRUDEDAREASOLID(#1449,#17,#15,12.);
#1451=IFCPOLYLINE((#371,#632));
#1452=IFCSHAPEREPRESENTATION(#18,'Axis','Curve2D',(#1451));
#1453=IFCSHAPEREPRESENTATION(#18,'Body','SweptSolid',(#1450));
#1454=IFCPRODUCTDEFINITIONSHAPE($,$,(#1452,#1453));
#1455=IFCWALL('3F0cbPWJNhWUs6BvHZSUtM',#5,'bld_0.flr_0.ops.qc_inspection.wall_W',$,$,#1448,#1454,$,.STANDARD.);
#1456=IFCLOCALPLACEMENT(#26,#626);
#1457=IFCRECTANGLEPROFILEDEF(.AREA.,$,#629,4.69,0.25);
#1458=IFCEXTRUDEDAREASOLID(#1457,#17,#15,12.);
#1459=IFCPOLYLINE((#371,#632));
#1460=IFCSHAPEREPRESENTATION(#18,'Axis','Curve2D',(#1459));
#1461=IFCSHAPEREPRESENTATION(#18,'Body','SweptSolid',(#1458));
#1462=IFCPRODUCTDEFINITIONSHAPE($,$,(#1460,#1461));
#1463=IFCWALL('0QaOQD3JPUjztYInpN0v1B',#5,'bld_0.flr_0.ops.qc_inspection.wall_E',$,$,#1456,#1462,$,.STANDARD.);
#1464=IFCLOCALPLACEMENT(#26,#311);
#1465=IFCCARTESIANPOINT((2.,0.));
#1466=IFCAXIS2PLACEMENT2D(#1465,#33);
#1467=IFCRECTANGLEPROFILEDEF(.AREA.,$,#1466,4.,0.25);
#1468=IFCEXTRUDEDAREASOLID(#1467,#17,#15,12.);
#1469=IFCCARTESIANPOINT((4.,0.));
#1470=IFCPOLYLINE((#371,#1469));
#1471=IFCSHAPEREPRESENTATION(#18,'Axis','Curve2D',(#1470));
#1472=IFCSHAPEREPRESENTATION(#18,'Body','SweptSolid',(#1468));
#1473=IFCPRODUCTDEFINITIONSHAPE($,$,(#1471,#1472));
#1474=IFCWALL('3menBpdrtqair1g0T7f1YE',#5,'bld_0.flr_0.ops.replen_aisle_main.wall_N',$,$,#1464,#1473,$,.STANDARD.);
#1475=IFCCARTESIANPOINT((24.45,16.88,0.));
#1476=IFCAXIS2PLACEMENT3D(#1475,#15,#16);
#1477=IFCLOCALPLACEMENT(#26,#1476);
#1478=IFCRECTANGLEPROFILEDEF(.AREA.,$,#1466,4.,0.25);
#1479=IFCEXTRUDEDAREASOLID(#1478,#17,#15,12.);
#1480=IFCPOLYLINE((#371,#1469));
#1481=IFCSHAPEREPRESENTATION(#18,'Axis','Curve2D',(#1480));
#1482=IFCSHAPEREPRESENTATION(#18,'Body','SweptSolid',(#1479));
#1483=IFCPRODUCTDEFINITIONSHAPE($,$,(#1481,#1482));
#1484=IFCWALL('1aO6XdDm1nVhSuB6xGp3Xa',#5,'bld_0.flr_0.ops.replen_aisle_main.wall_S',$,$,#1477,#1483,$,.STANDARD.);
#1485=IFCLOCALPLACEMENT(#26,#869);
#1486=IFCRECTANGLEPROFILEDEF(.AREA.,$,#514,10.,0.25);
#1487=IFCEXTRUDEDAREASOLID(#1486,#17,#15,12.);
#1488=IFCPOLYLINE((#371,#517));
#1489=IFCSHAPEREPRESENTATION(#18,'Axis','Curve2D',(#1488));
#1490=IFCSHAPEREPRESENTATION(#18,'Body','SweptSolid',(#1487));
#1491=IFCPRODUCTDEFINITIONSHAPE($,$,(#1489,#1490));
#1492=IFCWALL('0vENchZUvjbtOwygEVSTeJ',#5,'bld_0.flr_0.ops.replen_aisle_main.wall_W',$,$,#1485,#1491,$,.STANDARD.);
#1493=IFCCARTESIANPOINT((28.45,6.88,0.));
#1494=IFCAXIS2PLACEMENT3D(#1493,#15,#388);
#1495=IFCLOCALPLACEMENT(#26,#1494);
#1496=IFCRECTANGLEPROFILEDEF(.AREA.,$,#514,10.,0.25);
#1497=IFCEXTRUDEDAREASOLID(#1496,#17,#15,12.);
#1498=IFCPOLYLINE((#371,#517));
#1499=IFCSHAPEREPRESENTATION(#18,'Axis','Curve2D',(#1498));
#1500=IFCSHAPEREPRESENTATION(#18,'Body','SweptSolid',(#1497));
#1501=IFCPRODUCTDEFINITIONSHAPE($,$,(#1499,#1500));
#1502=IFCWALL('2ep2xSoIxePcvYKiA7rikg',#5,'bld_0.flr_0.ops.replen_aisle_main.wall_E',$,$,#1495,#1501,$,.STANDARD.);
#1503=IFCLOCALPLACEMENT(#26,#321);
#1504=IFCRECTANGLEPROFILEDEF(.AREA.,$,#1429,6.51,0.25);
#1505=IFCEXTRUDEDAREASOLID(#1504,#17,#15,12.);
#1506=IFCPOLYLINE((#371,#1432));
#1507=IFCSHAPEREPRESENTATION(#18,'Axis','Curve2D',(#1506));
#1508=IFCSHAPEREPRESENTATION(#18,'Body','SweptSolid',(#1505));
#1509=IFCPRODUCTDEFINITIONSHAPE($,$,(#1507,#1508));
#1510=IFCWALL('0HkzdZkFnFplPpLXyOLboW',#5,'bld_0.flr_0.ops.replenishment.wall_N',$,$,#1503,#1509,$,.STANDARD.);
#1511=IFCCARTESIANPOINT((19.5,6.88,0.));
#1512=IFCAXIS2PLACEMENT3D(#1511,#15,#16);
#1513=IFCLOCALPLACEMENT(#26,#1512);
#1514=IFCRECTANGLEPROFILEDEF(.AREA.,$,#1429,6.51,0.25);
#1515=IFCEXTRUDEDAREASOLID(#1514,#17,#15,12.);
#1516=IFCPOLYLINE((#371,#1432));
#1517=IFCSHAPEREPRESENTATION(#18,'Axis','Curve2D',(#1516));
#1518=IFCSHAPEREPRESENTATION(#18,'Body','SweptSolid',(#1515));
#1519=IFCPRODUCTDEFINITIONSHAPE($,$,(#1517,#1518));
#1520=IFCWALL('0S_bb4byd9NsmQjNrK5NlX',#5,'bld_0.flr_0.ops.replenishment.wall_S',$,$,#1513,#1519,$,.STANDARD.);
#1521=IFCLOCALPLACEMENT(#26,#975);
#1522=IFCRECTANGLEPROFILEDEF(.AREA.,$,#672,2.19,0.25);
#1523=IFCEXTRUDEDAREASOLID(#1522,#17,#15,12.);
#1524=IFCPOLYLINE((#371,#675));
#1525=IFCSHAPEREPRESENTATION(#18,'Axis','Curve2D',(#1524));
#1526=IFCSHAPEREPRESENTATION(#18,'Body','SweptSolid',(#1523));
#1527=IFCPRODUCTDEFINITIONSHAPE($,$,(#1525,#1526));
#1528=IFCWALL('2T7ORfDnsy9T05_rncfu2P',#5,'bld_0.flr_0.ops.replenishment.wall_W',$,$,#1521,#1527,$,.STANDARD.);
#1529=IFCLOCALPLACEMENT(#26,#1189);
#1530=IFCRECTANGLEPROFILEDEF(.AREA.,$,#672,2.19,0.25);
#1531=IFCEXTRUDEDAREASOLID(#1530,#17,#15,12.);
#1532=IFCPOLYLINE((#371,#675));
#1533=IFCSHAPEREPRESENTATION(#18,'Axis','Curve2D',(#1532));
#1534=IFCSHAPEREPRESENTATION(#18,'Body','SweptSolid',(#1531));
#1535=IFCPRODUCTDEFINITIONSHAPE($,$,(#1533,#1534));
#1536=IFCWALL('3MVfA14bV_6KioWnkpnVhZ',#5,'bld_0.flr_0.ops.replenishment.wall_E',$,$,#1529,#1535,$,.STANDARD.);
#1537=IFCLOCALPLACEMENT(#26,#331);
#1538=IFCRECTANGLEPROFILEDEF(.AREA.,$,#986,3.99,0.25);
#1539=IFCEXTRUDEDAREASOLID(#1538,#17,#15,12.);
#1540=IFCPOLYLINE((#371,#989));
#1541=IFCSHAPEREPRESENTATION(#18,'Axis','Curve2D',(#1540));
#1542=IFCSHAPEREPRESENTATION(#18,'Body','SweptSolid',(#1539));
#1543=IFCPRODUCTDEFINITIONSHAPE($,$,(#1541,#1542));
#1544=IFCWALL('1ND68bkabNzyDh77RGo9EZ',#5,'bld_0.flr_0.ops.rest_area.wall_N',$,$,#1537,#1543,$,.STANDARD.);
#1545=IFCCARTESIANPOINT((26.01,15.32,0.));
#1546=IFCAXIS2PLACEMENT3D(#1545,#15,#16);
#1547=IFCLOCALPLACEMENT(#26,#1546);
#1548=IFCRECTANGLEPROFILEDEF(.AREA.,$,#986,3.99,0.25);
#1549=IFCEXTRUDEDAREASOLID(#1548,#17,#15,12.);
#1550=IFCPOLYLINE((#371,#989));
#1551=IFCSHAPEREPRESENTATION(#18,'Axis','Curve2D',(#1550));
#1552=IFCSHAPEREPRESENTATION(#18,'Body','SweptSolid',(#1549));
#1553=IFCPRODUCTDEFINITIONSHAPE($,$,(#1551,#1552));
#1554=IFCWALL('10382UnFBMdIOgBs1xnLIf',#5,'bld_0.flr_0.ops.rest_area.wall_S',$,$,#1547,#1553,$,.STANDARD.);
#1555=IFCAXIS2PLACEMENT3D(#330,#15,#388);
#1556=IFCLOCALPLACEMENT(#26,#1555);
#1557=IFCRECTANGLEPROFILEDEF(.AREA.,$,#672,2.19,0.25);
#1558=IFCEXTRUDEDAREASOLID(#1557,#17,#15,12.);
#1559=IFCPOLYLINE((#371,#675));
#1560=IFCSHAPEREPRESENTATION(#18,'Axis','Curve2D',(#1559));
#1561=IFCSHAPEREPRESENTATION(#18,'Body','SweptSolid',(#1558));
#1562=IFCPRODUCTDEFINITIONSHAPE($,$,(#1560,#1561));
#1563=IFCWALL('3KEsxozvQoWjUQBmecVlDL',#5,'bld_0.flr_0.ops.rest_area.wall_W',$,$,#1556,#1562,$,.STANDARD.);
#1564=IFCCARTESIANPOINT((30.,13.13,0.));
#1565=IFCAXIS2PLACEMENT3D(#1564,#15,#388);
#1566=IFCLOCALPLACEMENT(#26,#1565);
#1567=IFCRECTANGLEPROFILEDEF(.AREA.,$,#672,2.19,0.25);
#1568=IFCEXTRUDEDAREASOLID(#1567,#17,#15,12.);
#1569=IFCPOLYLINE((#371,#675));
#1570=IFCSHAPEREPRESENTATION(#18,'Axis','Curve2D',(#1569));
#1571=IFCSHAPEREPRESENTATION(#18,'Body','SweptSolid',(#1568));
#1572=IFCPRODUCTDEFINITIONSHAPE($,$,(#1570,#1571));
#1573=IFCWALL('319ey_Sc5vDb9ong9fEkD$',#5,'bld_0.flr_0.ops.rest_area.wall_E',$,$,#1566,#1572,$,.STANDARD.);
#1574=IFCLOCALPLACEMENT(#26,#339);
#1575=IFCRECTANGLEPROFILEDEF(.AREA.,$,#1393,3.,0.25);
#1576=IFCEXTRUDEDAREASOLID(#1575,#17,#15,12.);
#1577=IFCPOLYLINE((#371,#453));
#1578=IFCSHAPEREPRESENTATION(#18,'Axis','Curve2D',(#1577));
#1579=IFCSHAPEREPRESENTATION(#18,'Body','SweptSolid',(#1576));
#1580=IFCPRODUCTDEFINITIONSHAPE($,$,(#1578,#1579));
#1581=IFCWALL('1m_ccXJbViX$scO_pJpWXR',#5,'bld_0.flr_0.ops.void_fill.wall_N',$,$,#1574,#1580,$,.STANDARD.);
#1582=IFCCARTESIANPOINT((12.,22.81,0.));
#1583=IFCAXIS2PLACEMENT3D(#1582,#15,#16);
#1584=IFCLOCALPLACEMENT(#26,#1583);
#1585=IFCRECTANGLEPROFILEDEF(.AREA.,$,#1393,3.,0.25);
#1586=IFCEXTRUDEDAREASOLID(#1585,#17,#15,12.);
#1587=IFCPOLYLINE((#371,#453));
#1588=IFCSHAPEREPRESENTATION(#18,'Axis','Curve2D',(#1587));
#1589=IFCSHAPEREPRESENTATION(#18,'Body','SweptSolid',(#1586));
#1590=IFCPRODUCTDEFINITIONSHAPE($,$,(#1588,#1589));
#1591=IFCWALL('0XQRXMW_10$HRdqQy6Brux',#5,'bld_0.flr_0.ops.void_fill.wall_S',$,$,#1584,#1590,$,.STANDARD.);
#1592=IFCAXIS2PLACEMENT3D(#338,#15,#388);
#1593=IFCLOCALPLACEMENT(#26,#1592);
#1594=IFCRECTANGLEPROFILEDEF(.AREA.,$,#434,2.81,0.25);
#1595=IFCEXTRUDEDAREASOLID(#1594,#17,#15,12.);
#1596=IFCPOLYLINE((#371,#437));
#1597=IFCSHAPEREPRESENTATION(#18,'Axis','Curve2D',(#1596));
#1598=IFCSHAPEREPRESENTATION(#18,'Body','SweptSolid',(#1595));
#1599=IFCPRODUCTDEFINITIONSHAPE($,$,(#1597,#1598));
#1600=IFCWALL('03ZyTJMqP7QNBSMHmsOIT1',#5,'bld_0.flr_0.ops.void_fill.wall_W',$,$,#1593,#1599,$,.STANDARD.);
#1601=IFCLOCALPLACEMENT(#26,#590);
#1602=IFCRECTANGLEPROFILEDEF(.AREA.,$,#434,2.81,0.25);
#1603=IFCEXTRUDEDAREASOLID(#1602,#17,#15,12.);
#1604=IFCPOLYLINE((#371,#437));
#1605=IFCSHAPEREPRESENTATION(#18,'Axis','Curve2D',(#1604));
#1606=IFCSHAPEREPRESENTATION(#18,'Body','SweptSolid',(#1603));
#1607=IFCPRODUCTDEFINITIONSHAPE($,$,(#1605,#1606));
#1608=IFCWALL('0qjFiF155pWelWLKVazMuR',#5,'bld_0.flr_0.ops.void_fill.wall_E',$,$,#1601,#1607,$,.STANDARD.);
#1609=IFCLOCALPLACEMENT(#26,#349);
#1610=IFCRECTANGLEPROFILEDEF(.AREA.,$,#454,6.,0.25);
#1611=IFCEXTRUDEDAREASOLID(#1610,#17,#15,12.);
#1612=IFCPOLYLINE((#371,#457));
#1613=IFCSHAPEREPRESENTATION(#18,'Axis','Curve2D',(#1612));
#1614=IFCSHAPEREPRESENTATION(#18,'Body','SweptSolid',(#1611));
#1615=IFCPRODUCTDEFINITIONSHAPE($,$,(#1613,#1614));
#1616=IFCWALL('3A86UvEJfwfUcS9X9S4yUa',#5,'bld_0.flr_0.ops.wave_picking.wall_N',$,$,#1609,#1615,$,.STANDARD.);
#1617=IFCCARTESIANPOINT((6.,20.01,0.));
#1618=IFCAXIS2PLACEMENT3D(#1617,#15,#16);
#1619=IFCLOCALPLACEMENT(#26,#1618);
#1620=IFCRECTANGLEPROFILEDEF(.AREA.,$,#454,6.,0.25);
#1621=IFCEXTRUDEDAREASOLID(#1620,#17,#15,12.);
#1622=IFCPOLYLINE((#371,#457));
#1623=IFCSHAPEREPRESENTATION(#18,'Axis','Curve2D',(#1622));
#1624=IFCSHAPEREPRESENTATION(#18,'Body','SweptSolid',(#1621));
#1625=IFCPRODUCTDEFINITIONSHAPE($,$,(#1623,#1624));
#1626=IFCWALL('1SHIQjCwpRXyGVMyvBTeBR',#5,'bld_0.flr_0.ops.wave_picking.wall_S',$,$,#1619,#1625,$,.STANDARD.);
#1627=IFCLOCALPLACEMENT(#26,#482);
#1628=IFCRECTANGLEPROFILEDEF(.AREA.,$,#392,3.13,0.25);
#1629=IFCEXTRUDEDAREASOLID(#1628,#17,#15,12.);
#1630=IFCPOLYLINE((#371,#395));
#1631=IFCSHAPEREPRESENTATION(#18,'Axis','Curve2D',(#1630));
#1632=IFCSHAPEREPRESENTATION(#18,'Body','SweptSolid',(#1629));
#1633=IFCPRODUCTDEFINITIONSHAPE($,$,(#1631,#1632));
#1634=IFCWALL('3KBMDTq55gC3j8O4gQUfA3',#5,'bld_0.flr_0.ops.wave_picking.wall_W',$,$,#1627,#1633,$,.STANDARD.);
#1635=IFCAXIS2PLACEMENT3D(#356,#15,#388);
#1636=IFCLOCALPLACEMENT(#26,#1635);
#1637=IFCRECTANGLEPROFILEDEF(.AREA.,$,#392,3.13,0.25);
#1638=IFCEXTRUDEDAREASOLID(#1637,#17,#15,12.);
#1639=IFCPOLYLINE((#371,#395));
#1640=IFCSHAPEREPRESENTATION(#18,'Axis','Curve2D',(#1639));
#1641=IFCSHAPEREPRESENTATION(#18,'Body','SweptSolid',(#1638));
#1642=IFCPRODUCTDEFINITIONSHAPE($,$,(#1640,#1641));
#1643=IFCWALL('3fOs$w$WLQQqlKdg1y3cUk',#5,'bld_0.flr_0.ops.wave_picking.wall_E',$,$,#1636,#1642,$,.STANDARD.);
#1644=IFCLOCALPLACEMENT(#26,#357);
#1645=IFCRECTANGLEPROFILEDEF(.AREA.,$,#1429,6.51,0.25);
#1646=IFCEXTRUDEDAREASOLID(#1645,#17,#15,12.);
#1647=IFCPOLYLINE((#371,#1432));
#1648=IFCSHAPEREPRESENTATION(#18,'Axis','Curve2D',(#1647));
#1649=IFCSHAPEREPRESENTATION(#18,'Body','SweptSolid',(#1646));
#1650=IFCPRODUCTDEFINITIONSHAPE($,$,(#1648,#1649));
#1651=IFCWALL('0dOXR0sn1OhWauR4Wv2UKw',#5,'bld_0.flr_0.ops.zone_picking.wall_N',$,$,#1644,#1650,$,.STANDARD.);
#1652=IFCCARTESIANPOINT((12.,20.01,0.));
#1653=IFCAXIS2PLACEMENT3D(#1652,#15,#16);
#1654=IFCLOCALPLACEMENT(#26,#1653);
#1655=IFCRECTANGLEPROFILEDEF(.AREA.,$,#1429,6.51,0.25);
#1656=IFCEXTRUDEDAREASOLID(#1655,#17,#15,12.);
#1657=IFCPOLYLINE((#371,#1432));
#1658=IFCSHAPEREPRESENTATION(#18,'Axis','Curve2D',(#1657));
#1659=IFCSHAPEREPRESENTATION(#18,'Body','SweptSolid',(#1656));
#1660=IFCPRODUCTDEFINITIONSHAPE($,$,(#1658,#1659));
#1661=IFCWALL('0XJIN0ohBvUN0R2YcUyTE5',#5,'bld_0.flr_0.ops.zone_picking.wall_S',$,$,#1654,#1660,$,.STANDARD.);
#1662=IFCLOCALPLACEMENT(#26,#1635);
#1663=IFCRECTANGLEPROFILEDEF(.AREA.,$,#392,3.13,0.25);
#1664=IFCEXTRUDEDAREASOLID(#1663,#17,#15,12.);
#1665=IFCPOLYLINE((#371,#395));
#1666=IFCSHAPEREPRESENTATION(#18,'Axis','Curve2D',(#1665));
#1667=IFCSHAPEREPRESENTATION(#18,'Body','SweptSolid',(#1664));
#1668=IFCPRODUCTDEFINITIONSHAPE($,$,(#1666,#1667));
#1669=IFCWALL('0lTGjnFufqym_zy79tQ44m',#5,'bld_0.flr_0.ops.zone_picking.wall_W',$,$,#1662,#1668,$,.STANDARD.);
#1670=IFCLOCALPLACEMENT(#26,#389);
#1671=IFCRECTANGLEPROFILEDEF(.AREA.,$,#392,3.13,0.25);
#1672=IFCEXTRUDEDAREASOLID(#1671,#17,#15,12.);
#1673=IFCPOLYLINE((#371,#395));
#1674=IFCSHAPEREPRESENTATION(#18,'Axis','Curve2D',(#1673));
#1675=IFCSHAPEREPRESENTATION(#18,'Body','SweptSolid',(#1672));
#1676=IFCPRODUCTDEFINITIONSHAPE($,$,(#1674,#1675));
#1677=IFCWALL('2FUEtXumoFnyUd2yppAifu',#5,'bld_0.flr_0.ops.zone_picking.wall_E',$,$,#1670,#1676,$,.STANDARD.);
#1678=IFCLOCALPLACEMENT(#26,#17);
#1679=IFCRECTANGLEPROFILEDEF(.AREA.,$,#130,30.,25.);
#1680=IFCCARTESIANPOINT((0.,0.,-0.2));
#1681=IFCAXIS2PLACEMENT3D(#1680,#15,#16);
#1682=IFCEXTRUDEDAREASOLID(#1679,#1681,#15,0.2);
#1683=IFCSHAPEREPRESENTATION(#18,'Body','SweptSolid',(#1682));
#1684=IFCPRODUCTDEFINITIONSHAPE($,$,(#1683));
#1685=IFCSLAB('1kt1rO8tzvr8ytNw3rQyVB',#5,'bld_0.flr_0.slab',$,$,#1678,#1684,$,.FLOOR.);
#1686=IFCCARTESIANPOINT((26.01,8.13,0.));
#1687=IFCAXIS2PLACEMENT3D(#1686,#15,#388);
#1688=IFCLOCALPLACEMENT(#26,#1687);
#1689=IFCAXIS2PLACEMENT2D(#371,#33);
#1690=IFCRECTANGLEPROFILEDEF(.AREA.,$,#1689,1.,0.3);
#1691=IFCEXTRUDEDAREASOLID(#1690,#17,#15,2.1);
#1692=IFCSHAPEREPRESENTATION(#18,'Body','SweptSolid',(#1691));
#1693=IFCPRODUCTDEFINITIONSHAPE($,$,(#1692));
#1694=IFCLOCALPLACEMENT(#26,#1687);
#1695=IFCOPENINGELEMENT('28VCwD7IYug$yBQyxzFy2O',#5,'bld_0.flr_0.ops.inventory_office.door_0:void',$,$,#1694,#1693,$,.OPENING.);
#1696=IFCRELVOIDSELEMENT('1Q2E9p$JHEdUoxPd2grO93',#5,$,$,#1013,#1695);
#1697=IFCDOOR('1Lq3X4LZHnFLLMIG1ExIf4',#5,'bld_0.flr_0.ops.inventory_office.door_0',$,$,#1688,#1693,$,2.1,1.,$,$,$);
#1698=IFCRELFILLSELEMENT('0uJvg0XUo8KMP6pRSfCYoA',#5,$,$,#1695,#1697);
#1699=IFCCARTESIANPOINT((26.01,10.3175,0.));
#1700=IFCAXIS2PLACEMENT3D(#1699,#15,#388);
#1701=IFCLOCALPLACEMENT(#26,#1700);
#1702=IFCRECTANGLEPROFILEDEF(.AREA.,$,#1689,1.,0.3);
#1703=IFCEXTRUDEDAREASOLID(#1702,#17,#15,2.1);
#1704=IFCSHAPEREPRESENTATION(#18,'Body','SweptSolid',(#1703));
#1705=IFCPRODUCTDEFINITIONSHAPE($,$,(#1704));
#1706=IFCLOCALPLACEMENT(#26,#1700);
#1707=IFCOPENINGELEMENT('0wPicSHggptSZC_ugu6Mp9',#5,'bld_0.flr_0.ops.it_server_room.door_0:void',$,$,#1706,#1705,$,.OPENING.);
#1708=IFCRELVOIDSELEMENT('0L8UvDQkuE0gb8vVqXOq5w',#5,$,$,#1050,#1707);
#1709=IFCDOOR('1qHaefSVUItCdLU1MRyXzQ',#5,'bld_0.flr_0.ops.it_server_room.door_0',$,$,#1701,#1705,$,2.1,1.,$,$,$);
#1710=IFCRELFILLSELEMENT('1FlbMud3y0d_G_pZh5eGML',#5,$,$,#1707,#1709);
#1711=IFCCARTESIANPOINT((26.01,16.09125,0.));
#1712=IFCAXIS2PLACEMENT3D(#1711,#15,#388);
#1713=IFCLOCALPLACEMENT(#26,#1712);
#1714=IFCRECTANGLEPROFILEDEF(.AREA.,$,#1689,1.,0.3);
#1715=IFCEXTRUDEDAREASOLID(#1714,#17,#15,2.1);
#1716=IFCSHAPEREPRESENTATION(#18,'Body','SweptSolid',(#1715));
#1717=IFCPRODUCTDEFINITIONSHAPE($,$,(#1716));
#1718=IFCLOCALPLACEMENT(#26,#1712);
#1719=IFCOPENINGELEMENT('2yACUlN1Mm6R9A5MNfcRmx',#5,'bld_0.flr_0.ops.lockers.door_0:void',$,$,#1718,#1717,$,.OPENING.);
#1720=IFCRELVOIDSELEMENT('3ndRbCMovtkl2GAob63bZ$',#5,$,$,#1162,#1719);
#1721=IFCDOOR('0uoCOlIK5oLRE4jngAURDE',#5,'bld_0.flr_0.ops.lockers.door_0',$,$,#1713,#1717,$,2.1,1.,$,$,$);
#1722=IFCRELFILLSELEMENT('0oTTx6Q77A9gViEJ5NHzp8',#5,$,$,#1719,#1721);
#1723=IFCCARTESIANPOINT((26.01,5.78375,0.));
#1724=IFCAXIS2PLACEMENT3D(#1723,#15,#388);
#1725=IFCLOCALPLACEMENT(#26,#1724);
#1726=IFCRECTANGLEPROFILEDEF(.AREA.,$,#1689,1.2,0.3);
#1727=IFCEXTRUDEDAREASOLID(#1726,#17,#15,2.4);
#1728=IFCSHAPEREPRESENTATION(#18,'Body','SweptSolid',(#1727));
#1729=IFCPRODUCTDEFINITIONSHAPE($,$,(#1728));
#1730=IFCLOCALPLACEMENT(#26,#1724);
#1731=IFCOPENINGELEMENT('3IfN4cO_fixEJiAefGIyDw',#5,'bld_0.flr_0.ops.maintenance.door_0:void',$,$,#1730,#1729,$,.OPENING.);
#1732=IFCRELVOIDSELEMENT('0LbiMu4dEnQfboRHfzSjUf',#5,$,$,#1197,#1731);
#1733=IFCDOOR('1Sn$XzpV$nzFXjj1h$k3ka',#5,'bld_0.flr_0.ops.maintenance.door_0',$,$,#1725,#1729,$,2.4,1.2,$,$,$);
#1734=IFCRELFILLSELEMENT('3QOSdD39QxU$pi2FDdxEZs',#5,$,$,#1731,#1733);
#1735=IFCCARTESIANPOINT((26.01,12.1875,0.));
#1736=IFCAXIS2PLACEMENT3D(#1735,#15,#388);
#1737=IFCLOCALPLACEMENT(#26,#1736);
#1738=IFCRECTANGLEPROFILEDEF(.AREA.,$,#1689,1.,0.3);
#1739=IFCEXTRUDEDAREASOLID(#1738,#17,#15,2.1);
#1740=IFCSHAPEREPRESENTATION(#18,'Body','SweptSolid',(#1739));
#1741=IFCPRODUCTDEFINITIONSHAPE($,$,(#1740));
#1742=IFCLOCALPLACEMENT(#26,#1736);
#1743=IFCOPENINGELEMENT('1ADBKDhhvr8UXCEq7q0LYJ',#5,'bld_0.flr_0.ops.meeting_room.door_0:void',$,$,#1742,#1741,$,.OPENING.);
#1744=IFCRELVOIDSELEMENT('3XtUDro58Co8WF1iHZC9fk',#5,$,$,#1308,#1743);
#1745=IFCDOOR('0fLYXb$KqcyTZ6r6orN2sZ',#5,'bld_0.flr_0.ops.meeting_room.door_0',$,$,#1737,#1741,$,2.1,1.,$,$,$);
#1746=IFCRELFILLSELEMENT('1Hitb$tjlqv1Jjj12z8Qbk',#5,$,$,#1743,#1745);
#1747=IFCCARTESIANPOINT((26.01,14.22375,0.));
#1748=IFCAXIS2PLACEMENT3D(#1747,#15,#388);
#1749=IFCLOCALPLACEMENT(#26,#1748);
#1750=IFCRECTANGLEPROFILEDEF(.AREA.,$,#1689,1.,0.3);
#1751=IFCEXTRUDEDAREASOLID(#1750,#17,#15,2.1);
#1752=IFCSHAPEREPRESENTATION(#18,'Body','SweptSolid',(#1751));
#1753=IFCPRODUCTDEFINITIONSHAPE($,$,(#1752));
#1754=IFCLOCALPLACEMENT(#26,#1748);
#1755=IFCOPENINGELEMENT('14AT4k4CTKP4s7dm2PnLiQ',#5,'bld_0.flr_0.ops.rest_area.door_0:void',$,$,#1754,#1753,$,.OPENING.);
#1756=IFCRELVOIDSELEMENT('1PHAsdPNfLEbjEko5LdEwp',#5,$,$,#1563,#1755);
#1757=IFCDOOR('3IXOfAgXP50e8SKCjVEqRm',#5,'bld_0.flr_0.ops.rest_area.door_0',$,$,#1749,#1753,$,2.1,1.,$,$,$);
#1758=IFCRELFILLSELEMENT('0p9Ar36s2d$xxO3tRvsYbg',#5,$,$,#1755,#1757);
#1759=IFCCARTESIANPOINT((26.01,8.88,0.9));
#1760=IFCAXIS2PLACEMENT3D(#1759,#15,#388);
#1761=IFCLOCALPLACEMENT(#26,#1760);
#1762=IFCRECTANGLEPROFILEDEF(.AREA.,$,#1689,1.,0.3);
#1763=IFCEXTRUDEDAREASOLID(#1762,#17,#15,1.8);
#1764=IFCSHAPEREPRESENTATION(#18,'Body','SweptSolid',(#1763));
#1765=IFCPRODUCTDEFINITIONSHAPE($,$,(#1764));
#1766=IFCLOCALPLACEMENT(#26,#1760);
#1767=IFCOPENINGELEMENT('2jnCXz0Sdx0xmSGO4AZpTT',#5,'bld_0.flr_0.ops.inventory_office.window_0:void',$,$,#1766,#1765,$,.OPENING.);
#1768=IFCRELVOIDSELEMENT('38WS$8rqtxbFsPNvmDt_O4',#5,$,$,#1013,#1767);
#1769=IFCWINDOW('3W1cciYuhK$vH2QwFnT7oZ',#5,'bld_0.flr_0.ops.inventory_office.window_0',$,$,#1761,#1765,$,1.8,1.,$,$,$);
#1770=IFCRELFILLSELEMENT('1Ah5GryB$VNiUD5mD8WBFT',#5,$,$,#1767,#1769);
#1771=IFCRELAGGREGATES('30YxiuKwVd6qnCmBrrfwMc',#5,$,$,#27,(#39,#49,#59,#69,#79,#89,#99,#109,#117,#127,#135,#145,#155,#163,#171,#181,#191,#201,#211,#221,#231,#241,#251,#261,#269,#279,#289,#299,#309,#319,#329,#337,#347,#355,#365));
#1772=IFCRELCONTAINEDINSPATIALSTRUCTURE('0xwMN78uNq4oaSFVJgibFj',#5,$,$,(#377,#387,#400,#409,#420,#430,#442,#451,#462,#472,#481,#490,#501,#511,#522,#531,#542,#550,#559,#568,#579,#589,#598,#606,#617,#625,#637,#647,#658,#668,#680,#689,#697,#707,#716,#724,#732,#742,#750,#759,#770,#778,#790,#798,#809,#817,#829,#839,#850,#860,#868,#877,#885,#895,#903,#913,#921,#929,#937,#946,#957,#965,#974,#983,#994,#1002,#1013,#1023,#1031,#1041,#1050,#1060,#1068,#1078,#1087,#1097,#1105,#1115,#1123,#1132,#1140,#1150,#1162,#1172,#1180,#1188,#1197,#1207,#1218,#1228,#1236,#1246,#1257,#1267,#1275,#1283,#1291,#1299,#1308,#1318,#1326,#1336,#1345,#1355,#1365,#1373,#1382,#1390,#1400,#1410,#1418,#1426,#1437,#1447,#1455,#1463,#1474,#1484,#1492,#1502,#1510,#1520,#1528,#1536,#1544,#1554,#1563,#1573,#1581,#1591,#1600,#1608,#1616,#1626,#1634,#1643,#1651,#1661,#1669,#1677,#1685,#1697,#1709,#1721,#1733,#1745,#1757,#1769),#27);
ENDSEC;
END-ISO-10303-21;
