{"asset": {"version": "2.0", "generator": "ACS Geometry Compiler 1.0"}, "scene": 0, "scenes": [{"nodes": [0, 1, 2, 3, 4, 5, 6, 7, 8]}], "nodes": [{"mesh": 0, "name": "SITE|GROUND|plane|0"}, {"mesh": 1, "name": "FLOOR|F1|slab|0"}, {"mesh": 2, "name": "WALL|F1|room|wN_seg0"}, {"mesh": 3, "name": "WALL|F1|room|wN_seg1"}, {"mesh": 4, "name": "WALL|F1|room|wN_seg2"}, {"mesh": 5, "name": "WALL|F1|room|wS_seg0"}, {"mesh": 6, "name": "WALL|F1|room|wE_seg0"}, {"mesh": 7, "name": "WALL|F1|room|wW_seg0"}, {"mesh": 8, "name": "DOOR|F1|room|0"}], "meshes": [{"primitives": [{"attributes": {"POSITION": 0, "NORMAL": 1, "TEXCOORD_0": 2}, "indices": 3, "material": 0}]}, {"primitives": [{"attributes": {"POSITION": 4, "NORMAL": 5, "TEXCOORD_0": 6}, "indices": 7, "material": 0}]}, {"primitives": [{"attributes": {"POSITION": 8, "NORMAL": 9, "TEXCOORD_0": 10}, "indices": 11, "material": 1}]}, {"primitives": [{"attributes": {"POSITION": 12, "NORMAL": 13, "TEXCOORD_0": 14}, "indices": 15, "material": 1}]}, {"primitives": [{"attributes": {"POSITION": 16, "NORMAL": 17, "TEXCOORD_0": 18}, "indices": 19, "material": 1}]}, {"primitives": [{"attributes": {"POSITION": 20, "NORMAL": 21, "TEXCOORD_0": 22}, "indices": 23, "material": 1}]}, {"primitives": [{"attributes": {"POSITION": 24, "NORMAL": 25, "TEXCOORD_0": 26}, "indices": 27, "material": 1}]}, {"primitives": [{"attributes": {"POSITION": 28, "NORMAL": 29, "TEXCOORD_0": 30}, "indices": 31, "material": 1}]}, {"primitives": [{"attributes": {"POSITION": 32, "NORMAL": 33, "TEXCOORD_0": 34}, "indices": 35, "material": 2}]}], "materials": [{"name": "floor", "pbrMetallicRoughness": {"baseColorFactor": [0.58, 0.58, 0.6, 1.0], "metallicFactor": 0.0, "roughnessFactor": 0.85}, "doubleSided": true}, {"name": "wall", "pbrMetallicRoughness": {"baseColorFactor": [0.82, 0.8, 0.76, 1.0], "metallicFactor": 0.0, "roughnessFactor": 0.9}, "doubleSided": true}, {"name": "door", "pbrMetallicRoughness": {"baseColorFactor": [0.45, 0.28, 0.13, 1.0], "metallicFactor": 0.0, "roughnessFactor": 0.55}, "doubleSided": true}], "accessors": [{"bufferView": 0, "componentType": 5126, "count": 24, "type": "VEC3", "min": [0.0, -0.15000000596046448, 0.0], "max": [20.0, -0.10000000149011612, 25.0]}, {"bufferView": 1, "componentType": 5126, "count": 24, "type": "VEC3"}, {"bufferView": 2, "componentType": 5126, "count": 24, "type": "VEC2"}, {"bufferView": 3, "componentType": 5125, "count": 36, "type": "SCALAR"}, {"bufferView": 4, "componentType": 5126, "count": 24, "type": "VEC3", "min": [0.0, 3.049999952316284, 0.0], "max": [6.0, 3.200000047683716, 6.0]}, {"bufferView": 5, "componentType": 5126, "count": 24, "type": "VEC3"}, {"bufferView": 6, "componentType": 5126, "count": 24, "type": "VEC2"}, {"bufferView": 7, "componentType": 5125, "count": 36, "type": "SCALAR"}, {"bufferView": 8, "componentType": 5126, "count": 24, "type": "VEC3", "min": [0.0, 3.200000047683716, -0.07500000298023224], "max": [2.5, 6.199999809265137, 0.07500000298023224]}, {"bufferView": 9, "componentType": 5126, "count": 24, "type": "VEC3"}, {"bufferView": 10, "componentType": 5126, "count": 24, "type": "VEC2"}, {"bufferView": 11, "componentType": 5125, "count": 36, "type": "SCALAR"}, {"bufferView": 12, "componentType": 5126, "count": 24, "type": "VEC3", "min": [2.5, 5.300000190734863, -0.07500000298023224], "max": [3.5, 6.199999809265137, 0.07500000298023224]}, {"bufferView": 13, "componentType": 5126, "count": 24, "type": "VEC3"}, {"bufferView": 14, "componentType": 5126, "count": 24, "type": "VEC2"}, {"bufferView": 15, "componentType": 5125, "count": 36, "type": "SCALAR"}, {"bufferView": 16, "componentType": 5126, "count": 24, "type": "VEC3", "min": [3.5, 3.200000047683716, -0.07500000298023224], "max": [6.0, 6.199999809265137, 0.07500000298023224]}, {"bufferView": 17, "componentType": 5126, "count": 24, "type": "VEC3"}, {"bufferView": 18, "componentType": 5126, "count": 24, "type": "VEC2"}, {"bufferView": 19, "componentType": 5125, "count": 36, "type": "SCALAR"}, {"bufferView": 20, "componentType": 5126, "count": 24, "type": "VEC3", "min": [0.0, 3.200000047683716, 5.925000190734863], "max": [6.0, 6.199999809265137, 6.074999809265137]}, {"bufferView": 21, "componentType": 5126, "count": 24, "type": "VEC3"}, {"bufferView": 22, "componentType": 5126, "count": 24, "type": "VEC2"}, {"bufferView": 23, "componentType": 5125, "count": 36, "type": "SCALAR"}, {"bufferView": 24, "componentType": 5126, "count": 24, "type": "VEC3", "min": [5.925000190734863, 3.200000047683716, 0.0], "max": [6.074999809265137, 6.199999809265137, 6.0]}, {"bufferView": 25, "componentType": 5126, "count": 24, "type": "VEC3"}, {"bufferView": 26, "componentType": 5126, "count": 24, "type": "VEC2"}, {"bufferView": 27, "componentType": 5125, "count": 36, "type": "SCALAR"}, {"bufferView": 28, "componentType": 5126, "count": 24, "type": "VEC3", "min": [-0.07500000298023224, 3.200000047683716, 0.0], "max": [0.07500000298023224, 6.199999809265137, 6.0]}, {"bufferView": 29, "componentType": 5126, "count": 24, "type": "VEC3"}, {"bufferView": 30, "componentType": 5126, "count": 24, "type": "VEC2"}, {"bufferView": 31, "componentType": 5125, "count": 36, "type": "SCALAR"}, {"bufferView": 32, "componentType": 5126, "count": 24, "type": "VEC3", "min": [2.5, 3.200000047683716, -0.02500000037252903], "max": [3.5, 5.300000190734863, 0.02500000037252903]}, {"bufferView": 33, "componentType": 5126, "count": 24, "type": "VEC3"}, {"bufferView": 34, "componentType": 5126, "count": 24, "type": "VEC2"}, {"bufferView": 35, "componentType": 5125, "count": 36, "type": "SCALAR"}], "bufferViews": [{"buffer": 0, "byteOffset": 0, "byteLength": 288, "target": 34962}, {"buffer": 0, "byteOffset": 288, "byteLength": 288, "target": 34962}, {"buffer": 0, "byteOffset": 576, "byteLength": 192, "target": 34962}, {"buffer": 0, "byteOffset": 768, "byteLength": 144, "target": 34963}, {"buffer": 0, "byteOffset": 912, "byteLength": 288, "target": 34962}, {"buffer": 0, "byteOffset": 1200, "byteLength": 288, "target": 34962}, {"buffer": 0, "byteOffset": 1488, "byteLength": 192, "target": 34962}, {"buffer": 0, "byteOffset": 1680, "byteLength": 144, "target": 34963}, {"buffer": 0, "byteOffset": 1824, "byteLength": 288, "target": 34962}, {"buffer": 0, "byteOffset": 2112, "byteLength": 288, "target": 34962}, {"buffer": 0, "byteOffset": 2400, "byteLength": 192, "target": 34962}, {"buffer": 0, "byteOffset": 2592, "byteLength": 144, "target": 34963}, {"buffer": 0, "byteOffset": 2736, "byteLength": 288, "target": 34962}, {"buffer": 0, "byteOffset": 3024, "byteLength": 288, "target": 34962}, {"buffer": 0, "byteOffset": 3312, "byteLength": 192, "target": 34962}, {"buffer": 0, "byteOffset": 3504, "byteLength": 144, "target": 34963}, {"buffer": 0, "byteOffset": 3648, "byteLength": 288, "target": 34962}, {"buffer": 0, "byteOffset": 3936, "byteLength": 288, "target": 34962}, {"buffer": 0, "byteOffset": 4224, "byteLength": 192, "target": 34962}, {"buffer": 0, "byteOffset": 4416, "byteLength": 144, "target": 34963}, {"buffer": 0, "byteOffset": 4560, "byteLength": 288, "target": 34962}, {"buffer": 0, "byteOffset": 4848, "byteLength": 288, "target": 34962}, {"buffer": 0, "byteOffset": 5136, "byteLength": 192, "target": 34962}, {"buffer": 0, "byteOffset": 5328, "byteLength": 144, "target": 34963}, {"buffer": 0, "byteOffset": 5472, "byteLength": 288, "target": 34962}, {"buffer": 0, "byteOffset": 5760, "byteLength": 288, "target": 34962}, {"buffer": 0, "byteOffset": 6048, "byteLength": 192, "target": 34962}, {"buffer": 0, "byteOffset": 6240, "byteLength": 144, "target": 34963}, {"buffer": 0, "byteOffset": 6384, "byteLength": 288, "target": 34962}, {"buffer": 0, "byteOffset": 6672, "byteLength": 288, "target": 34962}, {"buffer": 0, "byteOffset": 6960, "byteLength": 192, "target": 34962}, {"buffer": 0, "byteOffset": 7152, "byteLength": 144, "target": 34963}, {"buffer": 0, "byteOffset": 7296, "byteLength": 288, "target": 34962}, {"buffer": 0, "byteOffset": 7584, "byteLength": 288, "target": 34962}, {"buffer": 0, "byteOffset": 7872, "byteLength": 192, "target": 34962}, {"buffer": 0, "byteOffset": 8064, "byteLength": 144, "target": 34963}], "buffers": [{"byteLength": 8208, "uri": "data:application/octet-stream;base64,"}]}