<?xml version="1.0" encoding="UTF-8"?>
<svg xmlns="http://www.w3.org/2000/svg" width="420mm" height="297mm" viewBox="0 0 420 297" data-acs-doc="1" data-view-type="ELEVATION" data-view-id="view_af33ff5ff7d65912" data-model-hash="7d8be224b39752ec0d17af28554300d5549f3ab4e80901b33cce79ca5a4ace48" data-scale-mode="TRUE_SCALE" data-construction-drawing="false">
<rect x="0" y="0" width="420" height="297" fill="#ffffff"/>
<line x1="31" y1="285" x2="43" y2="285" stroke="#000000" stroke-width="0.35" data-cls="PROJECTED"/>
<line x1="12" y1="253" x2="234" y2="253" stroke="#000000" stroke-width="0.13" stroke-dasharray="1.6 1.2" data-cls="REFERENCE"/>
<line x1="12" y1="285" x2="234" y2="285" stroke="#000000" stroke-width="0.13" stroke-dasharray="1.6 1.2" data-cls="REFERENCE"/>
<rect x="12" y="223" width="50" height="30" fill="none" stroke="#000000" stroke-width="0.35" data-cls="PROJECTED"/>
<rect x="12" y="223" width="50" height="30" fill="none" stroke="#000000" stroke-width="0.35" data-cls="PROJECTED"/>
<rect x="12" y="255" width="50" height="30" fill="none" stroke="#000000" stroke-width="0.35" data-cls="PROJECTED"/>
<rect x="12" y="255" width="50" height="30" fill="none" stroke="#000000" stroke-width="0.35" data-cls="PROJECTED"/>
<rect x="30" y="230" width="14" height="14" fill="none" stroke="#000000" stroke-width="0.35" data-cls="PROJECTED"/>
<rect x="30" y="230" width="14" height="14" fill="none" stroke="#000000" stroke-width="0.35" data-cls="PROJECTED"/>
<rect x="30" y="262" width="14" height="14" fill="none" stroke="#000000" stroke-width="0.35" data-cls="PROJECTED"/>
<rect x="30" y="262" width="14" height="14" fill="none" stroke="#000000" stroke-width="0.35" data-cls="PROJECTED"/>
<rect x="62" y="223" width="30" height="30" fill="none" stroke="#000000" stroke-width="0.35" data-cls="PROJECTED"/>
<rect x="62" y="223" width="50" height="30" fill="none" stroke="#000000" stroke-width="0.35" data-cls="PROJECTED"/>
<rect x="62" y="255" width="50" height="30" fill="none" stroke="#000000" stroke-width="0.35" data-cls="PROJECTED"/>
<rect x="62" y="255" width="50" height="30" fill="none" stroke="#000000" stroke-width="0.35" data-cls="PROJECTED"/>
<rect x="112" y="255" width="30" height="30" fill="none" stroke="#000000" stroke-width="0.35" data-cls="PROJECTED"/>
<rect x="120" y="230" width="14" height="14" fill="none" stroke="#000000" stroke-width="0.35" data-cls="PROJECTED"/>
<rect x="130" y="230" width="14" height="14" fill="none" stroke="#000000" stroke-width="0.35" data-cls="PROJECTED"/>
<rect x="130" y="262" width="14" height="14" fill="none" stroke="#000000" stroke-width="0.35" data-cls="PROJECTED"/>
<rect x="130" y="262" width="14" height="14" fill="none" stroke="#000000" stroke-width="0.35" data-cls="PROJECTED"/>
<rect x="220" y="262" width="14" height="14" fill="none" stroke="#000000" stroke-width="0.35" data-cls="PROJECTED"/>
<text x="12" y="292" font-family="monospace" font-size="2.4" fill="#000000">model-derived documentation — not a construction drawing</text>
</svg>