<svg xmlns="http://www.w3.org/2000/svg" width="772" height="330" viewBox="0 0 772 330" font-family="system-ui,Segoe UI,Tahoma,sans-serif">
<rect width="772" height="330" fill="#ffffff"/>
<rect x="386" y="46" width="136" height="170" fill="#f2efe9" stroke="none" data-space="bld_0.g.core_g"/>
<rect x="46" y="216" width="680" height="68" fill="#f2efe9" stroke="none" data-space="bld_0.g.lobby"/>
<line x1="386" y1="46" x2="522" y2="46" stroke="#2b2b2b" stroke-width="5.1" stroke-linecap="square" data-wall="bld_0.flr_0.wall_0"/>
<line x1="46" y1="216" x2="386" y2="216" stroke="#2b2b2b" stroke-width="5.1" stroke-linecap="square" data-wall="bld_0.flr_0.wall_1"/>
<line x1="386" y1="216" x2="522" y2="216" stroke="#2b2b2b" stroke-width="5.1" stroke-linecap="square" data-wall="bld_0.flr_0.wall_2"/>
<line x1="522" y1="216" x2="726" y2="216" stroke="#2b2b2b" stroke-width="5.1" stroke-linecap="square" data-wall="bld_0.flr_0.wall_3"/>
<line x1="46" y1="284" x2="726" y2="284" stroke="#2b2b2b" stroke-width="5.1" stroke-linecap="square" data-wall="bld_0.flr_0.wall_4"/>
<line x1="46" y1="216" x2="46" y2="284" stroke="#2b2b2b" stroke-width="5.1" stroke-linecap="square" data-wall="bld_0.flr_0.wall_5"/>
<line x1="386" y1="46" x2="386" y2="216" stroke="#2b2b2b" stroke-width="5.1" stroke-linecap="square" data-wall="bld_0.flr_0.wall_6"/>
<line x1="522" y1="46" x2="522" y2="216" stroke="#2b2b2b" stroke-width="5.1" stroke-linecap="square" data-wall="bld_0.flr_0.wall_7"/>
<line x1="726" y1="216" x2="726" y2="284" stroke="#2b2b2b" stroke-width="5.1" stroke-linecap="square" data-wall="bld_0.flr_0.wall_8"/>
<rect x="433.6" y="211.58" width="40.8" height="8.84" fill="#ffffff" stroke="#2b2b2b" stroke-width="1" data-door="bld_0.g.core_g.door_0@0"/>
<rect x="41.58" y="216" width="8.84" height="68" fill="#ffffff" stroke="#2b2b2b" stroke-width="1" data-door="bld_0.g.lobby.door_0@0"/>
<rect x="430.2" y="42.94" width="47.6" height="6.12" fill="#ffffff" stroke="#4a7d94" stroke-width="1.4" data-window="bld_0.g.core_g.window_0@0"/>
<rect x="362.2" y="280.94" width="47.6" height="6.12" fill="#ffffff" stroke="#4a7d94" stroke-width="1.4" data-window="bld_0.g.lobby.window_0@0"/>
<rect x="467.6" y="42.6" width="40.8" height="142.8" fill="#e3ded3" stroke="#2b2b2b" stroke-width="1" data-stair="bld_0.core_1"/>
<text x="454" y="131" fill="#3a3a3a" font-size="11" text-anchor="middle" data-label="bld_0.g.core_g">core_g</text>
<text x="454" y="144" fill="#3a3a3a" font-size="9" text-anchor="middle" opacity="0.75">20 m²</text>
<text x="386" y="250" fill="#3a3a3a" font-size="11" text-anchor="middle" data-label="bld_0.g.lobby">lobby</text>
<text x="386" y="263" fill="#3a3a3a" font-size="9" text-anchor="middle" opacity="0.75">40 m²</text>
<text x="46" y="316" fill="#3a3a3a" font-size="9" opacity="0.7">presentation drawing — not a construction drawing</text>
</svg>