<svg xmlns="http://www.w3.org/2000/svg" width="891" height="425" viewBox="0 0 891 425" font-family="system-ui,Segoe UI,Tahoma,sans-serif">
<rect width="891" height="425" fill="#ffffff"/>
<rect x="131" y="271.9" width="680" height="102" fill="#dcd8d0" stroke="#3a3a3a" stroke-width="0.6" data-shape="bld_0.flr_0.wall_4" data-kind="WALL"/>
<rect x="131" y="159.7" width="680" height="102" fill="#dcd8d0" stroke="#3a3a3a" stroke-width="0.6" data-shape="bld_0.flr_1.wall_7" data-kind="WALL"/>
<rect x="131" y="47.5" width="680" height="102" fill="#dcd8d0" stroke="#3a3a3a" stroke-width="0.6" data-shape="bld_0.flr_2.wall_7" data-kind="WALL"/>
<rect x="447.2" y="295.7" width="47.6" height="47.6" fill="#9dc4d6" stroke="#3a3a3a" stroke-width="0.6" data-shape="bld_0.g.lobby.window_0@0" data-kind="WINDOW"/>
<rect x="447.2" y="183.5" width="47.6" height="47.6" fill="#9dc4d6" stroke="#3a3a3a" stroke-width="0.6" data-shape="bld_0.t.corridor.window_0@1" data-kind="WINDOW"/>
<rect x="447.2" y="71.3" width="47.6" height="47.6" fill="#9dc4d6" stroke="#3a3a3a" stroke-width="0.6" data-shape="bld_0.t.corridor.window_0@2" data-kind="WINDOW"/>
<rect x="131" y="270.2" width="680" height="1.7" fill="#d2cec6" stroke="#3a3a3a" stroke-width="0.6" data-shape="bld_0.flr_0.ceiling_lobby" data-kind="CEILING"/>
<rect x="97" y="271.9" width="68" height="102" fill="#dcd8d0" stroke="#3a3a3a" stroke-width="0.6" data-shape="bld_0.flr_0.wall_5" data-kind="WALL"/>
<rect x="777" y="271.9" width="68" height="102" fill="#dcd8d0" stroke="#3a3a3a" stroke-width="0.6" data-shape="bld_0.flr_0.wall_8" data-kind="WALL"/>
<rect x="131" y="158" width="680" height="1.7" fill="#d2cec6" stroke="#3a3a3a" stroke-width="0.6" data-shape="bld_0.flr_1.ceiling_corridor" data-kind="CEILING"/>
<rect x="777" y="159.7" width="68" height="102" fill="#dcd8d0" stroke="#3a3a3a" stroke-width="0.6" data-shape="bld_0.flr_1.wall_13" data-kind="WALL"/>
<rect x="97" y="159.7" width="68" height="102" fill="#dcd8d0" stroke="#3a3a3a" stroke-width="0.6" data-shape="bld_0.flr_1.wall_9" data-kind="WALL"/>
<rect x="131" y="45.8" width="680" height="1.7" fill="#d2cec6" stroke="#3a3a3a" stroke-width="0.6" data-shape="bld_0.flr_2.ceiling_corridor" data-kind="CEILING"/>
<rect x="777" y="47.5" width="68" height="102" fill="#dcd8d0" stroke="#3a3a3a" stroke-width="0.6" data-shape="bld_0.flr_2.wall_13" data-kind="WALL"/>
<rect x="97" y="47.5" width="68" height="102" fill="#dcd8d0" stroke="#3a3a3a" stroke-width="0.6" data-shape="bld_0.flr_2.wall_9" data-kind="WALL"/>
<rect x="128.96" y="302.5" width="4.08" height="71.4" fill="#8a6a44" stroke="#3a3a3a" stroke-width="0.6" data-shape="bld_0.g.lobby.door_0@0" data-kind="DOOR"/>
<rect x="131" y="271.9" width="340" height="102" fill="#dcd8d0" stroke="#3a3a3a" stroke-width="0.6" data-shape="bld_0.flr_0.wall_1" data-kind="WALL"/>
<rect x="471" y="271.9" width="136" height="102" fill="#dcd8d0" stroke="#3a3a3a" stroke-width="0.6" data-shape="bld_0.flr_0.wall_2" data-kind="WALL"/>
<rect x="607" y="271.9" width="204" height="102" fill="#dcd8d0" stroke="#3a3a3a" stroke-width="0.6" data-shape="bld_0.flr_0.wall_3" data-kind="WALL"/>
<rect x="131" y="159.7" width="170" height="102" fill="#dcd8d0" stroke="#3a3a3a" stroke-width="0.6" data-shape="bld_0.flr_1.wall_3" data-kind="WALL"/>
<rect x="301" y="159.7" width="170" height="102" fill="#dcd8d0" stroke="#3a3a3a" stroke-width="0.6" data-shape="bld_0.flr_1.wall_4" data-kind="WALL"/>
<rect x="471" y="159.7" width="136" height="102" fill="#dcd8d0" stroke="#3a3a3a" stroke-width="0.6" data-shape="bld_0.flr_1.wall_5" data-kind="WALL"/>
<rect x="607" y="159.7" width="204" height="102" fill="#dcd8d0" stroke="#3a3a3a" stroke-width="0.6" data-shape="bld_0.flr_1.wall_6" data-kind="WALL"/>
<rect x="131" y="47.5" width="170" height="102" fill="#dcd8d0" stroke="#3a3a3a" stroke-width="0.6" data-shape="bld_0.flr_2.wall_3" data-kind="WALL"/>
<rect x="301" y="47.5" width="170" height="102" fill="#dcd8d0" stroke="#3a3a3a" stroke-width="0.6" data-shape="bld_0.flr_2.wall_4" data-kind="WALL"/>
<rect x="471" y="47.5" width="136" height="102" fill="#dcd8d0" stroke="#3a3a3a" stroke-width="0.6" data-shape="bld_0.flr_2.wall_5" data-kind="WALL"/>
<rect x="607" y="47.5" width="204" height="102" fill="#dcd8d0" stroke="#3a3a3a" stroke-width="0.6" data-shape="bld_0.flr_2.wall_6" data-kind="WALL"/>
<rect x="518.6" y="302.5" width="40.8" height="71.4" fill="#8a6a44" stroke="#3a3a3a" stroke-width="0.6" data-shape="bld_0.g.core_g.door_0@0" data-kind="DOOR"/>
<rect x="518.6" y="190.3" width="40.8" height="71.4" fill="#8a6a44" stroke="#3a3a3a" stroke-width="0.6" data-shape="bld_0.t.core.door_0@1" data-kind="DOOR"/>
<rect x="518.6" y="78.1" width="40.8" height="71.4" fill="#8a6a44" stroke="#3a3a3a" stroke-width="0.6" data-shape="bld_0.t.core.door_0@2" data-kind="DOOR"/>
<rect x="200.7" y="190.3" width="30.6" height="71.4" fill="#8a6a44" stroke="#3a3a3a" stroke-width="0.6" data-shape="bld_0.t.guest_1.door_0@1" data-kind="DOOR"/>
<rect x="200.7" y="78.1" width="30.6" height="71.4" fill="#8a6a44" stroke="#3a3a3a" stroke-width="0.6" data-shape="bld_0.t.guest_1.door_0@2" data-kind="DOOR"/>
<rect x="370.7" y="190.3" width="30.6" height="71.4" fill="#8a6a44" stroke="#3a3a3a" stroke-width="0.6" data-shape="bld_0.t.guest_2.door_0@1" data-kind="DOOR"/>
<rect x="370.7" y="78.1" width="30.6" height="71.4" fill="#8a6a44" stroke="#3a3a3a" stroke-width="0.6" data-shape="bld_0.t.guest_2.door_0@2" data-kind="DOOR"/>
<rect x="131" y="373.9" width="680" height="5.1" fill="#c6c2ba" stroke="#3a3a3a" stroke-width="0.6" data-shape="bld_0.flr_0.slab" data-kind="SLAB"/>
<rect x="131" y="261.7" width="680" height="5.1" fill="#c6c2ba" stroke="#3a3a3a" stroke-width="0.6" data-shape="bld_0.flr_1.slab" data-kind="SLAB"/>
<rect x="131" y="149.5" width="680" height="5.1" fill="#c6c2ba" stroke="#3a3a3a" stroke-width="0.6" data-shape="bld_0.flr_2.slab" data-kind="SLAB"/>
<rect x="471" y="270.2" width="136" height="1.7" fill="#d2cec6" stroke="#3a3a3a" stroke-width="0.6" data-shape="bld_0.flr_0.ceiling_core_g" data-kind="CEILING"/>
<rect x="386" y="271.9" width="170" height="102" fill="#dcd8d0" stroke="#3a3a3a" stroke-width="0.6" data-shape="bld_0.flr_0.wall_6" data-kind="WALL"/>
<rect x="522" y="271.9" width="170" height="102" fill="#dcd8d0" stroke="#3a3a3a" stroke-width="0.6" data-shape="bld_0.flr_0.wall_7" data-kind="WALL"/>
<rect x="471" y="158" width="136" height="1.7" fill="#d2cec6" stroke="#3a3a3a" stroke-width="0.6" data-shape="bld_0.flr_1.ceiling_core" data-kind="CEILING"/>
<rect x="131" y="158" width="170" height="1.7" fill="#d2cec6" stroke="#3a3a3a" stroke-width="0.6" data-shape="bld_0.flr_1.ceiling_guest_1" data-kind="CEILING"/>
<rect x="301" y="158" width="170" height="1.7" fill="#d2cec6" stroke="#3a3a3a" stroke-width="0.6" data-shape="bld_0.flr_1.ceiling_guest_2" data-kind="CEILING"/>
<rect x="216" y="159.7" width="170" height="102" fill="#dcd8d0" stroke="#3a3a3a" stroke-width="0.6" data-shape="bld_0.flr_1.wall_10" data-kind="WALL"/>
<rect x="386" y="159.7" width="170" height="102" fill="#dcd8d0" stroke="#3a3a3a" stroke-width="0.6" data-shape="bld_0.flr_1.wall_11" data-kind="WALL"/>
<rect x="522" y="159.7" width="170" height="102" fill="#dcd8d0" stroke="#3a3a3a" stroke-width="0.6" data-shape="bld_0.flr_1.wall_12" data-kind="WALL"/>
<rect x="46" y="159.7" width="170" height="102" fill="#dcd8d0" stroke="#3a3a3a" stroke-width="0.6" data-shape="bld_0.flr_1.wall_8" data-kind="WALL"/>
<rect x="471" y="45.8" width="136" height="1.7" fill="#d2cec6" stroke="#3a3a3a" stroke-width="0.6" data-shape="bld_0.flr_2.ceiling_core" data-kind="CEILING"/>
<rect x="131" y="45.8" width="170" height="1.7" fill="#d2cec6" stroke="#3a3a3a" stroke-width="0.6" data-shape="bld_0.flr_2.ceiling_guest_1" data-kind="CEILING"/>
<rect x="301" y="45.8" width="170" height="1.7" fill="#d2cec6" stroke="#3a3a3a" stroke-width="0.6" data-shape="bld_0.flr_2.ceiling_guest_2" data-kind="CEILING"/>
<rect x="216" y="47.5" width="170" height="102" fill="#dcd8d0" stroke="#3a3a3a" stroke-width="0.6" data-shape="bld_0.flr_2.wall_10" data-kind="WALL"/>
<rect x="386" y="47.5" width="170" height="102" fill="#dcd8d0" stroke="#3a3a3a" stroke-width="0.6" data-shape="bld_0.flr_2.wall_11" data-kind="WALL"/>
<rect x="522" y="47.5" width="170" height="102" fill="#dcd8d0" stroke="#3a3a3a" stroke-width="0.6" data-shape="bld_0.flr_2.wall_12" data-kind="WALL"/>
<rect x="46" y="47.5" width="170" height="102" fill="#dcd8d0" stroke="#3a3a3a" stroke-width="0.6" data-shape="bld_0.flr_2.wall_8" data-kind="WALL"/>
<rect x="552.6" y="149.5" width="40.8" height="224.4" fill="#cfcabf" stroke="#3a3a3a" stroke-width="0.6" data-shape="bld_0.core_1" data-kind="STAIR"/>
<rect x="471" y="271.9" width="136" height="102" fill="#dcd8d0" stroke="#3a3a3a" stroke-width="0.6" data-shape="bld_0.flr_0.wall_0" data-kind="WALL"/>
<rect x="131" y="159.7" width="170" height="102" fill="#dcd8d0" stroke="#3a3a3a" stroke-width="0.6" data-shape="bld_0.flr_1.wall_0" data-kind="WALL"/>
<rect x="301" y="159.7" width="170" height="102" fill="#dcd8d0" stroke="#3a3a3a" stroke-width="0.6" data-shape="bld_0.flr_1.wall_1" data-kind="WALL"/>
<rect x="471" y="159.7" width="136" height="102" fill="#dcd8d0" stroke="#3a3a3a" stroke-width="0.6" data-shape="bld_0.flr_1.wall_2" data-kind="WALL"/>
<rect x="131" y="47.5" width="170" height="102" fill="#dcd8d0" stroke="#3a3a3a" stroke-width="0.6" data-shape="bld_0.flr_2.wall_0" data-kind="WALL"/>
<rect x="301" y="47.5" width="170" height="102" fill="#dcd8d0" stroke="#3a3a3a" stroke-width="0.6" data-shape="bld_0.flr_2.wall_1" data-kind="WALL"/>
<rect x="471" y="47.5" width="136" height="102" fill="#dcd8d0" stroke="#3a3a3a" stroke-width="0.6" data-shape="bld_0.flr_2.wall_2" data-kind="WALL"/>
<rect x="515.2" y="295.7" width="47.6" height="47.6" fill="#9dc4d6" stroke="#3a3a3a" stroke-width="0.6" data-shape="bld_0.g.core_g.window_0@0" data-kind="WINDOW"/>
<rect x="515.2" y="183.5" width="47.6" height="47.6" fill="#9dc4d6" stroke="#3a3a3a" stroke-width="0.6" data-shape="bld_0.t.core.window_0@1" data-kind="WINDOW"/>
<rect x="515.2" y="71.3" width="47.6" height="47.6" fill="#9dc4d6" stroke="#3a3a3a" stroke-width="0.6" data-shape="bld_0.t.core.window_0@2" data-kind="WINDOW"/>
<rect x="192.2" y="183.5" width="47.6" height="47.6" fill="#9dc4d6" stroke="#3a3a3a" stroke-width="0.6" data-shape="bld_0.t.guest_1.window_0@1" data-kind="WINDOW"/>
<rect x="192.2" y="71.3" width="47.6" height="47.6" fill="#9dc4d6" stroke="#3a3a3a" stroke-width="0.6" data-shape="bld_0.t.guest_1.window_0@2" data-kind="WINDOW"/>
<rect x="362.2" y="183.5" width="47.6" height="47.6" fill="#9dc4d6" stroke="#3a3a3a" stroke-width="0.6" data-shape="bld_0.t.guest_2.window_0@1" data-kind="WINDOW"/>
<rect x="362.2" y="71.3" width="47.6" height="47.6" fill="#9dc4d6" stroke="#3a3a3a" stroke-width="0.6" data-shape="bld_0.t.guest_2.window_0@2" data-kind="WINDOW"/>
<line x1="18.4" y1="373.9" x2="872.6" y2="373.9" stroke="#111" stroke-width="1.4"/>
<text x="46" y="411" fill="#333" font-size="10">SOUTH elevation — 18 modelled openings, 0 invented</text>
</svg>