0
SECTION
2
HEADER
9
$INSUNITS
70
6
0
ENDSEC
0
SECTION
2
ENTITIES
0
LWPOLYLINE
8
F0
90
4
70
1
10
0
20
0
10
30
20
0
10
30
20
25
10
0
20
25
0
LWPOLYLINE
8
F0
90
4
70
1
10
0
20
0
10
12.99
20
0
10
12.99
20
2.81
10
0
20
2.81
0
LWPOLYLINE
8
F0
90
4
70
1
10
0
20
2.81
10
12.99
20
2.81
10
12.99
20
4.6899999999999995
10
0
20
4.6899999999999995
0
LWPOLYLINE
8
F0
90
4
70
1
10
0
20
4.69
10
19.5
20
4.69
10
19.5
20
6.880000000000001
10
0
20
6.880000000000001
0
LWPOLYLINE
8
F0
90
4
70
1
10
12.99
20
0
10
19.5
20
0
10
19.5
20
4.69
10
12.99
20
4.69
0
LWPOLYLINE
8
F0
90
4
70
1
10
19.5
20
0
10
30.0
20
0
10
30.0
20
4.69
10
19.5
20
4.69
0
LWPOLYLINE
8
F0
90
4
70
1
10
19.5
20
4.69
10
26.009999999999998
20
4.69
10
26.009999999999998
20
6.880000000000001
10
19.5
20
6.880000000000001
0
LWPOLYLINE
8
F0
90
4
70
1
10
26.01
20
4.69
10
30.0
20
4.69
10
30.0
20
6.880000000000001
10
26.01
20
6.880000000000001
0
LWPOLYLINE
8
F0
90
4
70
1
10
0
20
6.88
10
8.47
20
6.88
10
8.47
20
16.88
10
0
20
16.88
0
LWPOLYLINE
8
F0
90
4
70
1
10
8.47
20
6.88
10
14.96
20
6.88
10
14.96
20
16.88
10
8.47
20
16.88
0
LWPOLYLINE
8
F0
90
4
70
1
10
14.96
20
6.88
10
19.96
20
6.88
10
19.96
20
16.88
10
14.96
20
16.88
0
LWPOLYLINE
8
F0
90
4
70
1
10
19.96
20
6.88
10
24.450000000000003
20
6.88
10
24.450000000000003
20
16.88
10
19.96
20
16.88
0
LWPOLYLINE
8
F0
90
4
70
1
10
24.45
20
6.88
10
28.45
20
6.88
10
28.45
20
16.88
10
24.45
20
16.88
0
LWPOLYLINE
8
F0
90
4
70
1
10
26.01
20
6.88
10
30.0
20
6.88
10
30.0
20
9.379999999999999
10
26.01
20
9.379999999999999
0
LWPOLYLINE
8
F0
90
4
70
1
10
26.01
20
9.38
10
30.0
20
9.38
10
30.0
20
11.260000000000002
10
26.01
20
11.260000000000002
0
LWPOLYLINE
8
F0
90
4
70
1
10
26.01
20
11.25
10
30.0
20
11.25
10
30.0
20
13.129999999999999
10
26.01
20
13.129999999999999
0
LWPOLYLINE
8
F0
90
4
70
1
10
26.01
20
13.13
10
30.0
20
13.13
10
30.0
20
15.32
10
26.01
20
15.32
0
LWPOLYLINE
8
F0
90
4
70
1
10
26.01
20
15.31
10
30.0
20
15.31
10
30.0
20
16.87
10
26.01
20
16.87
0
LWPOLYLINE
8
F0
90
4
70
1
10
0
20
16.88
10
6
20
16.88
10
6
20
20.009999999999998
10
0
20
20.009999999999998
0
LWPOLYLINE
8
F0
90
4
70
1
10
6
20
16.88
10
12
20
16.88
10
12
20
20.009999999999998
10
6
20
20.009999999999998
0
LWPOLYLINE
8
F0
90
4
70
1
10
12
20
16.88
10
18.509999999999998
20
16.88
10
18.509999999999998
20
20.009999999999998
10
12
20
20.009999999999998
0
LWPOLYLINE
8
F0
90
4
70
1
10
18.51
20
16.88
10
24.0
20
16.88
10
24.0
20
20.009999999999998
10
18.51
20
20.009999999999998
0
LWPOLYLINE
8
F0
90
4
70
1
10
24
20
16.88
10
30
20
16.88
10
30
20
20.009999999999998
10
24
20
20.009999999999998
0
LWPOLYLINE
8
F0
90
4
70
1
10
0
20
20
10
7.98
20
20
10
7.98
20
22.81
10
0
20
22.81
0
LWPOLYLINE
8
F0
90
4
70
1
10
7.98
20
20
10
11.97
20
20
10
11.97
20
22.81
10
7.98
20
22.81
0
LWPOLYLINE
8
F0
90
4
70
1
10
12
20
20
10
15
20
20
10
15
20
22.81
10
12
20
22.81
0
LWPOLYLINE
8
F0
90
4
70
1
10
15
20
20
10
19.5
20
20
10
19.5
20
22.81
10
15
20
22.81
0
LWPOLYLINE
8
F0
90
4
70
1
10
19.5
20
20
10
26.490000000000002
20
20
10
26.490000000000002
20
22.81
10
19.5
20
22.81
0
LWPOLYLINE
8
F0
90
4
70
1
10
26.49
20
20
10
30.0
20
20
10
30.0
20
22.81
10
26.49
20
22.81
0
LWPOLYLINE
8
F0
90
4
70
1
10
0
20
22.81
10
5.01
20
22.81
10
5.01
20
25.0
10
0
20
25.0
0
LWPOLYLINE
8
F0
90
4
70
1
10
5.01
20
22.81
10
10.02
20
22.81
10
10.02
20
25.0
10
5.01
20
25.0
0
LWPOLYLINE
8
F0
90
4
70
1
10
10.02
20
22.81
10
14.52
20
22.81
10
14.52
20
25.0
10
10.02
20
25.0
0
LWPOLYLINE
8
F0
90
4
70
1
10
14.52
20
22.81
10
20.009999999999998
20
22.81
10
20.009999999999998
20
25.0
10
14.52
20
25.0
0
LWPOLYLINE
8
F0
90
4
70
1
10
20.01
20
22.81
10
23.01
20
22.81
10
23.01
20
25.0
10
20.01
20
25.0
0
LWPOLYLINE
8
F0
90
4
70
1
10
23.01
20
22.81
10
30.0
20
22.81
10
30.0
20
25.0
10
23.01
20
25.0
0
ENDSEC
0
EOF
